<ttFont>
<head>
    <!-- Most of this table will be recalculated by the compiler -->
    <tableVersion value="1.0"/>
    <fontRevision value="1.002"/>
    <checkSumAdjustment value="0xf7d093e"/>
    <magicNumber value="0x5f0f3cf5"/>
    <flags value="00000000 00001111"/>
    <unitsPerEm value="1000"/>
    <created value="Sun Jun 13 08:13:04 2021"/>
    <modified value="Mon Jun 14 15:25:59 2021"/>
    <xMin value="-176"/>
    <yMin value="-265"/>
    <xMax value="1201"/>
    <yMax value="1228"/>
    <macStyle value="00000000 00000010"/>
    <lowestRecPPEM value="6"/>
    <fontDirectionHint value="2"/>
    <indexToLocFormat value="0"/>
    <glyphDataFormat value="0"/>
  </head>
    <TTGlyph name=".notdef" xMin="50" yMin="-265" xMax="450" yMax="1000">
      <contour>
        <pt x="50" y="-265" on="1"/>
        <pt x="50" y="1000" on="1"/>
        <pt x="450" y="1000" on="1"/>
        <pt x="450" y="-265" on="1"/>
      </contour>
      <contour>
        <pt x="100" y="-215" on="1"/>
        <pt x="400" y="-215" on="1"/>
        <pt x="400" y="950" on="1"/>
        <pt x="100" y="950" on="1"/>
      </contour>
    </TTGlyph>
    <TTGlyph name="A" xMin="-38" yMin="0" xMax="691" yMax="740">
      <contour>
        <pt x="-38" y="0" on="1"/>
        <pt x="368" y="740" on="1"/>
        <pt x="599" y="740" on="1"/>
        <pt x="691" y="0" on="1"/>
        <pt x="519" y="0" on="1"/>
        <pt x="504" y="135" on="1"/>
        <pt x="224" y="135" on="1"/>
        <pt x="152" y="0" on="1"/>
      </contour>
      <contour>
        <pt x="302" y="283" on="1"/>
        <pt x="489" y="283" on="1"/>
        <pt x="457" y="573" on="1"/>
      </contour>
    </TTGlyph>
    <TTGlyph name="AE" xMin="-38" yMin="0" xMax="1073" yMax="740">
      <contour>
        <pt x="-38" y="0" on="1"/>
        <pt x="440" y="740" on="1"/>
        <pt x="1073" y="740" on="1"/>
        <pt x="1041" y="590" on="1"/>
        <pt x="705" y="590" on="1"/>
        <pt x="674" y="447" on="1"/>
        <pt x="966" y="447" on="1"/>
        <pt x="935" y="304" on="1"/>
        <pt x="644" y="304" on="1"/>
        <pt x="611" y="150" on="1"/>
        <pt x="952" y="150" on="1"/>
        <pt x="921" y="0" on="1"/>
        <pt x="406" y="0" on="1"/>
        <pt x="435" y="135" on="1"/>
        <pt x="239" y="135" on="1"/>
        <pt x="151" y="0" on="1"/>
      </contour>
      <contour>
        <pt x="333" y="281" on="1"/>
        <pt x="466" y="281" on="1"/>
        <pt x="530" y="586" on="1"/>
      </contour>
    </TTGlyph>
    <TTGlyph name="Aacute" xMin="-40" yMin="0" xMax="689" yMax="991">
      <contour>
        <pt x="566" y="811" on="1"/>
        <pt x="444" y="812" on="1"/>
        <pt x="524" y="991" on="1"/>
        <pt x="679" y="991" on="1"/>
      </contour>
      <contour>
        <pt x="-40" y="0" on="1"/>
        <pt x="367" y="740" on="1"/>
        <pt x="597" y="740" on="1"/>
        <pt x="689" y="0" on="1"/>
        <pt x="518" y="0" on="1"/>
        <pt x="503" y="135" on="1"/>
        <pt x="222" y="135" on="1"/>
        <pt x="150" y="0" on="1"/>
      </contour>
      <contour>
        <pt x="301" y="283" on="1"/>
        <pt x="487" y="283" on="1"/>
        <pt x="455" y="573" on="1"/>
      </contour>
    </TTGlyph>
    <TTGlyph name="Abreve" xMin="-40" yMin="0" xMax="715" yMax="966">
      <contour>
        <pt x="512" y="805" on="1"/>
        <pt x="456" y="805" on="0"/>
        <pt x="388" y="837" on="0"/>
        <pt x="354" y="885" on="0"/>
        <pt x="341" y="933" on="0"/>
        <pt x="341" y="966" on="0"/>
        <pt x="341" y="966" on="1"/>
        <pt x="450" y="966" on="1"/>
        <pt x="450" y="966" on="0"/>
        <pt x="449" y="946" on="0"/>
        <pt x="458" y="919" on="0"/>
        <pt x="485" y="899" on="0"/>
        <pt x="513" y="899" on="1"/>
        <pt x="542" y="899" on="0"/>
        <pt x="578" y="919" on="0"/>
        <pt x="598" y="946" on="0"/>
        <pt x="606" y="966" on="0"/>
        <pt x="606" y="966" on="1"/>
        <pt x="715" y="966" on="1"/>
        <pt x="715" y="966" on="0"/>
        <pt x="708" y="933" on="0"/>
        <pt x="686" y="885" on="0"/>
        <pt x="642" y="837" on="0"/>
        <pt x="568" y="805" on="0"/>
      </contour>
      <contour>
        <pt x="-40" y="0" on="1"/>
        <pt x="367" y="740" on="1"/>
        <pt x="597" y="740" on="1"/>
        <pt x="689" y="0" on="1"/>
        <pt x="518" y="0" on="1"/>
        <pt x="503" y="135" on="1"/>
        <pt x="222" y="135" on="1"/>
        <pt x="150" y="0" on="1"/>
      </contour>
      <contour>
        <pt x="301" y="283" on="1"/>
        <pt x="487" y="283" on="1"/>
        <pt x="455" y="573" on="1"/>
      </contour>
    </TTGlyph>
    <TTGlyph name="Acircumflex" xMin="-40" yMin="0" xMax="689" yMax="959">
      <contour>
        <pt x="288" y="802" on="1"/>
        <pt x="453" y="959" on="1"/>
        <pt x="587" y="959" on="1"/>
        <pt x="686" y="802" on="1"/>
        <pt x="563" y="802" on="1"/>
        <pt x="512" y="889" on="1"/>
        <pt x="425" y="802" on="1"/>
      </contour>
      <contour>
        <pt x="-40" y="0" on="1"/>
        <pt x="367" y="740" on="1"/>
        <pt x="597" y="740" on="1"/>
        <pt x="689" y="0" on="1"/>
        <pt x="518" y="0" on="1"/>
        <pt x="503" y="135" on="1"/>
        <pt x="222" y="135" on="1"/>
        <pt x="150" y="0" on="1"/>
      </contour>
      <contour>
        <pt x="301" y="283" on="1"/>
        <pt x="487" y="283" on="1"/>
        <pt x="455" y="573" on="1"/>
      </contour>
    </TTGlyph>
    <TTGlyph name="Adieresis" xMin="-40" yMin="0" xMax="724" yMax="975">
      <contour>
        <pt x="630" y="794" on="1"/>
        <pt x="589" y="794" on="0"/>
        <pt x="536" y="848" on="0"/>
        <pt x="536" y="885" on="1"/>
        <pt x="536" y="922" on="0"/>
        <pt x="589" y="975" on="0"/>
        <pt x="630" y="975" on="1"/>
        <pt x="671" y="975" on="0"/>
        <pt x="724" y="922" on="0"/>
        <pt x="724" y="885" on="1"/>
        <pt x="724" y="848" on="0"/>
        <pt x="671" y="794" on="0"/>
      </contour>
      <contour>
        <pt x="392" y="794" on="1"/>
        <pt x="351" y="794" on="0"/>
        <pt x="298" y="848" on="0"/>
        <pt x="298" y="885" on="1"/>
        <pt x="298" y="922" on="0"/>
        <pt x="351" y="975" on="0"/>
        <pt x="392" y="975" on="1"/>
        <pt x="433" y="975" on="0"/>
        <pt x="486" y="922" on="0"/>
        <pt x="486" y="885" on="1"/>
        <pt x="486" y="848" on="0"/>
        <pt x="433" y="794" on="0"/>
      </contour>
      <contour>
        <pt x="-40" y="0" on="1"/>
        <pt x="367" y="740" on="1"/>
        <pt x="597" y="740" on="1"/>
        <pt x="689" y="0" on="1"/>
        <pt x="518" y="0" on="1"/>
        <pt x="503" y="135" on="1"/>
        <pt x="222" y="135" on="1"/>
        <pt x="150" y="0" on="1"/>
      </contour>
      <contour>
        <pt x="301" y="283" on="1"/>
        <pt x="487" y="283" on="1"/>
        <pt x="455" y="573" on="1"/>
      </contour>
    </TTGlyph>
    <TTGlyph name="Agrave" xMin="-40" yMin="0" xMax="689" yMax="991">
      <contour>
        <pt x="427" y="811" on="1"/>
        <pt x="327" y="991" on="1"/>
        <pt x="478" y="991" on="1"/>
        <pt x="544" y="812" on="1"/>
      </contour>
      <contour>
        <pt x="-40" y="0" on="1"/>
        <pt x="367" y="740" on="1"/>
        <pt x="597" y="740" on="1"/>
        <pt x="689" y="0" on="1"/>
        <pt x="518" y="0" on="1"/>
        <pt x="503" y="135" on="1"/>
        <pt x="222" y="135" on="1"/>
        <pt x="150" y="0" on="1"/>
      </contour>
      <contour>
        <pt x="301" y="283" on="1"/>
        <pt x="487" y="283" on="1"/>
        <pt x="455" y="573" on="1"/>
      </contour>
    </TTGlyph>
    <TTGlyph name="Amacron" xMin="-40" yMin="0" xMax="689" yMax="925">
      <contour>
        <pt x="331" y="829" on="1"/>
        <pt x="352" y="925" on="1"/>
        <pt x="685" y="925" on="1"/>
        <pt x="664" y="829" on="1"/>
      </contour>
      <contour>
        <pt x="-40" y="0" on="1"/>
        <pt x="367" y="740" on="1"/>
        <pt x="597" y="740" on="1"/>
        <pt x="689" y="0" on="1"/>
        <pt x="518" y="0" on="1"/>
        <pt x="503" y="135" on="1"/>
        <pt x="222" y="135" on="1"/>
        <pt x="150" y="0" on="1"/>
      </contour>
      <contour>
        <pt x="301" y="283" on="1"/>
        <pt x="487" y="283" on="1"/>
        <pt x="455" y="573" on="1"/>
      </contour>
    </TTGlyph>
    <TTGlyph name="Aogonek" xMin="-40" yMin="-189" xMax="694" yMax="740">
      <contour>
        <pt x="-40" y="0" on="1"/>
        <pt x="367" y="740" on="1"/>
        <pt x="597" y="740" on="1"/>
        <pt x="689" y="0" on="1"/>
        <pt x="678" y="0" on="1"/>
        <pt x="678" y="0" on="0"/>
        <pt x="646" y="-15" on="0"/>
        <pt x="614" y="-43" on="0"/>
        <pt x="614" y="-62" on="1"/>
        <pt x="614" y="-76" on="0"/>
        <pt x="636" y="-94" on="0"/>
        <pt x="661" y="-94" on="1"/>
        <pt x="672" y="-94" on="0"/>
        <pt x="694" y="-90" on="0"/>
        <pt x="694" y="-90" on="1"/>
        <pt x="675" y="-183" on="1"/>
        <pt x="675" y="-183" on="0"/>
        <pt x="644" y="-189" on="0"/>
        <pt x="620" y="-189" on="1"/>
        <pt x="552" y="-189" on="0"/>
        <pt x="488" y="-137" on="0"/>
        <pt x="488" y="-97" on="1"/>
        <pt x="488" y="-61" on="0"/>
        <pt x="530" y="-14" on="0"/>
        <pt x="556" y="0" on="1"/>
        <pt x="518" y="0" on="1"/>
        <pt x="503" y="135" on="1"/>
        <pt x="222" y="135" on="1"/>
        <pt x="150" y="0" on="1"/>
      </contour>
      <contour>
        <pt x="301" y="283" on="1"/>
        <pt x="487" y="283" on="1"/>
        <pt x="455" y="573" on="1"/>
      </contour>
    </TTGlyph>
    <TTGlyph name="Aring" xMin="-40" yMin="0" xMax="689" yMax="1069">
      <contour>
        <pt x="512" y="793" on="1"/>
        <pt x="474" y="793" on="0"/>
        <pt x="411" y="830" on="0"/>
        <pt x="374" y="893" on="0"/>
        <pt x="374" y="931" on="1"/>
        <pt x="374" y="969" on="0"/>
        <pt x="411" y="1032" on="0"/>
        <pt x="474" y="1069" on="0"/>
        <pt x="512" y="1069" on="1"/>
        <pt x="550" y="1069" on="0"/>
        <pt x="613" y="1032" on="0"/>
        <pt x="651" y="969" on="0"/>
        <pt x="651" y="931" on="1"/>
        <pt x="651" y="893" on="0"/>
        <pt x="613" y="830" on="0"/>
        <pt x="550" y="793" on="0"/>
      </contour>
      <contour>
        <pt x="512" y="878" on="1"/>
        <pt x="534" y="878" on="0"/>
        <pt x="565" y="909" on="0"/>
        <pt x="565" y="931" on="1"/>
        <pt x="565" y="953" on="0"/>
        <pt x="534" y="983" on="0"/>
        <pt x="512" y="983" on="1"/>
        <pt x="490" y="983" on="0"/>
        <pt x="459" y="953" on="0"/>
        <pt x="459" y="931" on="1"/>
        <pt x="459" y="909" on="0"/>
        <pt x="490" y="878" on="0"/>
      </contour>
      <contour>
        <pt x="-40" y="0" on="1"/>
        <pt x="367" y="740" on="1"/>
        <pt x="597" y="740" on="1"/>
        <pt x="689" y="0" on="1"/>
        <pt x="518" y="0" on="1"/>
        <pt x="503" y="135" on="1"/>
        <pt x="222" y="135" on="1"/>
        <pt x="150" y="0" on="1"/>
      </contour>
      <contour>
        <pt x="301" y="283" on="1"/>
        <pt x="487" y="283" on="1"/>
        <pt x="455" y="573" on="1"/>
      </contour>
    </TTGlyph>
    <TTGlyph name="Atilde" xMin="-40" yMin="0" xMax="711" yMax="982">
      <contour>
        <pt x="585" y="823" on="1"/>
        <pt x="558" y="823" on="0"/>
        <pt x="519" y="841" on="0"/>
        <pt x="489" y="866" on="0"/>
        <pt x="464" y="884" on="0"/>
        <pt x="450" y="884" on="1"/>
        <pt x="424" y="884" on="0"/>
        <pt x="413" y="829" on="1"/>
        <pt x="326" y="829" on="1"/>
        <pt x="334" y="868" on="0"/>
        <pt x="360" y="938" on="0"/>
        <pt x="410" y="982" on="0"/>
        <pt x="452" y="982" on="1"/>
        <pt x="479" y="982" on="0"/>
        <pt x="519" y="964" on="0"/>
        <pt x="548" y="940" on="0"/>
        <pt x="573" y="921" on="0"/>
        <pt x="586" y="921" on="1"/>
        <pt x="601" y="921" on="0"/>
        <pt x="618" y="949" on="0"/>
        <pt x="624" y="976" on="1"/>
        <pt x="711" y="976" on="1"/>
        <pt x="703" y="937" on="0"/>
        <pt x="676" y="867" on="0"/>
        <pt x="627" y="823" on="0"/>
      </contour>
      <contour>
        <pt x="-40" y="0" on="1"/>
        <pt x="367" y="740" on="1"/>
        <pt x="597" y="740" on="1"/>
        <pt x="689" y="0" on="1"/>
        <pt x="518" y="0" on="1"/>
        <pt x="503" y="135" on="1"/>
        <pt x="222" y="135" on="1"/>
        <pt x="150" y="0" on="1"/>
      </contour>
      <contour>
        <pt x="301" y="283" on="1"/>
        <pt x="487" y="283" on="1"/>
        <pt x="455" y="573" on="1"/>
      </contour>
    </TTGlyph>
    <TTGlyph name="B" xMin="7" yMin="0" xMax="699" yMax="740">
      <contour>
        <pt x="7" y="0" on="1"/>
        <pt x="164" y="740" on="1"/>
        <pt x="488" y="740" on="1"/>
        <pt x="561" y="740" on="0"/>
        <pt x="654" y="692" on="0"/>
        <pt x="699" y="617" on="0"/>
        <pt x="699" y="575" on="1"/>
        <pt x="699" y="538" on="0"/>
        <pt x="666" y="467" on="0"/>
        <pt x="603" y="412" on="0"/>
        <pt x="558" y="400" on="1"/>
        <pt x="557" y="391" on="1"/>
        <pt x="616" y="377" on="0"/>
        <pt x="673" y="296" on="0"/>
        <pt x="673" y="246" on="1"/>
        <pt x="673" y="204" on="0"/>
        <pt x="634" y="117" on="0"/>
        <pt x="559" y="45" on="0"/>
        <pt x="449" y="0" on="0"/>
        <pt x="378" y="0" on="1"/>
      </contour>
      <contour>
        <pt x="450" y="596" on="1"/>
        <pt x="307" y="596" on="1"/>
        <pt x="275" y="445" on="1"/>
        <pt x="426" y="445" on="1"/>
        <pt x="473" y="445" on="0"/>
        <pt x="525" y="502" on="0"/>
        <pt x="525" y="533" on="1"/>
        <pt x="525" y="558" on="0"/>
        <pt x="489" y="596" on="0"/>
      </contour>
      <contour>
        <pt x="404" y="315" on="1"/>
        <pt x="247" y="315" on="1"/>
        <pt x="211" y="144" on="1"/>
        <pt x="379" y="144" on="1"/>
        <pt x="414" y="144" on="0"/>
        <pt x="465" y="174" on="0"/>
        <pt x="492" y="220" on="0"/>
        <pt x="492" y="244" on="1"/>
        <pt x="492" y="272" on="0"/>
        <pt x="449" y="315" on="0"/>
      </contour>
    </TTGlyph>
    <TTGlyph name="C" xMin="56" yMin="-10" xMax="774" yMax="750">
      <contour>
        <pt x="377" y="-10" on="1"/>
        <pt x="295" y="-10" on="0"/>
        <pt x="174" y="43" on="0"/>
        <pt x="94" y="136" on="0"/>
        <pt x="56" y="253" on="0"/>
        <pt x="56" y="317" on="1"/>
        <pt x="56" y="395" on="0"/>
        <pt x="109" y="548" on="0"/>
        <pt x="213" y="674" on="0"/>
        <pt x="366" y="750" on="0"/>
        <pt x="465" y="750" on="1"/>
        <pt x="544" y="750" on="0"/>
        <pt x="652" y="711" on="0"/>
        <pt x="720" y="648" on="0"/>
        <pt x="757" y="579" on="0"/>
        <pt x="772" y="516" on="0"/>
        <pt x="774" y="477" on="0"/>
        <pt x="774" y="477" on="1"/>
        <pt x="603" y="477" on="1"/>
        <pt x="603" y="477" on="0"/>
        <pt x="600" y="501" on="0"/>
        <pt x="587" y="537" on="0"/>
        <pt x="557" y="572" on="0"/>
        <pt x="502" y="596" on="0"/>
        <pt x="458" y="596" on="1"/>
        <pt x="403" y="596" on="0"/>
        <pt x="318" y="550" on="0"/>
        <pt x="260" y="472" on="0"/>
        <pt x="231" y="379" on="0"/>
        <pt x="231" y="332" on="1"/>
        <pt x="231" y="283" on="0"/>
        <pt x="265" y="197" on="0"/>
        <pt x="337" y="145" on="0"/>
        <pt x="393" y="145" on="1"/>
        <pt x="445" y="145" on="0"/>
        <pt x="512" y="180" on="0"/>
        <pt x="551" y="227" on="0"/>
        <pt x="568" y="263" on="0"/>
        <pt x="568" y="263" on="1"/>
        <pt x="739" y="263" on="1"/>
        <pt x="739" y="263" on="0"/>
        <pt x="728" y="224" on="0"/>
        <pt x="700" y="161" on="0"/>
        <pt x="648" y="92" on="0"/>
        <pt x="568" y="29" on="0"/>
        <pt x="454" y="-10" on="0"/>
      </contour>
    </TTGlyph>
    <TTGlyph name="Cacute" xMin="56" yMin="-10" xMax="774" yMax="990">
      <contour>
        <pt x="586" y="810" on="1"/>
        <pt x="464" y="811" on="1"/>
        <pt x="544" y="990" on="1"/>
        <pt x="699" y="990" on="1"/>
      </contour>
      <contour>
        <pt x="377" y="-10" on="1"/>
        <pt x="295" y="-10" on="0"/>
        <pt x="174" y="43" on="0"/>
        <pt x="94" y="136" on="0"/>
        <pt x="56" y="253" on="0"/>
        <pt x="56" y="317" on="1"/>
        <pt x="56" y="395" on="0"/>
        <pt x="109" y="548" on="0"/>
        <pt x="213" y="674" on="0"/>
        <pt x="366" y="750" on="0"/>
        <pt x="465" y="750" on="1"/>
        <pt x="544" y="750" on="0"/>
        <pt x="652" y="711" on="0"/>
        <pt x="720" y="648" on="0"/>
        <pt x="757" y="579" on="0"/>
        <pt x="772" y="516" on="0"/>
        <pt x="774" y="477" on="0"/>
        <pt x="774" y="477" on="1"/>
        <pt x="603" y="477" on="1"/>
        <pt x="603" y="477" on="0"/>
        <pt x="600" y="501" on="0"/>
        <pt x="587" y="537" on="0"/>
        <pt x="557" y="572" on="0"/>
        <pt x="502" y="596" on="0"/>
        <pt x="458" y="596" on="1"/>
        <pt x="403" y="596" on="0"/>
        <pt x="318" y="550" on="0"/>
        <pt x="260" y="472" on="0"/>
        <pt x="231" y="379" on="0"/>
        <pt x="231" y="332" on="1"/>
        <pt x="231" y="283" on="0"/>
        <pt x="265" y="197" on="0"/>
        <pt x="337" y="145" on="0"/>
        <pt x="393" y="145" on="1"/>
        <pt x="445" y="145" on="0"/>
        <pt x="512" y="180" on="0"/>
        <pt x="551" y="227" on="0"/>
        <pt x="568" y="263" on="0"/>
        <pt x="568" y="263" on="1"/>
        <pt x="739" y="263" on="1"/>
        <pt x="739" y="263" on="0"/>
        <pt x="728" y="224" on="0"/>
        <pt x="700" y="161" on="0"/>
        <pt x="648" y="92" on="0"/>
        <pt x="568" y="29" on="0"/>
        <pt x="454" y="-10" on="0"/>
      </contour>
    </TTGlyph>
    <TTGlyph name="Ccaron" xMin="56" yMin="-10" xMax="774" yMax="986">
      <contour>
        <pt x="449" y="801" on="1"/>
        <pt x="356" y="986" on="1"/>
        <pt x="479" y="986" on="1"/>
        <pt x="526" y="883" on="1"/>
        <pt x="618" y="986" on="1"/>
        <pt x="754" y="986" on="1"/>
        <pt x="583" y="801" on="1"/>
      </contour>
      <contour>
        <pt x="377" y="-10" on="1"/>
        <pt x="295" y="-10" on="0"/>
        <pt x="174" y="43" on="0"/>
        <pt x="94" y="136" on="0"/>
        <pt x="56" y="253" on="0"/>
        <pt x="56" y="317" on="1"/>
        <pt x="56" y="395" on="0"/>
        <pt x="109" y="548" on="0"/>
        <pt x="213" y="674" on="0"/>
        <pt x="366" y="750" on="0"/>
        <pt x="465" y="750" on="1"/>
        <pt x="544" y="750" on="0"/>
        <pt x="652" y="711" on="0"/>
        <pt x="720" y="648" on="0"/>
        <pt x="757" y="579" on="0"/>
        <pt x="772" y="516" on="0"/>
        <pt x="774" y="477" on="0"/>
        <pt x="774" y="477" on="1"/>
        <pt x="603" y="477" on="1"/>
        <pt x="603" y="477" on="0"/>
        <pt x="600" y="501" on="0"/>
        <pt x="587" y="537" on="0"/>
        <pt x="557" y="572" on="0"/>
        <pt x="502" y="596" on="0"/>
        <pt x="458" y="596" on="1"/>
        <pt x="403" y="596" on="0"/>
        <pt x="318" y="550" on="0"/>
        <pt x="260" y="472" on="0"/>
        <pt x="231" y="379" on="0"/>
        <pt x="231" y="332" on="1"/>
        <pt x="231" y="283" on="0"/>
        <pt x="265" y="197" on="0"/>
        <pt x="337" y="145" on="0"/>
        <pt x="393" y="145" on="1"/>
        <pt x="445" y="145" on="0"/>
        <pt x="512" y="180" on="0"/>
        <pt x="551" y="227" on="0"/>
        <pt x="568" y="263" on="0"/>
        <pt x="568" y="263" on="1"/>
        <pt x="739" y="263" on="1"/>
        <pt x="739" y="263" on="0"/>
        <pt x="728" y="224" on="0"/>
        <pt x="700" y="161" on="0"/>
        <pt x="648" y="92" on="0"/>
        <pt x="568" y="29" on="0"/>
        <pt x="454" y="-10" on="0"/>
      </contour>
    </TTGlyph>
    <TTGlyph name="Ccedilla" xMin="56" yMin="-262" xMax="774" yMax="750">
      <contour>
        <pt x="289" y="-262" on="1"/>
        <pt x="256" y="-262" on="0"/>
        <pt x="204" y="-254" on="0"/>
        <pt x="204" y="-254" on="1"/>
        <pt x="217" y="-166" on="1"/>
        <pt x="217" y="-166" on="0"/>
        <pt x="243" y="-169" on="0"/>
        <pt x="278" y="-172" on="0"/>
        <pt x="291" y="-172" on="1"/>
        <pt x="327" y="-172" on="0"/>
        <pt x="353" y="-149" on="0"/>
        <pt x="353" y="-135" on="1"/>
        <pt x="353" y="-123" on="0"/>
        <pt x="333" y="-105" on="0"/>
        <pt x="313" y="-105" on="1"/>
        <pt x="295" y="-105" on="0"/>
        <pt x="269" y="-117" on="0"/>
        <pt x="270" y="-117" on="1"/>
        <pt x="227" y="-64" on="1"/>
        <pt x="286" y="0" on="1"/>
        <pt x="208" y="19" on="0"/>
        <pt x="106" y="114" on="0"/>
        <pt x="56" y="245" on="0"/>
        <pt x="56" y="317" on="1"/>
        <pt x="56" y="395" on="0"/>
        <pt x="109" y="548" on="0"/>
        <pt x="213" y="674" on="0"/>
        <pt x="366" y="750" on="0"/>
        <pt x="465" y="750" on="1"/>
        <pt x="544" y="750" on="0"/>
        <pt x="652" y="711" on="0"/>
        <pt x="720" y="648" on="0"/>
        <pt x="757" y="579" on="0"/>
        <pt x="772" y="516" on="0"/>
        <pt x="774" y="477" on="0"/>
        <pt x="774" y="477" on="1"/>
        <pt x="603" y="477" on="1"/>
        <pt x="603" y="477" on="0"/>
        <pt x="600" y="501" on="0"/>
        <pt x="587" y="537" on="0"/>
        <pt x="557" y="572" on="0"/>
        <pt x="502" y="596" on="0"/>
        <pt x="458" y="596" on="1"/>
        <pt x="403" y="596" on="0"/>
        <pt x="318" y="550" on="0"/>
        <pt x="260" y="472" on="0"/>
        <pt x="231" y="379" on="0"/>
        <pt x="231" y="332" on="1"/>
        <pt x="231" y="283" on="0"/>
        <pt x="265" y="197" on="0"/>
        <pt x="337" y="145" on="0"/>
        <pt x="393" y="145" on="1"/>
        <pt x="445" y="145" on="0"/>
        <pt x="512" y="180" on="0"/>
        <pt x="551" y="227" on="0"/>
        <pt x="568" y="263" on="0"/>
        <pt x="568" y="263" on="1"/>
        <pt x="739" y="263" on="1"/>
        <pt x="739" y="263" on="0"/>
        <pt x="728" y="224" on="0"/>
        <pt x="700" y="161" on="0"/>
        <pt x="649" y="92" on="0"/>
        <pt x="570" y="29" on="0"/>
        <pt x="458" y="-10" on="0"/>
        <pt x="383" y="-10" on="1"/>
        <pt x="356" y="-37" on="1"/>
        <pt x="358" y="-37" on="1"/>
        <pt x="408" y="-37" on="0"/>
        <pt x="469" y="-96" on="0"/>
        <pt x="469" y="-137" on="1"/>
        <pt x="469" y="-167" on="0"/>
        <pt x="431" y="-225" on="0"/>
        <pt x="352" y="-262" on="0"/>
      </contour>
    </TTGlyph>
    <TTGlyph name="Cdotaccent" xMin="56" yMin="-10" xMax="774" yMax="991">
      <contour>
        <pt x="534" y="800" on="1"/>
        <pt x="491" y="800" on="0"/>
        <pt x="435" y="856" on="0"/>
        <pt x="435" y="895" on="1"/>
        <pt x="435" y="935" on="0"/>
        <pt x="491" y="991" on="0"/>
        <pt x="534" y="991" on="1"/>
        <pt x="577" y="991" on="0"/>
        <pt x="634" y="935" on="0"/>
        <pt x="634" y="895" on="1"/>
        <pt x="634" y="856" on="0"/>
        <pt x="577" y="800" on="0"/>
      </contour>
      <contour>
        <pt x="377" y="-10" on="1"/>
        <pt x="295" y="-10" on="0"/>
        <pt x="174" y="43" on="0"/>
        <pt x="94" y="136" on="0"/>
        <pt x="56" y="253" on="0"/>
        <pt x="56" y="317" on="1"/>
        <pt x="56" y="395" on="0"/>
        <pt x="109" y="548" on="0"/>
        <pt x="213" y="674" on="0"/>
        <pt x="366" y="750" on="0"/>
        <pt x="465" y="750" on="1"/>
        <pt x="544" y="750" on="0"/>
        <pt x="652" y="711" on="0"/>
        <pt x="720" y="648" on="0"/>
        <pt x="757" y="579" on="0"/>
        <pt x="772" y="516" on="0"/>
        <pt x="774" y="477" on="0"/>
        <pt x="774" y="477" on="1"/>
        <pt x="603" y="477" on="1"/>
        <pt x="603" y="477" on="0"/>
        <pt x="600" y="501" on="0"/>
        <pt x="587" y="537" on="0"/>
        <pt x="557" y="572" on="0"/>
        <pt x="502" y="596" on="0"/>
        <pt x="458" y="596" on="1"/>
        <pt x="403" y="596" on="0"/>
        <pt x="318" y="550" on="0"/>
        <pt x="260" y="472" on="0"/>
        <pt x="231" y="379" on="0"/>
        <pt x="231" y="332" on="1"/>
        <pt x="231" y="283" on="0"/>
        <pt x="265" y="197" on="0"/>
        <pt x="337" y="145" on="0"/>
        <pt x="393" y="145" on="1"/>
        <pt x="445" y="145" on="0"/>
        <pt x="512" y="180" on="0"/>
        <pt x="551" y="227" on="0"/>
        <pt x="568" y="263" on="0"/>
        <pt x="568" y="263" on="1"/>
        <pt x="739" y="263" on="1"/>
        <pt x="739" y="263" on="0"/>
        <pt x="728" y="224" on="0"/>
        <pt x="700" y="161" on="0"/>
        <pt x="648" y="92" on="0"/>
        <pt x="568" y="29" on="0"/>
        <pt x="454" y="-10" on="0"/>
      </contour>
    </TTGlyph>
    <TTGlyph name="D" xMin="7" yMin="0" xMax="737" yMax="740">
      <contour>
        <pt x="7" y="0" on="1"/>
        <pt x="164" y="740" on="1"/>
        <pt x="397" y="740" on="1"/>
        <pt x="483" y="740" on="0"/>
        <pt x="611" y="687" on="0"/>
        <pt x="695" y="595" on="0"/>
        <pt x="737" y="478" on="0"/>
        <pt x="737" y="414" on="1"/>
        <pt x="737" y="340" on="0"/>
        <pt x="681" y="193" on="0"/>
        <pt x="570" y="72" on="0"/>
        <pt x="406" y="0" on="0"/>
        <pt x="298" y="0" on="1"/>
      </contour>
      <contour>
        <pt x="383" y="588" on="1"/>
        <pt x="305" y="588" on="1"/>
        <pt x="213" y="154" on="1"/>
        <pt x="312" y="154" on="1"/>
        <pt x="374" y="154" on="0"/>
        <pt x="469" y="198" on="0"/>
        <pt x="534" y="271" on="0"/>
        <pt x="567" y="360" on="0"/>
        <pt x="567" y="404" on="1"/>
        <pt x="567" y="452" on="0"/>
        <pt x="527" y="536" on="0"/>
        <pt x="445" y="588" on="0"/>
      </contour>
    </TTGlyph>
    <TTGlyph name="Dcaron" xMin="7" yMin="0" xMax="737" yMax="988">
      <contour>
        <pt x="385" y="803" on="1"/>
        <pt x="292" y="988" on="1"/>
        <pt x="415" y="988" on="1"/>
        <pt x="462" y="885" on="1"/>
        <pt x="553" y="988" on="1"/>
        <pt x="690" y="988" on="1"/>
        <pt x="519" y="803" on="1"/>
      </contour>
      <contour>
        <pt x="7" y="0" on="1"/>
        <pt x="164" y="740" on="1"/>
        <pt x="397" y="740" on="1"/>
        <pt x="483" y="740" on="0"/>
        <pt x="611" y="687" on="0"/>
        <pt x="695" y="595" on="0"/>
        <pt x="737" y="478" on="0"/>
        <pt x="737" y="414" on="1"/>
        <pt x="737" y="340" on="0"/>
        <pt x="681" y="193" on="0"/>
        <pt x="570" y="72" on="0"/>
        <pt x="406" y="0" on="0"/>
        <pt x="298" y="0" on="1"/>
      </contour>
      <contour>
        <pt x="383" y="588" on="1"/>
        <pt x="305" y="588" on="1"/>
        <pt x="213" y="154" on="1"/>
        <pt x="312" y="154" on="1"/>
        <pt x="374" y="154" on="0"/>
        <pt x="469" y="198" on="0"/>
        <pt x="534" y="271" on="0"/>
        <pt x="567" y="360" on="0"/>
        <pt x="567" y="404" on="1"/>
        <pt x="567" y="452" on="0"/>
        <pt x="527" y="536" on="0"/>
        <pt x="445" y="588" on="0"/>
      </contour>
    </TTGlyph>
    <TTGlyph name="Dcroat" xMin="-1" yMin="0" xMax="760" yMax="740">
      <contour>
        <pt x="30" y="0" on="1"/>
        <pt x="94" y="302" on="1"/>
        <pt x="-1" y="302" on="1"/>
        <pt x="29" y="438" on="1"/>
        <pt x="123" y="438" on="1"/>
        <pt x="187" y="740" on="1"/>
        <pt x="419" y="740" on="1"/>
        <pt x="506" y="740" on="0"/>
        <pt x="634" y="687" on="0"/>
        <pt x="718" y="595" on="0"/>
        <pt x="760" y="478" on="0"/>
        <pt x="760" y="414" on="1"/>
        <pt x="760" y="340" on="0"/>
        <pt x="704" y="193" on="0"/>
        <pt x="593" y="72" on="0"/>
        <pt x="428" y="0" on="0"/>
        <pt x="320" y="0" on="1"/>
      </contour>
      <contour>
        <pt x="382" y="302" on="1"/>
        <pt x="268" y="302" on="1"/>
        <pt x="236" y="154" on="1"/>
        <pt x="335" y="154" on="1"/>
        <pt x="397" y="154" on="0"/>
        <pt x="492" y="198" on="0"/>
        <pt x="557" y="271" on="0"/>
        <pt x="590" y="360" on="0"/>
        <pt x="590" y="404" on="1"/>
        <pt x="590" y="452" on="0"/>
        <pt x="550" y="536" on="0"/>
        <pt x="468" y="588" on="0"/>
        <pt x="406" y="588" on="1"/>
        <pt x="328" y="588" on="1"/>
        <pt x="296" y="438" on="1"/>
        <pt x="411" y="438" on="1"/>
      </contour>
    </TTGlyph>
    <TTGlyph name="E" xMin="7" yMin="0" xMax="682" yMax="740">
      <contour>
        <pt x="7" y="0" on="1"/>
        <pt x="164" y="740" on="1"/>
        <pt x="682" y="740" on="1"/>
        <pt x="650" y="590" on="1"/>
        <pt x="306" y="590" on="1"/>
        <pt x="275" y="447" on="1"/>
        <pt x="575" y="447" on="1"/>
        <pt x="544" y="304" on="1"/>
        <pt x="245" y="304" on="1"/>
        <pt x="212" y="150" on="1"/>
        <pt x="561" y="150" on="1"/>
        <pt x="530" y="0" on="1"/>
      </contour>
    </TTGlyph>
    <TTGlyph name="Eacute" xMin="7" yMin="0" xMax="674" yMax="991">
      <contour>
        <pt x="502" y="811" on="1"/>
        <pt x="380" y="812" on="1"/>
        <pt x="460" y="991" on="1"/>
        <pt x="615" y="991" on="1"/>
      </contour>
      <contour>
        <pt x="7" y="0" on="1"/>
        <pt x="164" y="740" on="1"/>
        <pt x="674" y="740" on="1"/>
        <pt x="642" y="590" on="1"/>
        <pt x="306" y="590" on="1"/>
        <pt x="275" y="447" on="1"/>
        <pt x="567" y="447" on="1"/>
        <pt x="536" y="304" on="1"/>
        <pt x="245" y="304" on="1"/>
        <pt x="212" y="150" on="1"/>
        <pt x="553" y="150" on="1"/>
        <pt x="522" y="0" on="1"/>
      </contour>
    </TTGlyph>
    <TTGlyph name="Ecaron" xMin="7" yMin="0" xMax="674" yMax="988">
      <contour>
        <pt x="365" y="803" on="1"/>
        <pt x="272" y="988" on="1"/>
        <pt x="395" y="988" on="1"/>
        <pt x="442" y="885" on="1"/>
        <pt x="533" y="988" on="1"/>
        <pt x="670" y="988" on="1"/>
        <pt x="499" y="803" on="1"/>
      </contour>
      <contour>
        <pt x="7" y="0" on="1"/>
        <pt x="164" y="740" on="1"/>
        <pt x="674" y="740" on="1"/>
        <pt x="642" y="590" on="1"/>
        <pt x="306" y="590" on="1"/>
        <pt x="275" y="447" on="1"/>
        <pt x="567" y="447" on="1"/>
        <pt x="536" y="304" on="1"/>
        <pt x="245" y="304" on="1"/>
        <pt x="212" y="150" on="1"/>
        <pt x="553" y="150" on="1"/>
        <pt x="522" y="0" on="1"/>
      </contour>
    </TTGlyph>
    <TTGlyph name="Ecircumflex" xMin="7" yMin="0" xMax="674" yMax="959">
      <contour>
        <pt x="224" y="802" on="1"/>
        <pt x="390" y="959" on="1"/>
        <pt x="523" y="959" on="1"/>
        <pt x="622" y="802" on="1"/>
        <pt x="500" y="802" on="1"/>
        <pt x="448" y="889" on="1"/>
        <pt x="362" y="802" on="1"/>
      </contour>
      <contour>
        <pt x="7" y="0" on="1"/>
        <pt x="164" y="740" on="1"/>
        <pt x="674" y="740" on="1"/>
        <pt x="642" y="590" on="1"/>
        <pt x="306" y="590" on="1"/>
        <pt x="275" y="447" on="1"/>
        <pt x="567" y="447" on="1"/>
        <pt x="536" y="304" on="1"/>
        <pt x="245" y="304" on="1"/>
        <pt x="212" y="150" on="1"/>
        <pt x="553" y="150" on="1"/>
        <pt x="522" y="0" on="1"/>
      </contour>
    </TTGlyph>
    <TTGlyph name="Edieresis" xMin="7" yMin="0" xMax="674" yMax="975">
      <contour>
        <pt x="566" y="794" on="1"/>
        <pt x="525" y="794" on="0"/>
        <pt x="472" y="848" on="0"/>
        <pt x="472" y="885" on="1"/>
        <pt x="472" y="922" on="0"/>
        <pt x="525" y="975" on="0"/>
        <pt x="566" y="975" on="1"/>
        <pt x="607" y="975" on="0"/>
        <pt x="661" y="922" on="0"/>
        <pt x="661" y="885" on="1"/>
        <pt x="661" y="848" on="0"/>
        <pt x="607" y="794" on="0"/>
      </contour>
      <contour>
        <pt x="328" y="794" on="1"/>
        <pt x="287" y="794" on="0"/>
        <pt x="234" y="848" on="0"/>
        <pt x="234" y="885" on="1"/>
        <pt x="234" y="922" on="0"/>
        <pt x="287" y="975" on="0"/>
        <pt x="328" y="975" on="1"/>
        <pt x="369" y="975" on="0"/>
        <pt x="423" y="922" on="0"/>
        <pt x="423" y="885" on="1"/>
        <pt x="423" y="848" on="0"/>
        <pt x="369" y="794" on="0"/>
      </contour>
      <contour>
        <pt x="7" y="0" on="1"/>
        <pt x="164" y="740" on="1"/>
        <pt x="674" y="740" on="1"/>
        <pt x="642" y="590" on="1"/>
        <pt x="306" y="590" on="1"/>
        <pt x="275" y="447" on="1"/>
        <pt x="567" y="447" on="1"/>
        <pt x="536" y="304" on="1"/>
        <pt x="245" y="304" on="1"/>
        <pt x="212" y="150" on="1"/>
        <pt x="553" y="150" on="1"/>
        <pt x="522" y="0" on="1"/>
      </contour>
    </TTGlyph>
    <TTGlyph name="Edotaccent" xMin="7" yMin="0" xMax="674" yMax="992">
      <contour>
        <pt x="450" y="801" on="1"/>
        <pt x="406" y="801" on="0"/>
        <pt x="351" y="858" on="0"/>
        <pt x="351" y="897" on="1"/>
        <pt x="351" y="936" on="0"/>
        <pt x="406" y="992" on="0"/>
        <pt x="450" y="992" on="1"/>
        <pt x="493" y="992" on="0"/>
        <pt x="550" y="936" on="0"/>
        <pt x="550" y="897" on="1"/>
        <pt x="550" y="857" on="0"/>
        <pt x="493" y="801" on="0"/>
      </contour>
      <contour>
        <pt x="7" y="0" on="1"/>
        <pt x="164" y="740" on="1"/>
        <pt x="674" y="740" on="1"/>
        <pt x="642" y="590" on="1"/>
        <pt x="306" y="590" on="1"/>
        <pt x="275" y="447" on="1"/>
        <pt x="567" y="447" on="1"/>
        <pt x="536" y="304" on="1"/>
        <pt x="245" y="304" on="1"/>
        <pt x="212" y="150" on="1"/>
        <pt x="553" y="150" on="1"/>
        <pt x="522" y="0" on="1"/>
      </contour>
    </TTGlyph>
    <TTGlyph name="Egrave" xMin="7" yMin="0" xMax="674" yMax="991">
      <contour>
        <pt x="363" y="811" on="1"/>
        <pt x="263" y="991" on="1"/>
        <pt x="414" y="991" on="1"/>
        <pt x="481" y="812" on="1"/>
      </contour>
      <contour>
        <pt x="7" y="0" on="1"/>
        <pt x="164" y="740" on="1"/>
        <pt x="674" y="740" on="1"/>
        <pt x="642" y="590" on="1"/>
        <pt x="306" y="590" on="1"/>
        <pt x="275" y="447" on="1"/>
        <pt x="567" y="447" on="1"/>
        <pt x="536" y="304" on="1"/>
        <pt x="245" y="304" on="1"/>
        <pt x="212" y="150" on="1"/>
        <pt x="553" y="150" on="1"/>
        <pt x="522" y="0" on="1"/>
      </contour>
    </TTGlyph>
    <TTGlyph name="Emacron" xMin="7" yMin="0" xMax="674" yMax="925">
      <contour>
        <pt x="268" y="829" on="1"/>
        <pt x="288" y="925" on="1"/>
        <pt x="621" y="925" on="1"/>
        <pt x="600" y="829" on="1"/>
      </contour>
      <contour>
        <pt x="7" y="0" on="1"/>
        <pt x="164" y="740" on="1"/>
        <pt x="674" y="740" on="1"/>
        <pt x="642" y="590" on="1"/>
        <pt x="306" y="590" on="1"/>
        <pt x="275" y="447" on="1"/>
        <pt x="567" y="447" on="1"/>
        <pt x="536" y="304" on="1"/>
        <pt x="245" y="304" on="1"/>
        <pt x="212" y="150" on="1"/>
        <pt x="553" y="150" on="1"/>
        <pt x="522" y="0" on="1"/>
      </contour>
    </TTGlyph>
    <TTGlyph name="Eogonek" xMin="7" yMin="-189" xMax="674" yMax="740">
      <contour>
        <pt x="7" y="0" on="1"/>
        <pt x="164" y="740" on="1"/>
        <pt x="674" y="740" on="1"/>
        <pt x="642" y="590" on="1"/>
        <pt x="306" y="590" on="1"/>
        <pt x="275" y="447" on="1"/>
        <pt x="567" y="447" on="1"/>
        <pt x="536" y="304" on="1"/>
        <pt x="245" y="304" on="1"/>
        <pt x="212" y="150" on="1"/>
        <pt x="553" y="150" on="1"/>
        <pt x="522" y="0" on="1"/>
        <pt x="522" y="0" on="0"/>
        <pt x="490" y="-15" on="0"/>
        <pt x="458" y="-43" on="0"/>
        <pt x="458" y="-62" on="1"/>
        <pt x="458" y="-76" on="0"/>
        <pt x="480" y="-94" on="0"/>
        <pt x="505" y="-94" on="1"/>
        <pt x="517" y="-94" on="0"/>
        <pt x="538" y="-90" on="0"/>
        <pt x="538" y="-90" on="1"/>
        <pt x="519" y="-183" on="1"/>
        <pt x="519" y="-183" on="0"/>
        <pt x="488" y="-189" on="0"/>
        <pt x="464" y="-189" on="1"/>
        <pt x="396" y="-189" on="0"/>
        <pt x="332" y="-137" on="0"/>
        <pt x="332" y="-97" on="1"/>
        <pt x="332" y="-61" on="0"/>
        <pt x="374" y="-14" on="0"/>
        <pt x="400" y="0" on="1"/>
      </contour>
    </TTGlyph>
    <TTGlyph name="Eth" xMin="-1" yMin="0" xMax="760" yMax="740">
      <contour>
        <pt x="30" y="0" on="1"/>
        <pt x="94" y="302" on="1"/>
        <pt x="-1" y="302" on="1"/>
        <pt x="29" y="438" on="1"/>
        <pt x="123" y="438" on="1"/>
        <pt x="187" y="740" on="1"/>
        <pt x="419" y="740" on="1"/>
        <pt x="506" y="740" on="0"/>
        <pt x="634" y="687" on="0"/>
        <pt x="718" y="595" on="0"/>
        <pt x="760" y="478" on="0"/>
        <pt x="760" y="414" on="1"/>
        <pt x="760" y="340" on="0"/>
        <pt x="704" y="193" on="0"/>
        <pt x="593" y="72" on="0"/>
        <pt x="428" y="0" on="0"/>
        <pt x="320" y="0" on="1"/>
      </contour>
      <contour>
        <pt x="382" y="302" on="1"/>
        <pt x="268" y="302" on="1"/>
        <pt x="236" y="154" on="1"/>
        <pt x="335" y="154" on="1"/>
        <pt x="397" y="154" on="0"/>
        <pt x="492" y="198" on="0"/>
        <pt x="557" y="271" on="0"/>
        <pt x="590" y="360" on="0"/>
        <pt x="590" y="404" on="1"/>
        <pt x="590" y="452" on="0"/>
        <pt x="550" y="536" on="0"/>
        <pt x="468" y="588" on="0"/>
        <pt x="406" y="588" on="1"/>
        <pt x="328" y="588" on="1"/>
        <pt x="296" y="438" on="1"/>
        <pt x="411" y="438" on="1"/>
      </contour>
    </TTGlyph>
    <TTGlyph name="Euro" xMin="20" yMin="-10" xMax="731" yMax="750">
      <contour>
        <pt x="20" y="269" on="1"/>
        <pt x="36" y="348" on="1"/>
        <pt x="139" y="348" on="1"/>
        <pt x="140" y="371" on="0"/>
        <pt x="143" y="393" on="1"/>
        <pt x="46" y="393" on="1"/>
        <pt x="62" y="472" on="1"/>
        <pt x="162" y="472" on="1"/>
        <pt x="188" y="547" on="0"/>
        <pt x="296" y="674" on="0"/>
        <pt x="460" y="750" on="0"/>
        <pt x="570" y="750" on="1"/>
        <pt x="646" y="750" on="0"/>
        <pt x="731" y="732" on="0"/>
        <pt x="731" y="732" on="1"/>
        <pt x="699" y="583" on="1"/>
        <pt x="699" y="583" on="0"/>
        <pt x="666" y="592" on="0"/>
        <pt x="611" y="601" on="0"/>
        <pt x="578" y="601" on="1"/>
        <pt x="493" y="601" on="0"/>
        <pt x="378" y="526" on="0"/>
        <pt x="348" y="472" on="1"/>
        <pt x="571" y="472" on="1"/>
        <pt x="554" y="393" on="1"/>
        <pt x="320" y="393" on="1"/>
        <pt x="316" y="370" on="0"/>
        <pt x="316" y="348" on="1"/>
        <pt x="544" y="348" on="1"/>
        <pt x="528" y="269" on="1"/>
        <pt x="329" y="269" on="1"/>
        <pt x="348" y="214" on="0"/>
        <pt x="444" y="139" on="0"/>
        <pt x="523" y="139" on="1"/>
        <pt x="557" y="139" on="0"/>
        <pt x="619" y="148" on="0"/>
        <pt x="659" y="158" on="0"/>
        <pt x="659" y="158" on="1"/>
        <pt x="628" y="7" on="1"/>
        <pt x="628" y="7" on="0"/>
        <pt x="550" y="-10" on="0"/>
        <pt x="484" y="-10" on="1"/>
        <pt x="382" y="-10" on="0"/>
        <pt x="239" y="67" on="0"/>
        <pt x="156" y="194" on="0"/>
        <pt x="144" y="269" on="1"/>
      </contour>
    </TTGlyph>
    <TTGlyph name="F" xMin="7" yMin="0" xMax="683" yMax="740">
      <contour>
        <pt x="7" y="0" on="1"/>
        <pt x="164" y="740" on="1"/>
        <pt x="683" y="740" on="1"/>
        <pt x="652" y="590" on="1"/>
        <pt x="306" y="590" on="1"/>
        <pt x="268" y="413" on="1"/>
        <pt x="569" y="413" on="1"/>
        <pt x="538" y="269" on="1"/>
        <pt x="238" y="269" on="1"/>
        <pt x="181" y="0" on="1"/>
      </contour>
    </TTGlyph>
    <TTGlyph name="G" xMin="56" yMin="-10" xMax="775" yMax="750">
      <contour>
        <pt x="388" y="-10" on="1"/>
        <pt x="305" y="-10" on="0"/>
        <pt x="181" y="43" on="0"/>
        <pt x="98" y="135" on="0"/>
        <pt x="56" y="255" on="0"/>
        <pt x="56" y="322" on="1"/>
        <pt x="56" y="397" on="0"/>
        <pt x="109" y="549" on="0"/>
        <pt x="214" y="674" on="0"/>
        <pt x="371" y="750" on="0"/>
        <pt x="474" y="750" on="1"/>
        <pt x="550" y="750" on="0"/>
        <pt x="654" y="711" on="0"/>
        <pt x="720" y="648" on="0"/>
        <pt x="757" y="579" on="0"/>
        <pt x="772" y="516" on="0"/>
        <pt x="775" y="477" on="0"/>
        <pt x="775" y="477" on="1"/>
        <pt x="604" y="477" on="1"/>
        <pt x="604" y="477" on="0"/>
        <pt x="601" y="501" on="0"/>
        <pt x="588" y="537" on="0"/>
        <pt x="558" y="572" on="0"/>
        <pt x="504" y="596" on="0"/>
        <pt x="462" y="596" on="1"/>
        <pt x="406" y="596" on="0"/>
        <pt x="319" y="550" on="0"/>
        <pt x="261" y="473" on="0"/>
        <pt x="231" y="381" on="0"/>
        <pt x="231" y="335" on="1"/>
        <pt x="231" y="284" on="0"/>
        <pt x="269" y="197" on="0"/>
        <pt x="346" y="145" on="0"/>
        <pt x="405" y="145" on="1"/>
        <pt x="467" y="145" on="0"/>
        <pt x="554" y="207" on="0"/>
        <pt x="574" y="270" on="1"/>
        <pt x="401" y="270" on="1"/>
        <pt x="430" y="404" on="1"/>
        <pt x="772" y="404" on="1"/>
        <pt x="765" y="348" on="1"/>
        <pt x="749" y="224" on="0"/>
        <pt x="642" y="66" on="0"/>
        <pt x="483" y="-10" on="0"/>
      </contour>
    </TTGlyph>
    <TTGlyph name="Gbreve" xMin="56" yMin="-10" xMax="775" yMax="984">
      <contour>
        <pt x="511" y="805" on="1"/>
        <pt x="454" y="805" on="0"/>
        <pt x="387" y="841" on="0"/>
        <pt x="355" y="894" on="0"/>
        <pt x="346" y="948" on="0"/>
        <pt x="348" y="984" on="0"/>
        <pt x="348" y="984" on="1"/>
        <pt x="457" y="984" on="1"/>
        <pt x="457" y="984" on="0"/>
        <pt x="455" y="959" on="0"/>
        <pt x="463" y="926" on="0"/>
        <pt x="489" y="901" on="0"/>
        <pt x="518" y="901" on="1"/>
        <pt x="546" y="901" on="0"/>
        <pt x="583" y="926" on="0"/>
        <pt x="604" y="959" on="0"/>
        <pt x="613" y="984" on="0"/>
        <pt x="613" y="984" on="1"/>
        <pt x="722" y="984" on="1"/>
        <pt x="722" y="984" on="0"/>
        <pt x="715" y="948" on="0"/>
        <pt x="692" y="894" on="0"/>
        <pt x="646" y="841" on="0"/>
        <pt x="569" y="805" on="0"/>
      </contour>
      <contour>
        <pt x="388" y="-10" on="1"/>
        <pt x="305" y="-10" on="0"/>
        <pt x="181" y="43" on="0"/>
        <pt x="98" y="135" on="0"/>
        <pt x="56" y="255" on="0"/>
        <pt x="56" y="322" on="1"/>
        <pt x="56" y="397" on="0"/>
        <pt x="109" y="549" on="0"/>
        <pt x="214" y="674" on="0"/>
        <pt x="371" y="750" on="0"/>
        <pt x="474" y="750" on="1"/>
        <pt x="550" y="750" on="0"/>
        <pt x="654" y="711" on="0"/>
        <pt x="720" y="648" on="0"/>
        <pt x="757" y="579" on="0"/>
        <pt x="772" y="516" on="0"/>
        <pt x="775" y="477" on="0"/>
        <pt x="775" y="477" on="1"/>
        <pt x="604" y="477" on="1"/>
        <pt x="604" y="477" on="0"/>
        <pt x="601" y="501" on="0"/>
        <pt x="588" y="537" on="0"/>
        <pt x="558" y="572" on="0"/>
        <pt x="504" y="596" on="0"/>
        <pt x="462" y="596" on="1"/>
        <pt x="406" y="596" on="0"/>
        <pt x="319" y="550" on="0"/>
        <pt x="261" y="473" on="0"/>
        <pt x="231" y="381" on="0"/>
        <pt x="231" y="335" on="1"/>
        <pt x="231" y="284" on="0"/>
        <pt x="269" y="197" on="0"/>
        <pt x="346" y="145" on="0"/>
        <pt x="405" y="145" on="1"/>
        <pt x="467" y="145" on="0"/>
        <pt x="554" y="207" on="0"/>
        <pt x="574" y="270" on="1"/>
        <pt x="401" y="270" on="1"/>
        <pt x="430" y="404" on="1"/>
        <pt x="772" y="404" on="1"/>
        <pt x="765" y="348" on="1"/>
        <pt x="749" y="224" on="0"/>
        <pt x="642" y="66" on="0"/>
        <pt x="483" y="-10" on="0"/>
      </contour>
    </TTGlyph>
    <TTGlyph name="Gcaron" xMin="56" yMin="-10" xMax="775" yMax="988">
      <contour>
        <pt x="432" y="803" on="1"/>
        <pt x="339" y="988" on="1"/>
        <pt x="462" y="988" on="1"/>
        <pt x="508" y="885" on="1"/>
        <pt x="600" y="988" on="1"/>
        <pt x="737" y="988" on="1"/>
        <pt x="566" y="803" on="1"/>
      </contour>
      <contour>
        <pt x="388" y="-10" on="1"/>
        <pt x="305" y="-10" on="0"/>
        <pt x="181" y="43" on="0"/>
        <pt x="98" y="135" on="0"/>
        <pt x="56" y="255" on="0"/>
        <pt x="56" y="322" on="1"/>
        <pt x="56" y="397" on="0"/>
        <pt x="109" y="549" on="0"/>
        <pt x="214" y="674" on="0"/>
        <pt x="371" y="750" on="0"/>
        <pt x="474" y="750" on="1"/>
        <pt x="550" y="750" on="0"/>
        <pt x="654" y="711" on="0"/>
        <pt x="720" y="648" on="0"/>
        <pt x="757" y="579" on="0"/>
        <pt x="772" y="516" on="0"/>
        <pt x="775" y="477" on="0"/>
        <pt x="775" y="477" on="1"/>
        <pt x="604" y="477" on="1"/>
        <pt x="604" y="477" on="0"/>
        <pt x="601" y="501" on="0"/>
        <pt x="588" y="537" on="0"/>
        <pt x="558" y="572" on="0"/>
        <pt x="504" y="596" on="0"/>
        <pt x="462" y="596" on="1"/>
        <pt x="406" y="596" on="0"/>
        <pt x="319" y="550" on="0"/>
        <pt x="261" y="473" on="0"/>
        <pt x="231" y="381" on="0"/>
        <pt x="231" y="335" on="1"/>
        <pt x="231" y="284" on="0"/>
        <pt x="269" y="197" on="0"/>
        <pt x="346" y="145" on="0"/>
        <pt x="405" y="145" on="1"/>
        <pt x="467" y="145" on="0"/>
        <pt x="554" y="207" on="0"/>
        <pt x="574" y="270" on="1"/>
        <pt x="401" y="270" on="1"/>
        <pt x="430" y="404" on="1"/>
        <pt x="772" y="404" on="1"/>
        <pt x="765" y="348" on="1"/>
        <pt x="749" y="224" on="0"/>
        <pt x="642" y="66" on="0"/>
        <pt x="483" y="-10" on="0"/>
      </contour>
    </TTGlyph>
    <TTGlyph name="Gdotaccent" xMin="56" yMin="-10" xMax="775" yMax="992">
      <contour>
        <pt x="517" y="801" on="1"/>
        <pt x="473" y="801" on="0"/>
        <pt x="417" y="858" on="0"/>
        <pt x="417" y="897" on="1"/>
        <pt x="417" y="936" on="0"/>
        <pt x="473" y="992" on="0"/>
        <pt x="517" y="992" on="1"/>
        <pt x="560" y="992" on="0"/>
        <pt x="616" y="936" on="0"/>
        <pt x="616" y="897" on="1"/>
        <pt x="616" y="857" on="0"/>
        <pt x="560" y="801" on="0"/>
      </contour>
      <contour>
        <pt x="388" y="-10" on="1"/>
        <pt x="305" y="-10" on="0"/>
        <pt x="181" y="43" on="0"/>
        <pt x="98" y="135" on="0"/>
        <pt x="56" y="255" on="0"/>
        <pt x="56" y="322" on="1"/>
        <pt x="56" y="397" on="0"/>
        <pt x="109" y="549" on="0"/>
        <pt x="214" y="674" on="0"/>
        <pt x="371" y="750" on="0"/>
        <pt x="474" y="750" on="1"/>
        <pt x="550" y="750" on="0"/>
        <pt x="654" y="711" on="0"/>
        <pt x="720" y="648" on="0"/>
        <pt x="757" y="579" on="0"/>
        <pt x="772" y="516" on="0"/>
        <pt x="775" y="477" on="0"/>
        <pt x="775" y="477" on="1"/>
        <pt x="604" y="477" on="1"/>
        <pt x="604" y="477" on="0"/>
        <pt x="601" y="501" on="0"/>
        <pt x="588" y="537" on="0"/>
        <pt x="558" y="572" on="0"/>
        <pt x="504" y="596" on="0"/>
        <pt x="462" y="596" on="1"/>
        <pt x="406" y="596" on="0"/>
        <pt x="319" y="550" on="0"/>
        <pt x="261" y="473" on="0"/>
        <pt x="231" y="381" on="0"/>
        <pt x="231" y="335" on="1"/>
        <pt x="231" y="284" on="0"/>
        <pt x="269" y="197" on="0"/>
        <pt x="346" y="145" on="0"/>
        <pt x="405" y="145" on="1"/>
        <pt x="467" y="145" on="0"/>
        <pt x="554" y="207" on="0"/>
        <pt x="574" y="270" on="1"/>
        <pt x="401" y="270" on="1"/>
        <pt x="430" y="404" on="1"/>
        <pt x="772" y="404" on="1"/>
        <pt x="765" y="348" on="1"/>
        <pt x="749" y="224" on="0"/>
        <pt x="642" y="66" on="0"/>
        <pt x="483" y="-10" on="0"/>
      </contour>
    </TTGlyph>
    <TTGlyph name="H" xMin="7" yMin="0" xMax="783" yMax="740">
      <contour>
        <pt x="7" y="0" on="1"/>
        <pt x="164" y="740" on="1"/>
        <pt x="338" y="740" on="1"/>
        <pt x="277" y="453" on="1"/>
        <pt x="549" y="453" on="1"/>
        <pt x="609" y="740" on="1"/>
        <pt x="783" y="740" on="1"/>
        <pt x="626" y="0" on="1"/>
        <pt x="452" y="0" on="1"/>
        <pt x="517" y="305" on="1"/>
        <pt x="245" y="305" on="1"/>
        <pt x="181" y="0" on="1"/>
      </contour>
    </TTGlyph>
    <TTGlyph name="Hbar" xMin="29" yMin="0" xMax="857" yMax="740">
      <contour>
        <pt x="29" y="0" on="1"/>
        <pt x="143" y="537" on="1"/>
        <pt x="72" y="537" on="1"/>
        <pt x="98" y="660" on="1"/>
        <pt x="169" y="660" on="1"/>
        <pt x="186" y="740" on="1"/>
        <pt x="359" y="740" on="1"/>
        <pt x="342" y="660" on="1"/>
        <pt x="614" y="660" on="1"/>
        <pt x="631" y="740" on="1"/>
        <pt x="804" y="740" on="1"/>
        <pt x="787" y="660" on="1"/>
        <pt x="857" y="660" on="1"/>
        <pt x="831" y="537" on="1"/>
        <pt x="761" y="537" on="1"/>
        <pt x="647" y="0" on="1"/>
        <pt x="474" y="0" on="1"/>
        <pt x="538" y="305" on="1"/>
        <pt x="267" y="305" on="1"/>
        <pt x="202" y="0" on="1"/>
      </contour>
      <contour>
        <pt x="298" y="453" on="1"/>
        <pt x="570" y="453" on="1"/>
        <pt x="588" y="537" on="1"/>
        <pt x="316" y="537" on="1"/>
      </contour>
    </TTGlyph>
    <TTGlyph name="I" xMin="7" yMin="0" xMax="338" yMax="740">
      <contour>
        <pt x="7" y="0" on="1"/>
        <pt x="164" y="740" on="1"/>
        <pt x="338" y="740" on="1"/>
        <pt x="181" y="0" on="1"/>
      </contour>
    </TTGlyph>
    <TTGlyph name="Iacute" xMin="7" yMin="0" xMax="447" yMax="980">
      <contour>
        <pt x="334" y="800" on="1"/>
        <pt x="212" y="801" on="1"/>
        <pt x="292" y="980" on="1"/>
        <pt x="447" y="980" on="1"/>
      </contour>
      <contour>
        <pt x="7" y="0" on="1"/>
        <pt x="164" y="740" on="1"/>
        <pt x="338" y="740" on="1"/>
        <pt x="181" y="0" on="1"/>
      </contour>
    </TTGlyph>
    <TTGlyph name="Icircumflex" xMin="7" yMin="0" xMax="461" yMax="976">
      <contour>
        <pt x="63" y="791" on="1"/>
        <pt x="234" y="976" on="1"/>
        <pt x="368" y="976" on="1"/>
        <pt x="461" y="791" on="1"/>
        <pt x="338" y="791" on="1"/>
        <pt x="291" y="894" on="1"/>
        <pt x="200" y="791" on="1"/>
      </contour>
      <contour>
        <pt x="7" y="0" on="1"/>
        <pt x="164" y="740" on="1"/>
        <pt x="338" y="740" on="1"/>
        <pt x="181" y="0" on="1"/>
      </contour>
    </TTGlyph>
    <TTGlyph name="Idieresis" xMin="7" yMin="0" xMax="493" yMax="964">
      <contour>
        <pt x="398" y="783" on="1"/>
        <pt x="357" y="783" on="0"/>
        <pt x="304" y="836" on="0"/>
        <pt x="304" y="873" on="1"/>
        <pt x="304" y="911" on="0"/>
        <pt x="357" y="964" on="0"/>
        <pt x="398" y="964" on="1"/>
        <pt x="439" y="964" on="0"/>
        <pt x="493" y="911" on="0"/>
        <pt x="493" y="873" on="1"/>
        <pt x="493" y="836" on="0"/>
        <pt x="439" y="783" on="0"/>
      </contour>
      <contour>
        <pt x="160" y="783" on="1"/>
        <pt x="119" y="783" on="0"/>
        <pt x="66" y="836" on="0"/>
        <pt x="66" y="873" on="1"/>
        <pt x="66" y="911" on="0"/>
        <pt x="119" y="964" on="0"/>
        <pt x="160" y="964" on="1"/>
        <pt x="201" y="964" on="0"/>
        <pt x="255" y="911" on="0"/>
        <pt x="255" y="873" on="1"/>
        <pt x="255" y="836" on="0"/>
        <pt x="201" y="783" on="0"/>
      </contour>
      <contour>
        <pt x="7" y="0" on="1"/>
        <pt x="164" y="740" on="1"/>
        <pt x="338" y="740" on="1"/>
        <pt x="181" y="0" on="1"/>
      </contour>
    </TTGlyph>
    <TTGlyph name="Idotaccent" xMin="7" yMin="0" xMax="382" yMax="981">
      <contour>
        <pt x="282" y="790" on="1"/>
        <pt x="238" y="790" on="0"/>
        <pt x="183" y="846" on="0"/>
        <pt x="183" y="885" on="1"/>
        <pt x="183" y="925" on="0"/>
        <pt x="238" y="981" on="0"/>
        <pt x="282" y="981" on="1"/>
        <pt x="325" y="981" on="0"/>
        <pt x="382" y="925" on="0"/>
        <pt x="382" y="885" on="1"/>
        <pt x="382" y="846" on="0"/>
        <pt x="325" y="790" on="0"/>
      </contour>
      <contour>
        <pt x="7" y="0" on="1"/>
        <pt x="164" y="740" on="1"/>
        <pt x="338" y="740" on="1"/>
        <pt x="181" y="0" on="1"/>
      </contour>
    </TTGlyph>
    <TTGlyph name="Igrave" xMin="7" yMin="0" xMax="338" yMax="980">
      <contour>
        <pt x="195" y="800" on="1"/>
        <pt x="95" y="980" on="1"/>
        <pt x="246" y="980" on="1"/>
        <pt x="313" y="801" on="1"/>
      </contour>
      <contour>
        <pt x="7" y="0" on="1"/>
        <pt x="164" y="740" on="1"/>
        <pt x="338" y="740" on="1"/>
        <pt x="181" y="0" on="1"/>
      </contour>
    </TTGlyph>
    <TTGlyph name="Imacron" xMin="7" yMin="0" xMax="453" yMax="913">
      <contour>
        <pt x="100" y="817" on="1"/>
        <pt x="120" y="913" on="1"/>
        <pt x="453" y="913" on="1"/>
        <pt x="432" y="817" on="1"/>
      </contour>
      <contour>
        <pt x="7" y="0" on="1"/>
        <pt x="164" y="740" on="1"/>
        <pt x="338" y="740" on="1"/>
        <pt x="181" y="0" on="1"/>
      </contour>
    </TTGlyph>
    <TTGlyph name="Iogonek" xMin="-9" yMin="-189" xMax="338" yMax="740">
      <contour>
        <pt x="7" y="0" on="1"/>
        <pt x="164" y="740" on="1"/>
        <pt x="338" y="740" on="1"/>
        <pt x="181" y="0" on="1"/>
        <pt x="181" y="0" on="0"/>
        <pt x="149" y="-15" on="0"/>
        <pt x="117" y="-43" on="0"/>
        <pt x="117" y="-62" on="1"/>
        <pt x="117" y="-76" on="0"/>
        <pt x="139" y="-94" on="0"/>
        <pt x="164" y="-94" on="1"/>
        <pt x="176" y="-94" on="0"/>
        <pt x="197" y="-90" on="0"/>
        <pt x="197" y="-90" on="1"/>
        <pt x="178" y="-183" on="1"/>
        <pt x="178" y="-183" on="0"/>
        <pt x="147" y="-189" on="0"/>
        <pt x="123" y="-189" on="1"/>
        <pt x="55" y="-189" on="0"/>
        <pt x="-9" y="-137" on="0"/>
        <pt x="-9" y="-97" on="1"/>
        <pt x="-9" y="-61" on="0"/>
        <pt x="33" y="-14" on="0"/>
        <pt x="59" y="0" on="1"/>
      </contour>
    </TTGlyph>
    <TTGlyph name="Itilde" xMin="7" yMin="0" xMax="479" yMax="971">
      <contour>
        <pt x="353" y="812" on="1"/>
        <pt x="326" y="812" on="0"/>
        <pt x="287" y="830" on="0"/>
        <pt x="257" y="854" on="0"/>
        <pt x="232" y="873" on="0"/>
        <pt x="219" y="873" on="1"/>
        <pt x="192" y="873" on="0"/>
        <pt x="181" y="818" on="1"/>
        <pt x="94" y="818" on="1"/>
        <pt x="103" y="857" on="0"/>
        <pt x="129" y="927" on="0"/>
        <pt x="178" y="971" on="0"/>
        <pt x="221" y="971" on="1"/>
        <pt x="248" y="971" on="0"/>
        <pt x="287" y="953" on="0"/>
        <pt x="317" y="928" on="0"/>
        <pt x="342" y="910" on="0"/>
        <pt x="355" y="910" on="1"/>
        <pt x="370" y="910" on="0"/>
        <pt x="387" y="938" on="0"/>
        <pt x="392" y="965" on="1"/>
        <pt x="479" y="965" on="1"/>
        <pt x="471" y="926" on="0"/>
        <pt x="444" y="856" on="0"/>
        <pt x="395" y="812" on="0"/>
      </contour>
      <contour>
        <pt x="7" y="0" on="1"/>
        <pt x="164" y="740" on="1"/>
        <pt x="338" y="740" on="1"/>
        <pt x="181" y="0" on="1"/>
      </contour>
    </TTGlyph>
    <TTGlyph name="J" xMin="-10" yMin="-10" xMax="543" yMax="740">
      <contour>
        <pt x="102" y="-10" on="1"/>
        <pt x="54" y="-10" on="0"/>
        <pt x="-10" y="0" on="0"/>
        <pt x="-10" y="0" on="1"/>
        <pt x="20" y="143" on="1"/>
        <pt x="20" y="143" on="0"/>
        <pt x="69" y="137" on="0"/>
        <pt x="99" y="137" on="1"/>
        <pt x="164" y="137" on="0"/>
        <pt x="260" y="214" on="0"/>
        <pt x="276" y="290" on="1"/>
        <pt x="371" y="740" on="1"/>
        <pt x="543" y="740" on="1"/>
        <pt x="445" y="278" on="1"/>
        <pt x="429" y="200" on="0"/>
        <pt x="347" y="69" on="0"/>
        <pt x="207" y="-10" on="0"/>
      </contour>
    </TTGlyph>
    <TTGlyph name="K" xMin="7" yMin="0" xMax="804" yMax="740">
      <contour>
        <pt x="7" y="0" on="1"/>
        <pt x="164" y="740" on="1"/>
        <pt x="338" y="740" on="1"/>
        <pt x="270" y="423" on="1"/>
        <pt x="578" y="740" on="1"/>
        <pt x="804" y="740" on="1"/>
        <pt x="424" y="363" on="1"/>
        <pt x="638" y="0" on="1"/>
        <pt x="443" y="0" on="1"/>
        <pt x="252" y="336" on="1"/>
        <pt x="181" y="0" on="1"/>
      </contour>
    </TTGlyph>
    <TTGlyph name="L" xMin="7" yMin="0" xMax="560" yMax="740">
      <contour>
        <pt x="7" y="0" on="1"/>
        <pt x="164" y="740" on="1"/>
        <pt x="338" y="740" on="1"/>
        <pt x="212" y="150" on="1"/>
        <pt x="560" y="150" on="1"/>
        <pt x="529" y="0" on="1"/>
      </contour>
    </TTGlyph>
    <TTGlyph name="Lacute" xMin="7" yMin="0" xMax="552" yMax="991">
      <contour>
        <pt x="336" y="811" on="1"/>
        <pt x="214" y="812" on="1"/>
        <pt x="294" y="991" on="1"/>
        <pt x="449" y="991" on="1"/>
      </contour>
      <contour>
        <pt x="7" y="0" on="1"/>
        <pt x="164" y="740" on="1"/>
        <pt x="338" y="740" on="1"/>
        <pt x="212" y="150" on="1"/>
        <pt x="552" y="150" on="1"/>
        <pt x="521" y="0" on="1"/>
      </contour>
    </TTGlyph>
    <TTGlyph name="Lcaron" xMin="7" yMin="0" xMax="552" yMax="988">
      <contour>
        <pt x="199" y="803" on="1"/>
        <pt x="106" y="988" on="1"/>
        <pt x="229" y="988" on="1"/>
        <pt x="276" y="885" on="1"/>
        <pt x="367" y="988" on="1"/>
        <pt x="504" y="988" on="1"/>
        <pt x="333" y="803" on="1"/>
      </contour>
      <contour>
        <pt x="7" y="0" on="1"/>
        <pt x="164" y="740" on="1"/>
        <pt x="338" y="740" on="1"/>
        <pt x="212" y="150" on="1"/>
        <pt x="552" y="150" on="1"/>
        <pt x="521" y="0" on="1"/>
      </contour>
    </TTGlyph>
    <TTGlyph name="Lslash" xMin="-12" yMin="0" xMax="575" yMax="740">
      <contour>
        <pt x="30" y="0" on="1"/>
        <pt x="89" y="275" on="1"/>
        <pt x="-12" y="233" on="1"/>
        <pt x="18" y="365" on="1"/>
        <pt x="116" y="406" on="1"/>
        <pt x="187" y="740" on="1"/>
        <pt x="360" y="740" on="1"/>
        <pt x="306" y="485" on="1"/>
        <pt x="439" y="540" on="1"/>
        <pt x="410" y="408" on="1"/>
        <pt x="278" y="354" on="1"/>
        <pt x="235" y="150" on="1"/>
        <pt x="575" y="150" on="1"/>
        <pt x="543" y="0" on="1"/>
      </contour>
    </TTGlyph>
    <TTGlyph name="M" xMin="7" yMin="0" xMax="937" yMax="740">
      <contour>
        <pt x="7" y="0" on="1"/>
        <pt x="164" y="740" on="1"/>
        <pt x="390" y="740" on="1"/>
        <pt x="467" y="380" on="1"/>
        <pt x="703" y="740" on="1"/>
        <pt x="937" y="740" on="1"/>
        <pt x="780" y="0" on="1"/>
        <pt x="606" y="0" on="1"/>
        <pt x="706" y="466" on="1"/>
        <pt x="510" y="168" on="1"/>
        <pt x="350" y="168" on="1"/>
        <pt x="281" y="471" on="1"/>
        <pt x="181" y="0" on="1"/>
      </contour>
    </TTGlyph>
    <TTGlyph name="N" xMin="7" yMin="0" xMax="791" yMax="740">
      <contour>
        <pt x="7" y="0" on="1"/>
        <pt x="164" y="740" on="1"/>
        <pt x="324" y="740" on="1"/>
        <pt x="522" y="291" on="1"/>
        <pt x="618" y="740" on="1"/>
        <pt x="791" y="740" on="1"/>
        <pt x="634" y="0" on="1"/>
        <pt x="473" y="0" on="1"/>
        <pt x="273" y="432" on="1"/>
        <pt x="181" y="0" on="1"/>
      </contour>
    </TTGlyph>
    <TTGlyph name="Nacute" xMin="7" yMin="0" xMax="791" yMax="991">
      <contour>
        <pt x="559" y="811" on="1"/>
        <pt x="437" y="812" on="1"/>
        <pt x="518" y="991" on="1"/>
        <pt x="673" y="991" on="1"/>
      </contour>
      <contour>
        <pt x="7" y="0" on="1"/>
        <pt x="164" y="740" on="1"/>
        <pt x="324" y="740" on="1"/>
        <pt x="522" y="291" on="1"/>
        <pt x="618" y="740" on="1"/>
        <pt x="791" y="740" on="1"/>
        <pt x="634" y="0" on="1"/>
        <pt x="473" y="0" on="1"/>
        <pt x="273" y="432" on="1"/>
        <pt x="181" y="0" on="1"/>
      </contour>
    </TTGlyph>
    <TTGlyph name="Ncaron" xMin="7" yMin="0" xMax="791" yMax="988">
      <contour>
        <pt x="423" y="803" on="1"/>
        <pt x="329" y="988" on="1"/>
        <pt x="453" y="988" on="1"/>
        <pt x="499" y="885" on="1"/>
        <pt x="591" y="988" on="1"/>
        <pt x="728" y="988" on="1"/>
        <pt x="556" y="803" on="1"/>
      </contour>
      <contour>
        <pt x="7" y="0" on="1"/>
        <pt x="164" y="740" on="1"/>
        <pt x="324" y="740" on="1"/>
        <pt x="522" y="291" on="1"/>
        <pt x="618" y="740" on="1"/>
        <pt x="791" y="740" on="1"/>
        <pt x="634" y="0" on="1"/>
        <pt x="473" y="0" on="1"/>
        <pt x="273" y="432" on="1"/>
        <pt x="181" y="0" on="1"/>
      </contour>
    </TTGlyph>
    <TTGlyph name="Ntilde" xMin="7" yMin="0" xMax="791" yMax="982">
      <contour>
        <pt x="578" y="823" on="1"/>
        <pt x="551" y="823" on="0"/>
        <pt x="512" y="841" on="0"/>
        <pt x="483" y="866" on="0"/>
        <pt x="458" y="884" on="0"/>
        <pt x="444" y="884" on="1"/>
        <pt x="417" y="884" on="0"/>
        <pt x="406" y="829" on="1"/>
        <pt x="320" y="829" on="1"/>
        <pt x="328" y="868" on="0"/>
        <pt x="354" y="938" on="0"/>
        <pt x="403" y="982" on="0"/>
        <pt x="446" y="982" on="1"/>
        <pt x="473" y="982" on="0"/>
        <pt x="513" y="964" on="0"/>
        <pt x="542" y="940" on="0"/>
        <pt x="567" y="921" on="0"/>
        <pt x="580" y="921" on="1"/>
        <pt x="595" y="921" on="0"/>
        <pt x="612" y="949" on="0"/>
        <pt x="618" y="976" on="1"/>
        <pt x="705" y="976" on="1"/>
        <pt x="696" y="937" on="0"/>
        <pt x="670" y="867" on="0"/>
        <pt x="621" y="823" on="0"/>
      </contour>
      <contour>
        <pt x="7" y="0" on="1"/>
        <pt x="164" y="740" on="1"/>
        <pt x="324" y="740" on="1"/>
        <pt x="522" y="291" on="1"/>
        <pt x="618" y="740" on="1"/>
        <pt x="791" y="740" on="1"/>
        <pt x="634" y="0" on="1"/>
        <pt x="473" y="0" on="1"/>
        <pt x="273" y="432" on="1"/>
        <pt x="181" y="0" on="1"/>
      </contour>
    </TTGlyph>
    <TTGlyph name="O" xMin="57" yMin="-10" xMax="803" yMax="750">
      <contour>
        <pt x="391" y="-10" on="1"/>
        <pt x="305" y="-10" on="0"/>
        <pt x="180" y="45" on="0"/>
        <pt x="97" y="139" on="0"/>
        <pt x="57" y="259" on="0"/>
        <pt x="57" y="324" on="1"/>
        <pt x="57" y="401" on="0"/>
        <pt x="111" y="552" on="0"/>
        <pt x="216" y="676" on="0"/>
        <pt x="370" y="750" on="0"/>
        <pt x="470" y="750" on="1"/>
        <pt x="555" y="750" on="0"/>
        <pt x="680" y="695" on="0"/>
        <pt x="763" y="601" on="0"/>
        <pt x="803" y="481" on="0"/>
        <pt x="803" y="416" on="1"/>
        <pt x="803" y="339" on="0"/>
        <pt x="749" y="188" on="0"/>
        <pt x="644" y="64" on="0"/>
        <pt x="490" y="-10" on="0"/>
      </contour>
      <contour>
        <pt x="398" y="145" on="1"/>
        <pt x="453" y="145" on="0"/>
        <pt x="538" y="192" on="0"/>
        <pt x="597" y="271" on="0"/>
        <pt x="628" y="365" on="0"/>
        <pt x="628" y="412" on="1"/>
        <pt x="628" y="461" on="0"/>
        <pt x="593" y="544" on="0"/>
        <pt x="520" y="595" on="0"/>
        <pt x="463" y="595" on="1"/>
        <pt x="409" y="595" on="0"/>
        <pt x="323" y="548" on="0"/>
        <pt x="264" y="469" on="0"/>
        <pt x="233" y="375" on="0"/>
        <pt x="233" y="328" on="1"/>
        <pt x="233" y="279" on="0"/>
        <pt x="268" y="196" on="0"/>
        <pt x="341" y="145" on="0"/>
      </contour>
    </TTGlyph>
    <TTGlyph name="OE" xMin="57" yMin="0" xMax="1052" yMax="740">
      <contour>
        <pt x="1052" y="740" on="1"/>
        <pt x="1021" y="590" on="1"/>
        <pt x="682" y="590" on="1"/>
        <pt x="652" y="447" on="1"/>
        <pt x="945" y="447" on="1"/>
        <pt x="915" y="304" on="1"/>
        <pt x="621" y="304" on="1"/>
        <pt x="589" y="150" on="1"/>
        <pt x="932" y="150" on="1"/>
        <pt x="900" y="0" on="1"/>
        <pt x="384" y="0" on="1"/>
        <pt x="301" y="2" on="0"/>
        <pt x="178" y="57" on="0"/>
        <pt x="97" y="149" on="0"/>
        <pt x="57" y="264" on="0"/>
        <pt x="57" y="326" on="1"/>
        <pt x="57" y="400" on="0"/>
        <pt x="113" y="547" on="0"/>
        <pt x="224" y="668" on="0"/>
        <pt x="388" y="740" on="0"/>
        <pt x="496" y="740" on="1"/>
      </contour>
      <contour>
        <pt x="227" y="336" on="1"/>
        <pt x="227" y="288" on="0"/>
        <pt x="267" y="204" on="0"/>
        <pt x="349" y="152" on="0"/>
        <pt x="411" y="152" on="1"/>
        <pt x="416" y="152" on="1"/>
        <pt x="508" y="586" on="1"/>
        <pt x="482" y="586" on="1"/>
        <pt x="420" y="586" on="0"/>
        <pt x="324" y="542" on="0"/>
        <pt x="260" y="469" on="0"/>
        <pt x="227" y="380" on="0"/>
      </contour>
    </TTGlyph>
    <TTGlyph name="Oacute" xMin="57" yMin="-10" xMax="803" yMax="991">
      <contour>
        <pt x="566" y="811" on="1"/>
        <pt x="444" y="812" on="1"/>
        <pt x="524" y="991" on="1"/>
        <pt x="679" y="991" on="1"/>
      </contour>
      <contour>
        <pt x="391" y="-10" on="1"/>
        <pt x="305" y="-10" on="0"/>
        <pt x="180" y="45" on="0"/>
        <pt x="97" y="139" on="0"/>
        <pt x="57" y="259" on="0"/>
        <pt x="57" y="324" on="1"/>
        <pt x="57" y="401" on="0"/>
        <pt x="111" y="552" on="0"/>
        <pt x="216" y="676" on="0"/>
        <pt x="370" y="750" on="0"/>
        <pt x="470" y="750" on="1"/>
        <pt x="555" y="750" on="0"/>
        <pt x="680" y="695" on="0"/>
        <pt x="763" y="601" on="0"/>
        <pt x="803" y="481" on="0"/>
        <pt x="803" y="416" on="1"/>
        <pt x="803" y="339" on="0"/>
        <pt x="749" y="188" on="0"/>
        <pt x="644" y="64" on="0"/>
        <pt x="490" y="-10" on="0"/>
      </contour>
      <contour>
        <pt x="398" y="145" on="1"/>
        <pt x="453" y="145" on="0"/>
        <pt x="538" y="192" on="0"/>
        <pt x="597" y="271" on="0"/>
        <pt x="628" y="365" on="0"/>
        <pt x="628" y="412" on="1"/>
        <pt x="628" y="461" on="0"/>
        <pt x="593" y="544" on="0"/>
        <pt x="520" y="595" on="0"/>
        <pt x="463" y="595" on="1"/>
        <pt x="409" y="595" on="0"/>
        <pt x="323" y="548" on="0"/>
        <pt x="264" y="469" on="0"/>
        <pt x="233" y="375" on="0"/>
        <pt x="233" y="328" on="1"/>
        <pt x="233" y="279" on="0"/>
        <pt x="268" y="196" on="0"/>
        <pt x="341" y="145" on="0"/>
      </contour>
    </TTGlyph>
    <TTGlyph name="Ocircumflex" xMin="57" yMin="-10" xMax="803" yMax="959">
      <contour>
        <pt x="288" y="802" on="1"/>
        <pt x="453" y="959" on="1"/>
        <pt x="587" y="959" on="1"/>
        <pt x="686" y="802" on="1"/>
        <pt x="563" y="802" on="1"/>
        <pt x="512" y="889" on="1"/>
        <pt x="425" y="802" on="1"/>
      </contour>
      <contour>
        <pt x="391" y="-10" on="1"/>
        <pt x="305" y="-10" on="0"/>
        <pt x="180" y="45" on="0"/>
        <pt x="97" y="139" on="0"/>
        <pt x="57" y="259" on="0"/>
        <pt x="57" y="324" on="1"/>
        <pt x="57" y="401" on="0"/>
        <pt x="111" y="552" on="0"/>
        <pt x="216" y="676" on="0"/>
        <pt x="370" y="750" on="0"/>
        <pt x="470" y="750" on="1"/>
        <pt x="555" y="750" on="0"/>
        <pt x="680" y="695" on="0"/>
        <pt x="763" y="601" on="0"/>
        <pt x="803" y="481" on="0"/>
        <pt x="803" y="416" on="1"/>
        <pt x="803" y="339" on="0"/>
        <pt x="749" y="188" on="0"/>
        <pt x="644" y="64" on="0"/>
        <pt x="490" y="-10" on="0"/>
      </contour>
      <contour>
        <pt x="398" y="145" on="1"/>
        <pt x="453" y="145" on="0"/>
        <pt x="538" y="192" on="0"/>
        <pt x="597" y="271" on="0"/>
        <pt x="628" y="365" on="0"/>
        <pt x="628" y="412" on="1"/>
        <pt x="628" y="461" on="0"/>
        <pt x="593" y="544" on="0"/>
        <pt x="520" y="595" on="0"/>
        <pt x="463" y="595" on="1"/>
        <pt x="409" y="595" on="0"/>
        <pt x="323" y="548" on="0"/>
        <pt x="264" y="469" on="0"/>
        <pt x="233" y="375" on="0"/>
        <pt x="233" y="328" on="1"/>
        <pt x="233" y="279" on="0"/>
        <pt x="268" y="196" on="0"/>
        <pt x="341" y="145" on="0"/>
      </contour>
    </TTGlyph>
    <TTGlyph name="Odieresis" xMin="57" yMin="-10" xMax="803" yMax="975">
      <contour>
        <pt x="630" y="794" on="1"/>
        <pt x="589" y="794" on="0"/>
        <pt x="536" y="848" on="0"/>
        <pt x="536" y="885" on="1"/>
        <pt x="536" y="922" on="0"/>
        <pt x="589" y="975" on="0"/>
        <pt x="630" y="975" on="1"/>
        <pt x="671" y="975" on="0"/>
        <pt x="724" y="922" on="0"/>
        <pt x="724" y="885" on="1"/>
        <pt x="724" y="848" on="0"/>
        <pt x="671" y="794" on="0"/>
      </contour>
      <contour>
        <pt x="392" y="794" on="1"/>
        <pt x="351" y="794" on="0"/>
        <pt x="298" y="848" on="0"/>
        <pt x="298" y="885" on="1"/>
        <pt x="298" y="922" on="0"/>
        <pt x="351" y="975" on="0"/>
        <pt x="392" y="975" on="1"/>
        <pt x="433" y="975" on="0"/>
        <pt x="486" y="922" on="0"/>
        <pt x="486" y="885" on="1"/>
        <pt x="486" y="848" on="0"/>
        <pt x="433" y="794" on="0"/>
      </contour>
      <contour>
        <pt x="391" y="-10" on="1"/>
        <pt x="305" y="-10" on="0"/>
        <pt x="180" y="45" on="0"/>
        <pt x="97" y="139" on="0"/>
        <pt x="57" y="259" on="0"/>
        <pt x="57" y="324" on="1"/>
        <pt x="57" y="401" on="0"/>
        <pt x="111" y="552" on="0"/>
        <pt x="216" y="676" on="0"/>
        <pt x="370" y="750" on="0"/>
        <pt x="470" y="750" on="1"/>
        <pt x="555" y="750" on="0"/>
        <pt x="680" y="695" on="0"/>
        <pt x="763" y="601" on="0"/>
        <pt x="803" y="481" on="0"/>
        <pt x="803" y="416" on="1"/>
        <pt x="803" y="339" on="0"/>
        <pt x="749" y="188" on="0"/>
        <pt x="644" y="64" on="0"/>
        <pt x="490" y="-10" on="0"/>
      </contour>
      <contour>
        <pt x="398" y="145" on="1"/>
        <pt x="453" y="145" on="0"/>
        <pt x="538" y="192" on="0"/>
        <pt x="597" y="271" on="0"/>
        <pt x="628" y="365" on="0"/>
        <pt x="628" y="412" on="1"/>
        <pt x="628" y="461" on="0"/>
        <pt x="593" y="544" on="0"/>
        <pt x="520" y="595" on="0"/>
        <pt x="463" y="595" on="1"/>
        <pt x="409" y="595" on="0"/>
        <pt x="323" y="548" on="0"/>
        <pt x="264" y="469" on="0"/>
        <pt x="233" y="375" on="0"/>
        <pt x="233" y="328" on="1"/>
        <pt x="233" y="279" on="0"/>
        <pt x="268" y="196" on="0"/>
        <pt x="341" y="145" on="0"/>
      </contour>
    </TTGlyph>
    <TTGlyph name="Ograve" xMin="57" yMin="-10" xMax="803" yMax="991">
      <contour>
        <pt x="427" y="811" on="1"/>
        <pt x="327" y="991" on="1"/>
        <pt x="478" y="991" on="1"/>
        <pt x="544" y="812" on="1"/>
      </contour>
      <contour>
        <pt x="391" y="-10" on="1"/>
        <pt x="305" y="-10" on="0"/>
        <pt x="180" y="45" on="0"/>
        <pt x="97" y="139" on="0"/>
        <pt x="57" y="259" on="0"/>
        <pt x="57" y="324" on="1"/>
        <pt x="57" y="401" on="0"/>
        <pt x="111" y="552" on="0"/>
        <pt x="216" y="676" on="0"/>
        <pt x="370" y="750" on="0"/>
        <pt x="470" y="750" on="1"/>
        <pt x="555" y="750" on="0"/>
        <pt x="680" y="695" on="0"/>
        <pt x="763" y="601" on="0"/>
        <pt x="803" y="481" on="0"/>
        <pt x="803" y="416" on="1"/>
        <pt x="803" y="339" on="0"/>
        <pt x="749" y="188" on="0"/>
        <pt x="644" y="64" on="0"/>
        <pt x="490" y="-10" on="0"/>
      </contour>
      <contour>
        <pt x="398" y="145" on="1"/>
        <pt x="453" y="145" on="0"/>
        <pt x="538" y="192" on="0"/>
        <pt x="597" y="271" on="0"/>
        <pt x="628" y="365" on="0"/>
        <pt x="628" y="412" on="1"/>
        <pt x="628" y="461" on="0"/>
        <pt x="593" y="544" on="0"/>
        <pt x="520" y="595" on="0"/>
        <pt x="463" y="595" on="1"/>
        <pt x="409" y="595" on="0"/>
        <pt x="323" y="548" on="0"/>
        <pt x="264" y="469" on="0"/>
        <pt x="233" y="375" on="0"/>
        <pt x="233" y="328" on="1"/>
        <pt x="233" y="279" on="0"/>
        <pt x="268" y="196" on="0"/>
        <pt x="341" y="145" on="0"/>
      </contour>
    </TTGlyph>
    <TTGlyph name="Ohorn" xMin="57" yMin="-10" xMax="869" yMax="865">
      <contour>
        <pt x="391" y="-10" on="1"/>
        <pt x="305" y="-10" on="0"/>
        <pt x="180" y="45" on="0"/>
        <pt x="97" y="139" on="0"/>
        <pt x="57" y="259" on="0"/>
        <pt x="57" y="324" on="1"/>
        <pt x="57" y="401" on="0"/>
        <pt x="111" y="552" on="0"/>
        <pt x="216" y="676" on="0"/>
        <pt x="370" y="750" on="0"/>
        <pt x="470" y="750" on="1"/>
        <pt x="476" y="750" on="0"/>
        <pt x="481" y="750" on="1"/>
        <pt x="481" y="750" on="1"/>
        <pt x="659" y="750" on="1"/>
        <pt x="701" y="750" on="0"/>
        <pt x="710" y="790" on="1"/>
        <pt x="726" y="865" on="1"/>
        <pt x="869" y="865" on="1"/>
        <pt x="848" y="764" on="1"/>
        <pt x="837" y="714" on="0"/>
        <pt x="776" y="659" on="0"/>
        <pt x="716" y="659" on="1"/>
        <pt x="711" y="659" on="1"/>
        <pt x="758" y="612" on="0"/>
        <pt x="803" y="485" on="0"/>
        <pt x="803" y="416" on="1"/>
        <pt x="803" y="339" on="0"/>
        <pt x="749" y="188" on="0"/>
        <pt x="644" y="64" on="0"/>
        <pt x="490" y="-10" on="0"/>
      </contour>
      <contour>
        <pt x="398" y="145" on="1"/>
        <pt x="453" y="145" on="0"/>
        <pt x="538" y="192" on="0"/>
        <pt x="597" y="271" on="0"/>
        <pt x="628" y="365" on="0"/>
        <pt x="628" y="412" on="1"/>
        <pt x="628" y="461" on="0"/>
        <pt x="593" y="544" on="0"/>
        <pt x="520" y="595" on="0"/>
        <pt x="463" y="595" on="1"/>
        <pt x="409" y="595" on="0"/>
        <pt x="323" y="548" on="0"/>
        <pt x="264" y="469" on="0"/>
        <pt x="233" y="375" on="0"/>
        <pt x="233" y="328" on="1"/>
        <pt x="233" y="279" on="0"/>
        <pt x="268" y="196" on="0"/>
        <pt x="341" y="145" on="0"/>
      </contour>
    </TTGlyph>
    <TTGlyph name="Ohungarumlaut" xMin="57" yMin="-10" xMax="803" yMax="991">
      <contour>
        <pt x="452" y="811" on="1"/>
        <pt x="339" y="812" on="1"/>
        <pt x="420" y="991" on="1"/>
        <pt x="566" y="991" on="1"/>
      </contour>
      <contour>
        <pt x="648" y="811" on="1"/>
        <pt x="532" y="812" on="1"/>
        <pt x="623" y="991" on="1"/>
        <pt x="772" y="991" on="1"/>
      </contour>
      <contour>
        <pt x="391" y="-10" on="1"/>
        <pt x="305" y="-10" on="0"/>
        <pt x="180" y="45" on="0"/>
        <pt x="97" y="139" on="0"/>
        <pt x="57" y="259" on="0"/>
        <pt x="57" y="324" on="1"/>
        <pt x="57" y="401" on="0"/>
        <pt x="111" y="552" on="0"/>
        <pt x="216" y="676" on="0"/>
        <pt x="370" y="750" on="0"/>
        <pt x="470" y="750" on="1"/>
        <pt x="555" y="750" on="0"/>
        <pt x="680" y="695" on="0"/>
        <pt x="763" y="601" on="0"/>
        <pt x="803" y="481" on="0"/>
        <pt x="803" y="416" on="1"/>
        <pt x="803" y="339" on="0"/>
        <pt x="749" y="188" on="0"/>
        <pt x="644" y="64" on="0"/>
        <pt x="490" y="-10" on="0"/>
      </contour>
      <contour>
        <pt x="398" y="145" on="1"/>
        <pt x="453" y="145" on="0"/>
        <pt x="538" y="192" on="0"/>
        <pt x="597" y="271" on="0"/>
        <pt x="628" y="365" on="0"/>
        <pt x="628" y="412" on="1"/>
        <pt x="628" y="461" on="0"/>
        <pt x="593" y="544" on="0"/>
        <pt x="520" y="595" on="0"/>
        <pt x="463" y="595" on="1"/>
        <pt x="409" y="595" on="0"/>
        <pt x="323" y="548" on="0"/>
        <pt x="264" y="469" on="0"/>
        <pt x="233" y="375" on="0"/>
        <pt x="233" y="328" on="1"/>
        <pt x="233" y="279" on="0"/>
        <pt x="268" y="196" on="0"/>
        <pt x="341" y="145" on="0"/>
      </contour>
    </TTGlyph>
    <TTGlyph name="Omacron" xMin="57" yMin="-10" xMax="803" yMax="925">
      <contour>
        <pt x="331" y="829" on="1"/>
        <pt x="352" y="925" on="1"/>
        <pt x="685" y="925" on="1"/>
        <pt x="664" y="829" on="1"/>
      </contour>
      <contour>
        <pt x="391" y="-10" on="1"/>
        <pt x="305" y="-10" on="0"/>
        <pt x="180" y="45" on="0"/>
        <pt x="97" y="139" on="0"/>
        <pt x="57" y="259" on="0"/>
        <pt x="57" y="324" on="1"/>
        <pt x="57" y="401" on="0"/>
        <pt x="111" y="552" on="0"/>
        <pt x="216" y="676" on="0"/>
        <pt x="370" y="750" on="0"/>
        <pt x="470" y="750" on="1"/>
        <pt x="555" y="750" on="0"/>
        <pt x="680" y="695" on="0"/>
        <pt x="763" y="601" on="0"/>
        <pt x="803" y="481" on="0"/>
        <pt x="803" y="416" on="1"/>
        <pt x="803" y="339" on="0"/>
        <pt x="749" y="188" on="0"/>
        <pt x="644" y="64" on="0"/>
        <pt x="490" y="-10" on="0"/>
      </contour>
      <contour>
        <pt x="398" y="145" on="1"/>
        <pt x="453" y="145" on="0"/>
        <pt x="538" y="192" on="0"/>
        <pt x="597" y="271" on="0"/>
        <pt x="628" y="365" on="0"/>
        <pt x="628" y="412" on="1"/>
        <pt x="628" y="461" on="0"/>
        <pt x="593" y="544" on="0"/>
        <pt x="520" y="595" on="0"/>
        <pt x="463" y="595" on="1"/>
        <pt x="409" y="595" on="0"/>
        <pt x="323" y="548" on="0"/>
        <pt x="264" y="469" on="0"/>
        <pt x="233" y="375" on="0"/>
        <pt x="233" y="328" on="1"/>
        <pt x="233" y="279" on="0"/>
        <pt x="268" y="196" on="0"/>
        <pt x="341" y="145" on="0"/>
      </contour>
    </TTGlyph>
    <TTGlyph name="Oslash" xMin="11" yMin="-24" xMax="849" yMax="763">
      <contour>
        <pt x="11" y="-24" on="1"/>
        <pt x="124" y="109" on="1"/>
        <pt x="90" y="154" on="0"/>
        <pt x="57" y="264" on="0"/>
        <pt x="57" y="324" on="1"/>
        <pt x="57" y="400" on="0"/>
        <pt x="111" y="551" on="0"/>
        <pt x="216" y="675" on="0"/>
        <pt x="370" y="749" on="0"/>
        <pt x="470" y="749" on="1"/>
        <pt x="519" y="749" on="0"/>
        <pt x="603" y="730" on="0"/>
        <pt x="638" y="712" on="1"/>
        <pt x="682" y="763" on="1"/>
        <pt x="849" y="763" on="1"/>
        <pt x="736" y="630" on="1"/>
        <pt x="770" y="585" on="0"/>
        <pt x="803" y="474" on="0"/>
        <pt x="803" y="415" on="1"/>
        <pt x="803" y="338" on="0"/>
        <pt x="749" y="188" on="0"/>
        <pt x="644" y="64" on="0"/>
        <pt x="490" y="-11" on="0"/>
        <pt x="391" y="-11" on="1"/>
        <pt x="341" y="-11" on="0"/>
        <pt x="256" y="9" on="0"/>
        <pt x="222" y="27" on="1"/>
        <pt x="178" y="-24" on="1"/>
      </contour>
      <contour>
        <pt x="233" y="327" on="1"/>
        <pt x="233" y="286" on="0"/>
        <pt x="245" y="251" on="1"/>
        <pt x="528" y="583" on="1"/>
        <pt x="499" y="595" on="0"/>
        <pt x="463" y="595" on="1"/>
        <pt x="409" y="595" on="0"/>
        <pt x="323" y="547" on="0"/>
        <pt x="264" y="469" on="0"/>
        <pt x="233" y="374" on="0"/>
      </contour>
      <contour>
        <pt x="398" y="144" on="1"/>
        <pt x="453" y="144" on="0"/>
        <pt x="538" y="191" on="0"/>
        <pt x="597" y="270" on="0"/>
        <pt x="628" y="364" on="0"/>
        <pt x="628" y="411" on="1"/>
        <pt x="628" y="453" on="0"/>
        <pt x="615" y="489" on="1"/>
        <pt x="332" y="156" on="1"/>
        <pt x="361" y="144" on="0"/>
      </contour>
    </TTGlyph>
    <TTGlyph name="Otilde" xMin="57" yMin="-10" xMax="803" yMax="982">
      <contour>
        <pt x="585" y="823" on="1"/>
        <pt x="558" y="823" on="0"/>
        <pt x="519" y="841" on="0"/>
        <pt x="489" y="866" on="0"/>
        <pt x="464" y="884" on="0"/>
        <pt x="450" y="884" on="1"/>
        <pt x="424" y="884" on="0"/>
        <pt x="413" y="829" on="1"/>
        <pt x="326" y="829" on="1"/>
        <pt x="334" y="868" on="0"/>
        <pt x="360" y="938" on="0"/>
        <pt x="410" y="982" on="0"/>
        <pt x="452" y="982" on="1"/>
        <pt x="479" y="982" on="0"/>
        <pt x="519" y="964" on="0"/>
        <pt x="548" y="940" on="0"/>
        <pt x="573" y="921" on="0"/>
        <pt x="586" y="921" on="1"/>
        <pt x="601" y="921" on="0"/>
        <pt x="618" y="949" on="0"/>
        <pt x="624" y="976" on="1"/>
        <pt x="711" y="976" on="1"/>
        <pt x="703" y="937" on="0"/>
        <pt x="676" y="867" on="0"/>
        <pt x="627" y="823" on="0"/>
      </contour>
      <contour>
        <pt x="391" y="-10" on="1"/>
        <pt x="305" y="-10" on="0"/>
        <pt x="180" y="45" on="0"/>
        <pt x="97" y="139" on="0"/>
        <pt x="57" y="259" on="0"/>
        <pt x="57" y="324" on="1"/>
        <pt x="57" y="401" on="0"/>
        <pt x="111" y="552" on="0"/>
        <pt x="216" y="676" on="0"/>
        <pt x="370" y="750" on="0"/>
        <pt x="470" y="750" on="1"/>
        <pt x="555" y="750" on="0"/>
        <pt x="680" y="695" on="0"/>
        <pt x="763" y="601" on="0"/>
        <pt x="803" y="481" on="0"/>
        <pt x="803" y="416" on="1"/>
        <pt x="803" y="339" on="0"/>
        <pt x="749" y="188" on="0"/>
        <pt x="644" y="64" on="0"/>
        <pt x="490" y="-10" on="0"/>
      </contour>
      <contour>
        <pt x="398" y="145" on="1"/>
        <pt x="453" y="145" on="0"/>
        <pt x="538" y="192" on="0"/>
        <pt x="597" y="271" on="0"/>
        <pt x="628" y="365" on="0"/>
        <pt x="628" y="412" on="1"/>
        <pt x="628" y="461" on="0"/>
        <pt x="593" y="544" on="0"/>
        <pt x="520" y="595" on="0"/>
        <pt x="463" y="595" on="1"/>
        <pt x="409" y="595" on="0"/>
        <pt x="323" y="548" on="0"/>
        <pt x="264" y="469" on="0"/>
        <pt x="233" y="375" on="0"/>
        <pt x="233" y="328" on="1"/>
        <pt x="233" y="279" on="0"/>
        <pt x="268" y="196" on="0"/>
        <pt x="341" y="145" on="0"/>
      </contour>
    </TTGlyph>
    <TTGlyph name="P" xMin="7" yMin="0" xMax="707" yMax="740">
      <contour>
        <pt x="7" y="0" on="1"/>
        <pt x="164" y="740" on="1"/>
        <pt x="450" y="740" on="1"/>
        <pt x="538" y="740" on="0"/>
        <pt x="651" y="676" on="0"/>
        <pt x="707" y="572" on="0"/>
        <pt x="707" y="514" on="1"/>
        <pt x="707" y="465" on="0"/>
        <pt x="668" y="369" on="0"/>
        <pt x="592" y="290" on="0"/>
        <pt x="480" y="242" on="0"/>
        <pt x="408" y="242" on="1"/>
        <pt x="232" y="242" on="1"/>
        <pt x="181" y="0" on="1"/>
      </contour>
      <contour>
        <pt x="431" y="589" on="1"/>
        <pt x="306" y="589" on="1"/>
        <pt x="264" y="392" on="1"/>
        <pt x="416" y="392" on="1"/>
        <pt x="453" y="392" on="0"/>
        <pt x="505" y="425" on="0"/>
        <pt x="533" y="474" on="0"/>
        <pt x="533" y="500" on="1"/>
        <pt x="533" y="535" on="0"/>
        <pt x="483" y="589" on="0"/>
      </contour>
    </TTGlyph>
    <TTGlyph name="Q" xMin="57" yMin="-10" xMax="803" yMax="750">
      <contour>
        <pt x="391" y="-10" on="1"/>
        <pt x="305" y="-10" on="0"/>
        <pt x="180" y="45" on="0"/>
        <pt x="97" y="139" on="0"/>
        <pt x="57" y="259" on="0"/>
        <pt x="57" y="324" on="1"/>
        <pt x="57" y="401" on="0"/>
        <pt x="111" y="552" on="0"/>
        <pt x="216" y="676" on="0"/>
        <pt x="370" y="750" on="0"/>
        <pt x="470" y="750" on="1"/>
        <pt x="555" y="750" on="0"/>
        <pt x="680" y="695" on="0"/>
        <pt x="763" y="601" on="0"/>
        <pt x="803" y="481" on="0"/>
        <pt x="803" y="416" on="1"/>
        <pt x="803" y="339" on="0"/>
        <pt x="748" y="185" on="0"/>
        <pt x="695" y="124" on="1"/>
        <pt x="782" y="0" on="1"/>
        <pt x="604" y="0" on="1"/>
        <pt x="580" y="34" on="1"/>
        <pt x="539" y="13" on="0"/>
        <pt x="445" y="-10" on="0"/>
      </contour>
      <contour>
        <pt x="398" y="145" on="1"/>
        <pt x="444" y="145" on="0"/>
        <pt x="485" y="164" on="1"/>
        <pt x="393" y="289" on="1"/>
        <pt x="519" y="376" on="1"/>
        <pt x="593" y="271" on="1"/>
        <pt x="628" y="337" on="0"/>
        <pt x="628" y="412" on="1"/>
        <pt x="628" y="461" on="0"/>
        <pt x="593" y="544" on="0"/>
        <pt x="520" y="595" on="0"/>
        <pt x="463" y="595" on="1"/>
        <pt x="409" y="595" on="0"/>
        <pt x="323" y="548" on="0"/>
        <pt x="264" y="469" on="0"/>
        <pt x="233" y="375" on="0"/>
        <pt x="233" y="328" on="1"/>
        <pt x="233" y="279" on="0"/>
        <pt x="268" y="196" on="0"/>
        <pt x="341" y="145" on="0"/>
      </contour>
    </TTGlyph>
    <TTGlyph name="R" xMin="7" yMin="0" xMax="708" yMax="740">
      <contour>
        <pt x="7" y="0" on="1"/>
        <pt x="164" y="740" on="1"/>
        <pt x="449" y="740" on="1"/>
        <pt x="537" y="740" on="0"/>
        <pt x="652" y="678" on="0"/>
        <pt x="708" y="580" on="0"/>
        <pt x="708" y="525" on="1"/>
        <pt x="708" y="476" on="0"/>
        <pt x="665" y="381" on="0"/>
        <pt x="579" y="307" on="0"/>
        <pt x="517" y="290" on="1"/>
        <pt x="609" y="0" on="1"/>
        <pt x="432" y="0" on="1"/>
        <pt x="348" y="277" on="1"/>
        <pt x="239" y="277" on="1"/>
        <pt x="181" y="0" on="1"/>
      </contour>
      <contour>
        <pt x="443" y="591" on="1"/>
        <pt x="306" y="591" on="1"/>
        <pt x="269" y="416" on="1"/>
        <pt x="426" y="416" on="1"/>
        <pt x="480" y="416" on="0"/>
        <pt x="537" y="476" on="0"/>
        <pt x="537" y="511" on="1"/>
        <pt x="537" y="542" on="0"/>
        <pt x="490" y="591" on="0"/>
      </contour>
    </TTGlyph>
    <TTGlyph name="Racute" xMin="7" yMin="0" xMax="708" yMax="991">
      <contour>
        <pt x="503" y="811" on="1"/>
        <pt x="381" y="812" on="1"/>
        <pt x="461" y="991" on="1"/>
        <pt x="616" y="991" on="1"/>
      </contour>
      <contour>
        <pt x="7" y="0" on="1"/>
        <pt x="164" y="740" on="1"/>
        <pt x="449" y="740" on="1"/>
        <pt x="537" y="740" on="0"/>
        <pt x="652" y="678" on="0"/>
        <pt x="708" y="580" on="0"/>
        <pt x="708" y="525" on="1"/>
        <pt x="708" y="476" on="0"/>
        <pt x="665" y="381" on="0"/>
        <pt x="579" y="307" on="0"/>
        <pt x="517" y="290" on="1"/>
        <pt x="609" y="0" on="1"/>
        <pt x="432" y="0" on="1"/>
        <pt x="348" y="277" on="1"/>
        <pt x="239" y="277" on="1"/>
        <pt x="181" y="0" on="1"/>
      </contour>
      <contour>
        <pt x="443" y="591" on="1"/>
        <pt x="306" y="591" on="1"/>
        <pt x="269" y="416" on="1"/>
        <pt x="426" y="416" on="1"/>
        <pt x="480" y="416" on="0"/>
        <pt x="537" y="476" on="0"/>
        <pt x="537" y="511" on="1"/>
        <pt x="537" y="542" on="0"/>
        <pt x="490" y="591" on="0"/>
      </contour>
    </TTGlyph>
    <TTGlyph name="Rcaron" xMin="7" yMin="0" xMax="708" yMax="988">
      <contour>
        <pt x="366" y="803" on="1"/>
        <pt x="273" y="988" on="1"/>
        <pt x="396" y="988" on="1"/>
        <pt x="443" y="885" on="1"/>
        <pt x="535" y="988" on="1"/>
        <pt x="671" y="988" on="1"/>
        <pt x="500" y="803" on="1"/>
      </contour>
      <contour>
        <pt x="7" y="0" on="1"/>
        <pt x="164" y="740" on="1"/>
        <pt x="449" y="740" on="1"/>
        <pt x="537" y="740" on="0"/>
        <pt x="652" y="678" on="0"/>
        <pt x="708" y="580" on="0"/>
        <pt x="708" y="525" on="1"/>
        <pt x="708" y="476" on="0"/>
        <pt x="665" y="381" on="0"/>
        <pt x="579" y="307" on="0"/>
        <pt x="517" y="290" on="1"/>
        <pt x="609" y="0" on="1"/>
        <pt x="432" y="0" on="1"/>
        <pt x="348" y="277" on="1"/>
        <pt x="239" y="277" on="1"/>
        <pt x="181" y="0" on="1"/>
      </contour>
      <contour>
        <pt x="443" y="591" on="1"/>
        <pt x="306" y="591" on="1"/>
        <pt x="269" y="416" on="1"/>
        <pt x="426" y="416" on="1"/>
        <pt x="480" y="416" on="0"/>
        <pt x="537" y="476" on="0"/>
        <pt x="537" y="511" on="1"/>
        <pt x="537" y="542" on="0"/>
        <pt x="490" y="591" on="0"/>
      </contour>
    </TTGlyph>
    <TTGlyph name="S" xMin="23" yMin="-10" xMax="696" yMax="750">
      <contour>
        <pt x="330" y="-10" on="1"/>
        <pt x="253" y="-10" on="0"/>
        <pt x="147" y="25" on="0"/>
        <pt x="80" y="81" on="0"/>
        <pt x="43" y="144" on="0"/>
        <pt x="27" y="199" on="0"/>
        <pt x="23" y="235" on="0"/>
        <pt x="23" y="235" on="1"/>
        <pt x="194" y="235" on="1"/>
        <pt x="194" y="235" on="0"/>
        <pt x="202" y="203" on="0"/>
        <pt x="228" y="162" on="0"/>
        <pt x="286" y="130" on="0"/>
        <pt x="337" y="130" on="1"/>
        <pt x="393" y="130" on="0"/>
        <pt x="460" y="178" on="0"/>
        <pt x="460" y="216" on="1"/>
        <pt x="460" y="244" on="0"/>
        <pt x="420" y="281" on="0"/>
        <pt x="382" y="293" on="1"/>
        <pt x="301" y="318" on="1"/>
        <pt x="222" y="341" on="0"/>
        <pt x="118" y="438" on="0"/>
        <pt x="118" y="520" on="1"/>
        <pt x="118" y="582" on="0"/>
        <pt x="184" y="686" on="0"/>
        <pt x="313" y="750" on="0"/>
        <pt x="406" y="750" on="1"/>
        <pt x="476" y="750" on="0"/>
        <pt x="573" y="717" on="0"/>
        <pt x="636" y="666" on="0"/>
        <pt x="673" y="608" on="0"/>
        <pt x="691" y="556" on="0"/>
        <pt x="696" y="524" on="0"/>
        <pt x="696" y="524" on="1"/>
        <pt x="529" y="524" on="1"/>
        <pt x="529" y="524" on="0"/>
        <pt x="522" y="551" on="0"/>
        <pt x="498" y="586" on="0"/>
        <pt x="449" y="613" on="0"/>
        <pt x="406" y="613" on="1"/>
        <pt x="350" y="613" on="0"/>
        <pt x="290" y="565" on="0"/>
        <pt x="290" y="530" on="1"/>
        <pt x="290" y="501" on="0"/>
        <pt x="331" y="464" on="0"/>
        <pt x="367" y="453" on="1"/>
        <pt x="441" y="430" on="1"/>
        <pt x="529" y="403" on="0"/>
        <pt x="633" y="303" on="0"/>
        <pt x="633" y="224" on="1"/>
        <pt x="633" y="162" on="0"/>
        <pt x="562" y="55" on="0"/>
        <pt x="427" y="-10" on="0"/>
      </contour>
    </TTGlyph>
    <TTGlyph name="Sacute" xMin="23" yMin="-10" xMax="696" yMax="991">
      <contour>
        <pt x="530" y="811" on="1"/>
        <pt x="408" y="812" on="1"/>
        <pt x="488" y="991" on="1"/>
        <pt x="643" y="991" on="1"/>
      </contour>
      <contour>
        <pt x="330" y="-10" on="1"/>
        <pt x="253" y="-10" on="0"/>
        <pt x="147" y="25" on="0"/>
        <pt x="80" y="81" on="0"/>
        <pt x="42" y="144" on="0"/>
        <pt x="26" y="199" on="0"/>
        <pt x="23" y="235" on="0"/>
        <pt x="23" y="235" on="1"/>
        <pt x="194" y="235" on="1"/>
        <pt x="194" y="235" on="0"/>
        <pt x="201" y="203" on="0"/>
        <pt x="228" y="162" on="0"/>
        <pt x="286" y="130" on="0"/>
        <pt x="336" y="130" on="1"/>
        <pt x="393" y="130" on="0"/>
        <pt x="460" y="178" on="0"/>
        <pt x="460" y="216" on="1"/>
        <pt x="460" y="244" on="0"/>
        <pt x="419" y="281" on="0"/>
        <pt x="382" y="293" on="1"/>
        <pt x="301" y="318" on="1"/>
        <pt x="222" y="341" on="0"/>
        <pt x="118" y="438" on="0"/>
        <pt x="118" y="520" on="1"/>
        <pt x="118" y="582" on="0"/>
        <pt x="184" y="686" on="0"/>
        <pt x="312" y="750" on="0"/>
        <pt x="406" y="750" on="1"/>
        <pt x="475" y="750" on="0"/>
        <pt x="573" y="717" on="0"/>
        <pt x="636" y="666" on="0"/>
        <pt x="673" y="608" on="0"/>
        <pt x="691" y="556" on="0"/>
        <pt x="696" y="524" on="0"/>
        <pt x="696" y="524" on="1"/>
        <pt x="529" y="524" on="1"/>
        <pt x="529" y="524" on="0"/>
        <pt x="522" y="551" on="0"/>
        <pt x="498" y="586" on="0"/>
        <pt x="449" y="613" on="0"/>
        <pt x="406" y="613" on="1"/>
        <pt x="350" y="613" on="0"/>
        <pt x="289" y="565" on="0"/>
        <pt x="289" y="530" on="1"/>
        <pt x="289" y="501" on="0"/>
        <pt x="330" y="464" on="0"/>
        <pt x="366" y="453" on="1"/>
        <pt x="441" y="430" on="1"/>
        <pt x="529" y="403" on="0"/>
        <pt x="633" y="303" on="0"/>
        <pt x="633" y="224" on="1"/>
        <pt x="633" y="162" on="0"/>
        <pt x="562" y="55" on="0"/>
        <pt x="427" y="-10" on="0"/>
      </contour>
    </TTGlyph>
    <TTGlyph name="Scaron" xMin="23" yMin="-10" xMax="698" yMax="988">
      <contour>
        <pt x="393" y="803" on="1"/>
        <pt x="300" y="988" on="1"/>
        <pt x="423" y="988" on="1"/>
        <pt x="470" y="885" on="1"/>
        <pt x="561" y="988" on="1"/>
        <pt x="698" y="988" on="1"/>
        <pt x="527" y="803" on="1"/>
      </contour>
      <contour>
        <pt x="330" y="-10" on="1"/>
        <pt x="253" y="-10" on="0"/>
        <pt x="147" y="25" on="0"/>
        <pt x="80" y="81" on="0"/>
        <pt x="42" y="144" on="0"/>
        <pt x="26" y="199" on="0"/>
        <pt x="23" y="235" on="0"/>
        <pt x="23" y="235" on="1"/>
        <pt x="194" y="235" on="1"/>
        <pt x="194" y="235" on="0"/>
        <pt x="201" y="203" on="0"/>
        <pt x="228" y="162" on="0"/>
        <pt x="286" y="130" on="0"/>
        <pt x="336" y="130" on="1"/>
        <pt x="393" y="130" on="0"/>
        <pt x="460" y="178" on="0"/>
        <pt x="460" y="216" on="1"/>
        <pt x="460" y="244" on="0"/>
        <pt x="419" y="281" on="0"/>
        <pt x="382" y="293" on="1"/>
        <pt x="301" y="318" on="1"/>
        <pt x="222" y="341" on="0"/>
        <pt x="118" y="438" on="0"/>
        <pt x="118" y="520" on="1"/>
        <pt x="118" y="582" on="0"/>
        <pt x="184" y="686" on="0"/>
        <pt x="312" y="750" on="0"/>
        <pt x="406" y="750" on="1"/>
        <pt x="475" y="750" on="0"/>
        <pt x="573" y="717" on="0"/>
        <pt x="636" y="666" on="0"/>
        <pt x="673" y="608" on="0"/>
        <pt x="691" y="556" on="0"/>
        <pt x="696" y="524" on="0"/>
        <pt x="696" y="524" on="1"/>
        <pt x="529" y="524" on="1"/>
        <pt x="529" y="524" on="0"/>
        <pt x="522" y="551" on="0"/>
        <pt x="498" y="586" on="0"/>
        <pt x="449" y="613" on="0"/>
        <pt x="406" y="613" on="1"/>
        <pt x="350" y="613" on="0"/>
        <pt x="289" y="565" on="0"/>
        <pt x="289" y="530" on="1"/>
        <pt x="289" y="501" on="0"/>
        <pt x="330" y="464" on="0"/>
        <pt x="366" y="453" on="1"/>
        <pt x="441" y="430" on="1"/>
        <pt x="529" y="403" on="0"/>
        <pt x="633" y="303" on="0"/>
        <pt x="633" y="224" on="1"/>
        <pt x="633" y="162" on="0"/>
        <pt x="562" y="55" on="0"/>
        <pt x="427" y="-10" on="0"/>
      </contour>
    </TTGlyph>
    <TTGlyph name="Scedilla" xMin="23" yMin="-262" xMax="696" yMax="750">
      <contour>
        <pt x="266" y="-262" on="1"/>
        <pt x="233" y="-262" on="0"/>
        <pt x="180" y="-254" on="0"/>
        <pt x="180" y="-254" on="1"/>
        <pt x="194" y="-166" on="1"/>
        <pt x="194" y="-166" on="0"/>
        <pt x="219" y="-169" on="0"/>
        <pt x="254" y="-172" on="0"/>
        <pt x="268" y="-172" on="1"/>
        <pt x="303" y="-172" on="0"/>
        <pt x="329" y="-149" on="0"/>
        <pt x="329" y="-135" on="1"/>
        <pt x="329" y="-123" on="0"/>
        <pt x="309" y="-105" on="0"/>
        <pt x="289" y="-105" on="1"/>
        <pt x="271" y="-105" on="0"/>
        <pt x="246" y="-117" on="0"/>
        <pt x="246" y="-117" on="1"/>
        <pt x="204" y="-64" on="1"/>
        <pt x="258" y="-5" on="1"/>
        <pt x="187" y="5" on="0"/>
        <pt x="98" y="60" on="0"/>
        <pt x="49" y="128" on="0"/>
        <pt x="27" y="193" on="0"/>
        <pt x="23" y="235" on="0"/>
        <pt x="23" y="235" on="1"/>
        <pt x="194" y="235" on="1"/>
        <pt x="194" y="235" on="0"/>
        <pt x="201" y="203" on="0"/>
        <pt x="228" y="162" on="0"/>
        <pt x="286" y="130" on="0"/>
        <pt x="336" y="130" on="1"/>
        <pt x="393" y="130" on="0"/>
        <pt x="460" y="178" on="0"/>
        <pt x="460" y="216" on="1"/>
        <pt x="460" y="244" on="0"/>
        <pt x="419" y="281" on="0"/>
        <pt x="382" y="293" on="1"/>
        <pt x="301" y="318" on="1"/>
        <pt x="222" y="341" on="0"/>
        <pt x="118" y="438" on="0"/>
        <pt x="118" y="520" on="1"/>
        <pt x="118" y="582" on="0"/>
        <pt x="184" y="686" on="0"/>
        <pt x="312" y="750" on="0"/>
        <pt x="406" y="750" on="1"/>
        <pt x="475" y="750" on="0"/>
        <pt x="573" y="717" on="0"/>
        <pt x="636" y="666" on="0"/>
        <pt x="673" y="608" on="0"/>
        <pt x="691" y="556" on="0"/>
        <pt x="696" y="524" on="0"/>
        <pt x="696" y="524" on="1"/>
        <pt x="529" y="524" on="1"/>
        <pt x="529" y="524" on="0"/>
        <pt x="522" y="551" on="0"/>
        <pt x="498" y="586" on="0"/>
        <pt x="449" y="613" on="0"/>
        <pt x="406" y="613" on="1"/>
        <pt x="350" y="613" on="0"/>
        <pt x="289" y="565" on="0"/>
        <pt x="289" y="530" on="1"/>
        <pt x="289" y="501" on="0"/>
        <pt x="330" y="464" on="0"/>
        <pt x="366" y="453" on="1"/>
        <pt x="441" y="430" on="1"/>
        <pt x="529" y="403" on="0"/>
        <pt x="633" y="303" on="0"/>
        <pt x="633" y="224" on="1"/>
        <pt x="633" y="165" on="0"/>
        <pt x="569" y="63" on="0"/>
        <pt x="447" y="-4" on="0"/>
        <pt x="360" y="-9" on="1"/>
        <pt x="333" y="-37" on="1"/>
        <pt x="334" y="-37" on="1"/>
        <pt x="385" y="-37" on="0"/>
        <pt x="445" y="-96" on="0"/>
        <pt x="445" y="-137" on="1"/>
        <pt x="445" y="-167" on="0"/>
        <pt x="408" y="-225" on="0"/>
        <pt x="329" y="-262" on="0"/>
      </contour>
    </TTGlyph>
    <TTGlyph name="T" xMin="94" yMin="0" xMax="753" yMax="740">
      <contour>
        <pt x="197" y="0" on="1"/>
        <pt x="322" y="590" on="1"/>
        <pt x="94" y="590" on="1"/>
        <pt x="125" y="740" on="1"/>
        <pt x="753" y="740" on="1"/>
        <pt x="722" y="590" on="1"/>
        <pt x="496" y="590" on="1"/>
        <pt x="370" y="0" on="1"/>
      </contour>
    </TTGlyph>
    <TTGlyph name="Tbar" xMin="94" yMin="0" xMax="749" yMax="740">
      <contour>
        <pt x="195" y="0" on="1"/>
        <pt x="262" y="316" on="1"/>
        <pt x="97" y="316" on="1"/>
        <pt x="120" y="425" on="1"/>
        <pt x="285" y="425" on="1"/>
        <pt x="320" y="590" on="1"/>
        <pt x="94" y="590" on="1"/>
        <pt x="125" y="740" on="1"/>
        <pt x="749" y="740" on="1"/>
        <pt x="718" y="590" on="1"/>
        <pt x="494" y="590" on="1"/>
        <pt x="459" y="425" on="1"/>
        <pt x="635" y="425" on="1"/>
        <pt x="612" y="316" on="1"/>
        <pt x="435" y="316" on="1"/>
        <pt x="368" y="0" on="1"/>
      </contour>
    </TTGlyph>
    <TTGlyph name="Tcaron" xMin="94" yMin="0" xMax="749" yMax="988">
      <contour>
        <pt x="381" y="803" on="1"/>
        <pt x="287" y="988" on="1"/>
        <pt x="411" y="988" on="1"/>
        <pt x="457" y="885" on="1"/>
        <pt x="549" y="988" on="1"/>
        <pt x="686" y="988" on="1"/>
        <pt x="514" y="803" on="1"/>
      </contour>
      <contour>
        <pt x="195" y="0" on="1"/>
        <pt x="320" y="590" on="1"/>
        <pt x="94" y="590" on="1"/>
        <pt x="125" y="740" on="1"/>
        <pt x="749" y="740" on="1"/>
        <pt x="718" y="590" on="1"/>
        <pt x="494" y="590" on="1"/>
        <pt x="368" y="0" on="1"/>
      </contour>
    </TTGlyph>
    <TTGlyph name="Thorn" xMin="7" yMin="0" xMax="687" yMax="740">
      <contour>
        <pt x="7" y="0" on="1"/>
        <pt x="164" y="740" on="1"/>
        <pt x="338" y="740" on="1"/>
        <pt x="312" y="619" on="1"/>
        <pt x="430" y="619" on="1"/>
        <pt x="517" y="619" on="0"/>
        <pt x="631" y="555" on="0"/>
        <pt x="687" y="452" on="0"/>
        <pt x="687" y="394" on="1"/>
        <pt x="687" y="344" on="0"/>
        <pt x="648" y="248" on="0"/>
        <pt x="572" y="169" on="0"/>
        <pt x="460" y="122" on="0"/>
        <pt x="387" y="122" on="1"/>
        <pt x="206" y="122" on="1"/>
        <pt x="181" y="0" on="1"/>
      </contour>
      <contour>
        <pt x="411" y="468" on="1"/>
        <pt x="280" y="468" on="1"/>
        <pt x="238" y="272" on="1"/>
        <pt x="395" y="272" on="1"/>
        <pt x="433" y="272" on="0"/>
        <pt x="485" y="304" on="0"/>
        <pt x="512" y="354" on="0"/>
        <pt x="512" y="379" on="1"/>
        <pt x="512" y="414" on="0"/>
        <pt x="463" y="468" on="0"/>
      </contour>
    </TTGlyph>
    <TTGlyph name="U" xMin="55" yMin="-10" xMax="770" yMax="740">
      <contour>
        <pt x="320" y="-10" on="1"/>
        <pt x="263" y="-10" on="0"/>
        <pt x="159" y="26" on="0"/>
        <pt x="84" y="104" on="0"/>
        <pt x="55" y="227" on="0"/>
        <pt x="74" y="313" on="1"/>
        <pt x="164" y="740" on="1"/>
        <pt x="338" y="740" on="1"/>
        <pt x="247" y="311" on="1"/>
        <pt x="231" y="237" on="0"/>
        <pt x="284" y="153" on="0"/>
        <pt x="350" y="153" on="1"/>
        <pt x="413" y="153" on="0"/>
        <pt x="490" y="235" on="0"/>
        <pt x="506" y="311" on="1"/>
        <pt x="597" y="740" on="1"/>
        <pt x="770" y="740" on="1"/>
        <pt x="676" y="295" on="1"/>
        <pt x="652" y="181" on="0"/>
        <pt x="549" y="48" on="0"/>
        <pt x="405" y="-10" on="0"/>
      </contour>
    </TTGlyph>
    <TTGlyph name="Uacute" xMin="55" yMin="-10" xMax="770" yMax="991">
      <contour>
        <pt x="552" y="811" on="1"/>
        <pt x="430" y="812" on="1"/>
        <pt x="510" y="991" on="1"/>
        <pt x="665" y="991" on="1"/>
      </contour>
      <contour>
        <pt x="320" y="-10" on="1"/>
        <pt x="263" y="-10" on="0"/>
        <pt x="159" y="26" on="0"/>
        <pt x="84" y="104" on="0"/>
        <pt x="55" y="227" on="0"/>
        <pt x="74" y="313" on="1"/>
        <pt x="164" y="740" on="1"/>
        <pt x="338" y="740" on="1"/>
        <pt x="247" y="311" on="1"/>
        <pt x="231" y="237" on="0"/>
        <pt x="284" y="153" on="0"/>
        <pt x="350" y="153" on="1"/>
        <pt x="413" y="153" on="0"/>
        <pt x="490" y="235" on="0"/>
        <pt x="506" y="311" on="1"/>
        <pt x="597" y="740" on="1"/>
        <pt x="770" y="740" on="1"/>
        <pt x="676" y="295" on="1"/>
        <pt x="652" y="181" on="0"/>
        <pt x="549" y="48" on="0"/>
        <pt x="405" y="-10" on="0"/>
      </contour>
    </TTGlyph>
    <TTGlyph name="Ucircumflex" xMin="55" yMin="-10" xMax="770" yMax="987">
      <contour>
        <pt x="281" y="802" on="1"/>
        <pt x="452" y="987" on="1"/>
        <pt x="586" y="987" on="1"/>
        <pt x="679" y="802" on="1"/>
        <pt x="556" y="802" on="1"/>
        <pt x="509" y="905" on="1"/>
        <pt x="417" y="802" on="1"/>
      </contour>
      <contour>
        <pt x="320" y="-10" on="1"/>
        <pt x="263" y="-10" on="0"/>
        <pt x="159" y="26" on="0"/>
        <pt x="84" y="104" on="0"/>
        <pt x="55" y="227" on="0"/>
        <pt x="74" y="313" on="1"/>
        <pt x="164" y="740" on="1"/>
        <pt x="338" y="740" on="1"/>
        <pt x="247" y="311" on="1"/>
        <pt x="231" y="237" on="0"/>
        <pt x="284" y="153" on="0"/>
        <pt x="350" y="153" on="1"/>
        <pt x="413" y="153" on="0"/>
        <pt x="490" y="235" on="0"/>
        <pt x="506" y="311" on="1"/>
        <pt x="597" y="740" on="1"/>
        <pt x="770" y="740" on="1"/>
        <pt x="676" y="295" on="1"/>
        <pt x="652" y="181" on="0"/>
        <pt x="549" y="48" on="0"/>
        <pt x="405" y="-10" on="0"/>
      </contour>
    </TTGlyph>
    <TTGlyph name="Udieresis" xMin="55" yMin="-10" xMax="770" yMax="975">
      <contour>
        <pt x="616" y="794" on="1"/>
        <pt x="575" y="794" on="0"/>
        <pt x="522" y="848" on="0"/>
        <pt x="522" y="885" on="1"/>
        <pt x="522" y="922" on="0"/>
        <pt x="575" y="975" on="0"/>
        <pt x="616" y="975" on="1"/>
        <pt x="657" y="975" on="0"/>
        <pt x="710" y="922" on="0"/>
        <pt x="710" y="885" on="1"/>
        <pt x="710" y="848" on="0"/>
        <pt x="657" y="794" on="0"/>
      </contour>
      <contour>
        <pt x="378" y="794" on="1"/>
        <pt x="337" y="794" on="0"/>
        <pt x="284" y="848" on="0"/>
        <pt x="284" y="885" on="1"/>
        <pt x="284" y="922" on="0"/>
        <pt x="337" y="975" on="0"/>
        <pt x="378" y="975" on="1"/>
        <pt x="419" y="975" on="0"/>
        <pt x="472" y="922" on="0"/>
        <pt x="472" y="885" on="1"/>
        <pt x="472" y="848" on="0"/>
        <pt x="419" y="794" on="0"/>
      </contour>
      <contour>
        <pt x="320" y="-10" on="1"/>
        <pt x="263" y="-10" on="0"/>
        <pt x="159" y="26" on="0"/>
        <pt x="84" y="104" on="0"/>
        <pt x="55" y="227" on="0"/>
        <pt x="74" y="313" on="1"/>
        <pt x="164" y="740" on="1"/>
        <pt x="338" y="740" on="1"/>
        <pt x="247" y="311" on="1"/>
        <pt x="231" y="237" on="0"/>
        <pt x="284" y="153" on="0"/>
        <pt x="350" y="153" on="1"/>
        <pt x="413" y="153" on="0"/>
        <pt x="490" y="235" on="0"/>
        <pt x="506" y="311" on="1"/>
        <pt x="597" y="740" on="1"/>
        <pt x="770" y="740" on="1"/>
        <pt x="676" y="295" on="1"/>
        <pt x="652" y="181" on="0"/>
        <pt x="549" y="48" on="0"/>
        <pt x="405" y="-10" on="0"/>
      </contour>
    </TTGlyph>
    <TTGlyph name="Ugrave" xMin="55" yMin="-10" xMax="770" yMax="991">
      <contour>
        <pt x="413" y="811" on="1"/>
        <pt x="313" y="991" on="1"/>
        <pt x="464" y="991" on="1"/>
        <pt x="531" y="812" on="1"/>
      </contour>
      <contour>
        <pt x="320" y="-10" on="1"/>
        <pt x="263" y="-10" on="0"/>
        <pt x="159" y="26" on="0"/>
        <pt x="84" y="104" on="0"/>
        <pt x="55" y="227" on="0"/>
        <pt x="74" y="313" on="1"/>
        <pt x="164" y="740" on="1"/>
        <pt x="338" y="740" on="1"/>
        <pt x="247" y="311" on="1"/>
        <pt x="231" y="237" on="0"/>
        <pt x="284" y="153" on="0"/>
        <pt x="350" y="153" on="1"/>
        <pt x="413" y="153" on="0"/>
        <pt x="490" y="235" on="0"/>
        <pt x="506" y="311" on="1"/>
        <pt x="597" y="740" on="1"/>
        <pt x="770" y="740" on="1"/>
        <pt x="676" y="295" on="1"/>
        <pt x="652" y="181" on="0"/>
        <pt x="549" y="48" on="0"/>
        <pt x="405" y="-10" on="0"/>
      </contour>
    </TTGlyph>
    <TTGlyph name="Uhorn" xMin="55" yMin="-10" xMax="920" yMax="855">
      <contour>
        <pt x="320" y="-10" on="1"/>
        <pt x="263" y="-10" on="0"/>
        <pt x="159" y="26" on="0"/>
        <pt x="84" y="104" on="0"/>
        <pt x="55" y="227" on="0"/>
        <pt x="74" y="313" on="1"/>
        <pt x="164" y="740" on="1"/>
        <pt x="338" y="740" on="1"/>
        <pt x="247" y="311" on="1"/>
        <pt x="231" y="237" on="0"/>
        <pt x="284" y="153" on="0"/>
        <pt x="350" y="153" on="1"/>
        <pt x="413" y="153" on="0"/>
        <pt x="490" y="235" on="0"/>
        <pt x="506" y="311" on="1"/>
        <pt x="597" y="740" on="1"/>
        <pt x="709" y="740" on="1"/>
        <pt x="752" y="740" on="0"/>
        <pt x="760" y="780" on="1"/>
        <pt x="776" y="855" on="1"/>
        <pt x="920" y="855" on="1"/>
        <pt x="898" y="754" on="1"/>
        <pt x="887" y="704" on="0"/>
        <pt x="826" y="649" on="0"/>
        <pt x="767" y="649" on="1"/>
        <pt x="751" y="649" on="1"/>
        <pt x="676" y="295" on="1"/>
        <pt x="652" y="181" on="0"/>
        <pt x="549" y="48" on="0"/>
        <pt x="405" y="-10" on="0"/>
      </contour>
    </TTGlyph>
    <TTGlyph name="Uhungarumlaut" xMin="55" yMin="-10" xMax="770" yMax="991">
      <contour>
        <pt x="438" y="811" on="1"/>
        <pt x="325" y="812" on="1"/>
        <pt x="406" y="991" on="1"/>
        <pt x="552" y="991" on="1"/>
      </contour>
      <contour>
        <pt x="634" y="811" on="1"/>
        <pt x="519" y="812" on="1"/>
        <pt x="609" y="991" on="1"/>
        <pt x="758" y="991" on="1"/>
      </contour>
      <contour>
        <pt x="320" y="-10" on="1"/>
        <pt x="263" y="-10" on="0"/>
        <pt x="159" y="26" on="0"/>
        <pt x="84" y="104" on="0"/>
        <pt x="55" y="227" on="0"/>
        <pt x="74" y="313" on="1"/>
        <pt x="164" y="740" on="1"/>
        <pt x="338" y="740" on="1"/>
        <pt x="247" y="311" on="1"/>
        <pt x="231" y="237" on="0"/>
        <pt x="284" y="153" on="0"/>
        <pt x="350" y="153" on="1"/>
        <pt x="413" y="153" on="0"/>
        <pt x="490" y="235" on="0"/>
        <pt x="506" y="311" on="1"/>
        <pt x="597" y="740" on="1"/>
        <pt x="770" y="740" on="1"/>
        <pt x="676" y="295" on="1"/>
        <pt x="652" y="181" on="0"/>
        <pt x="549" y="48" on="0"/>
        <pt x="405" y="-10" on="0"/>
      </contour>
    </TTGlyph>
    <TTGlyph name="Umacron" xMin="55" yMin="-10" xMax="770" yMax="925">
      <contour>
        <pt x="317" y="829" on="1"/>
        <pt x="338" y="925" on="1"/>
        <pt x="671" y="925" on="1"/>
        <pt x="650" y="829" on="1"/>
      </contour>
      <contour>
        <pt x="320" y="-10" on="1"/>
        <pt x="263" y="-10" on="0"/>
        <pt x="159" y="26" on="0"/>
        <pt x="84" y="104" on="0"/>
        <pt x="55" y="227" on="0"/>
        <pt x="74" y="313" on="1"/>
        <pt x="164" y="740" on="1"/>
        <pt x="338" y="740" on="1"/>
        <pt x="247" y="311" on="1"/>
        <pt x="231" y="237" on="0"/>
        <pt x="284" y="153" on="0"/>
        <pt x="350" y="153" on="1"/>
        <pt x="413" y="153" on="0"/>
        <pt x="490" y="235" on="0"/>
        <pt x="506" y="311" on="1"/>
        <pt x="597" y="740" on="1"/>
        <pt x="770" y="740" on="1"/>
        <pt x="676" y="295" on="1"/>
        <pt x="652" y="181" on="0"/>
        <pt x="549" y="48" on="0"/>
        <pt x="405" y="-10" on="0"/>
      </contour>
    </TTGlyph>
    <TTGlyph name="Uogonek" xMin="53" yMin="-193" xMax="770" yMax="740">
      <contour>
        <pt x="316" y="-193" on="1"/>
        <pt x="249" y="-193" on="0"/>
        <pt x="185" y="-141" on="0"/>
        <pt x="185" y="-102" on="1"/>
        <pt x="185" y="-65" on="0"/>
        <pt x="227" y="-18" on="0"/>
        <pt x="253" y="-4" on="1"/>
        <pt x="191" y="8" on="0"/>
        <pt x="94" y="83" on="0"/>
        <pt x="53" y="215" on="0"/>
        <pt x="74" y="313" on="1"/>
        <pt x="164" y="740" on="1"/>
        <pt x="338" y="740" on="1"/>
        <pt x="247" y="311" on="1"/>
        <pt x="231" y="237" on="0"/>
        <pt x="284" y="153" on="0"/>
        <pt x="350" y="153" on="1"/>
        <pt x="413" y="153" on="0"/>
        <pt x="490" y="235" on="0"/>
        <pt x="506" y="311" on="1"/>
        <pt x="597" y="740" on="1"/>
        <pt x="770" y="740" on="1"/>
        <pt x="676" y="295" on="1"/>
        <pt x="654" y="192" on="0"/>
        <pt x="565" y="63" on="0"/>
        <pt x="440" y="-1" on="0"/>
        <pt x="366" y="-8" on="1"/>
        <pt x="357" y="-12" on="0"/>
        <pt x="331" y="-28" on="0"/>
        <pt x="310" y="-52" on="0"/>
        <pt x="310" y="-67" on="1"/>
        <pt x="310" y="-80" on="0"/>
        <pt x="332" y="-98" on="0"/>
        <pt x="357" y="-98" on="1"/>
        <pt x="369" y="-98" on="0"/>
        <pt x="390" y="-95" on="0"/>
        <pt x="390" y="-95" on="1"/>
        <pt x="371" y="-188" on="1"/>
        <pt x="371" y="-188" on="0"/>
        <pt x="341" y="-193" on="0"/>
      </contour>
    </TTGlyph>
    <TTGlyph name="Uring" xMin="55" yMin="-10" xMax="770" yMax="1069">
      <contour>
        <pt x="498" y="793" on="1"/>
        <pt x="460" y="793" on="0"/>
        <pt x="397" y="830" on="0"/>
        <pt x="360" y="893" on="0"/>
        <pt x="360" y="931" on="1"/>
        <pt x="360" y="969" on="0"/>
        <pt x="397" y="1032" on="0"/>
        <pt x="460" y="1069" on="0"/>
        <pt x="498" y="1069" on="1"/>
        <pt x="537" y="1069" on="0"/>
        <pt x="599" y="1032" on="0"/>
        <pt x="637" y="969" on="0"/>
        <pt x="637" y="931" on="1"/>
        <pt x="637" y="893" on="0"/>
        <pt x="599" y="830" on="0"/>
        <pt x="537" y="793" on="0"/>
      </contour>
      <contour>
        <pt x="498" y="878" on="1"/>
        <pt x="520" y="878" on="0"/>
        <pt x="551" y="909" on="0"/>
        <pt x="551" y="931" on="1"/>
        <pt x="551" y="953" on="0"/>
        <pt x="520" y="983" on="0"/>
        <pt x="498" y="983" on="1"/>
        <pt x="476" y="983" on="0"/>
        <pt x="445" y="953" on="0"/>
        <pt x="445" y="931" on="1"/>
        <pt x="445" y="909" on="0"/>
        <pt x="476" y="878" on="0"/>
      </contour>
      <contour>
        <pt x="320" y="-10" on="1"/>
        <pt x="263" y="-10" on="0"/>
        <pt x="159" y="26" on="0"/>
        <pt x="84" y="104" on="0"/>
        <pt x="55" y="227" on="0"/>
        <pt x="74" y="313" on="1"/>
        <pt x="164" y="740" on="1"/>
        <pt x="338" y="740" on="1"/>
        <pt x="247" y="311" on="1"/>
        <pt x="231" y="237" on="0"/>
        <pt x="284" y="153" on="0"/>
        <pt x="350" y="153" on="1"/>
        <pt x="413" y="153" on="0"/>
        <pt x="490" y="235" on="0"/>
        <pt x="506" y="311" on="1"/>
        <pt x="597" y="740" on="1"/>
        <pt x="770" y="740" on="1"/>
        <pt x="676" y="295" on="1"/>
        <pt x="652" y="181" on="0"/>
        <pt x="549" y="48" on="0"/>
        <pt x="405" y="-10" on="0"/>
      </contour>
    </TTGlyph>
    <TTGlyph name="Utilde" xMin="55" yMin="-10" xMax="770" yMax="982">
      <contour>
        <pt x="571" y="823" on="1"/>
        <pt x="544" y="823" on="0"/>
        <pt x="505" y="841" on="0"/>
        <pt x="475" y="866" on="0"/>
        <pt x="450" y="884" on="0"/>
        <pt x="437" y="884" on="1"/>
        <pt x="410" y="884" on="0"/>
        <pt x="399" y="829" on="1"/>
        <pt x="312" y="829" on="1"/>
        <pt x="320" y="868" on="0"/>
        <pt x="347" y="938" on="0"/>
        <pt x="396" y="982" on="0"/>
        <pt x="438" y="982" on="1"/>
        <pt x="466" y="982" on="0"/>
        <pt x="505" y="964" on="0"/>
        <pt x="535" y="940" on="0"/>
        <pt x="560" y="921" on="0"/>
        <pt x="573" y="921" on="1"/>
        <pt x="587" y="921" on="0"/>
        <pt x="604" y="949" on="0"/>
        <pt x="610" y="976" on="1"/>
        <pt x="697" y="976" on="1"/>
        <pt x="689" y="937" on="0"/>
        <pt x="662" y="867" on="0"/>
        <pt x="613" y="823" on="0"/>
      </contour>
      <contour>
        <pt x="320" y="-10" on="1"/>
        <pt x="263" y="-10" on="0"/>
        <pt x="159" y="26" on="0"/>
        <pt x="84" y="104" on="0"/>
        <pt x="55" y="227" on="0"/>
        <pt x="74" y="313" on="1"/>
        <pt x="164" y="740" on="1"/>
        <pt x="338" y="740" on="1"/>
        <pt x="247" y="311" on="1"/>
        <pt x="231" y="237" on="0"/>
        <pt x="284" y="153" on="0"/>
        <pt x="350" y="153" on="1"/>
        <pt x="413" y="153" on="0"/>
        <pt x="490" y="235" on="0"/>
        <pt x="506" y="311" on="1"/>
        <pt x="597" y="740" on="1"/>
        <pt x="770" y="740" on="1"/>
        <pt x="676" y="295" on="1"/>
        <pt x="652" y="181" on="0"/>
        <pt x="549" y="48" on="0"/>
        <pt x="405" y="-10" on="0"/>
      </contour>
    </TTGlyph>
    <TTGlyph name="V" xMin="107" yMin="0" xMax="836" yMax="740">
      <contour>
        <pt x="199" y="0" on="1"/>
        <pt x="107" y="740" on="1"/>
        <pt x="279" y="740" on="1"/>
        <pt x="341" y="167" on="1"/>
        <pt x="646" y="740" on="1"/>
        <pt x="836" y="740" on="1"/>
        <pt x="430" y="0" on="1"/>
      </contour>
    </TTGlyph>
    <TTGlyph name="W" xMin="117" yMin="0" xMax="1136" yMax="740">
      <contour>
        <pt x="141" y="0" on="1"/>
        <pt x="117" y="740" on="1"/>
        <pt x="282" y="740" on="1"/>
        <pt x="296" y="224" on="1"/>
        <pt x="530" y="740" on="1"/>
        <pt x="708" y="740" on="1"/>
        <pt x="726" y="223" on="1"/>
        <pt x="955" y="740" on="1"/>
        <pt x="1136" y="740" on="1"/>
        <pt x="799" y="0" on="1"/>
        <pt x="578" y="0" on="1"/>
        <pt x="563" y="449" on="1"/>
        <pt x="359" y="0" on="1"/>
      </contour>
    </TTGlyph>
    <TTGlyph name="Wacute" xMin="107" yMin="0" xMax="1126" yMax="991">
      <contour>
        <pt x="699" y="811" on="1"/>
        <pt x="577" y="812" on="1"/>
        <pt x="657" y="991" on="1"/>
        <pt x="812" y="991" on="1"/>
      </contour>
      <contour>
        <pt x="131" y="0" on="1"/>
        <pt x="107" y="740" on="1"/>
        <pt x="272" y="740" on="1"/>
        <pt x="286" y="224" on="1"/>
        <pt x="520" y="740" on="1"/>
        <pt x="698" y="740" on="1"/>
        <pt x="716" y="223" on="1"/>
        <pt x="945" y="740" on="1"/>
        <pt x="1126" y="740" on="1"/>
        <pt x="789" y="0" on="1"/>
        <pt x="568" y="0" on="1"/>
        <pt x="553" y="449" on="1"/>
        <pt x="349" y="0" on="1"/>
      </contour>
    </TTGlyph>
    <TTGlyph name="Wcircumflex" xMin="107" yMin="0" xMax="1126" yMax="987">
      <contour>
        <pt x="428" y="802" on="1"/>
        <pt x="599" y="987" on="1"/>
        <pt x="733" y="987" on="1"/>
        <pt x="826" y="802" on="1"/>
        <pt x="703" y="802" on="1"/>
        <pt x="656" y="905" on="1"/>
        <pt x="565" y="802" on="1"/>
      </contour>
      <contour>
        <pt x="131" y="0" on="1"/>
        <pt x="107" y="740" on="1"/>
        <pt x="272" y="740" on="1"/>
        <pt x="286" y="224" on="1"/>
        <pt x="520" y="740" on="1"/>
        <pt x="698" y="740" on="1"/>
        <pt x="716" y="223" on="1"/>
        <pt x="945" y="740" on="1"/>
        <pt x="1126" y="740" on="1"/>
        <pt x="789" y="0" on="1"/>
        <pt x="568" y="0" on="1"/>
        <pt x="553" y="449" on="1"/>
        <pt x="349" y="0" on="1"/>
      </contour>
    </TTGlyph>
    <TTGlyph name="Wdieresis" xMin="107" yMin="0" xMax="1126" yMax="975">
      <contour>
        <pt x="764" y="794" on="1"/>
        <pt x="722" y="794" on="0"/>
        <pt x="669" y="848" on="0"/>
        <pt x="669" y="885" on="1"/>
        <pt x="669" y="922" on="0"/>
        <pt x="722" y="975" on="0"/>
        <pt x="764" y="975" on="1"/>
        <pt x="804" y="975" on="0"/>
        <pt x="858" y="922" on="0"/>
        <pt x="858" y="885" on="1"/>
        <pt x="858" y="848" on="0"/>
        <pt x="804" y="794" on="0"/>
      </contour>
      <contour>
        <pt x="526" y="794" on="1"/>
        <pt x="484" y="794" on="0"/>
        <pt x="431" y="848" on="0"/>
        <pt x="431" y="885" on="1"/>
        <pt x="431" y="922" on="0"/>
        <pt x="484" y="975" on="0"/>
        <pt x="526" y="975" on="1"/>
        <pt x="566" y="975" on="0"/>
        <pt x="620" y="922" on="0"/>
        <pt x="620" y="885" on="1"/>
        <pt x="620" y="848" on="0"/>
        <pt x="566" y="794" on="0"/>
      </contour>
      <contour>
        <pt x="131" y="0" on="1"/>
        <pt x="107" y="740" on="1"/>
        <pt x="272" y="740" on="1"/>
        <pt x="286" y="224" on="1"/>
        <pt x="520" y="740" on="1"/>
        <pt x="698" y="740" on="1"/>
        <pt x="716" y="223" on="1"/>
        <pt x="945" y="740" on="1"/>
        <pt x="1126" y="740" on="1"/>
        <pt x="789" y="0" on="1"/>
        <pt x="568" y="0" on="1"/>
        <pt x="553" y="449" on="1"/>
        <pt x="349" y="0" on="1"/>
      </contour>
    </TTGlyph>
    <TTGlyph name="Wgrave" xMin="107" yMin="0" xMax="1126" yMax="991">
      <contour>
        <pt x="560" y="811" on="1"/>
        <pt x="461" y="991" on="1"/>
        <pt x="611" y="991" on="1"/>
        <pt x="678" y="812" on="1"/>
      </contour>
      <contour>
        <pt x="131" y="0" on="1"/>
        <pt x="107" y="740" on="1"/>
        <pt x="272" y="740" on="1"/>
        <pt x="286" y="224" on="1"/>
        <pt x="520" y="740" on="1"/>
        <pt x="698" y="740" on="1"/>
        <pt x="716" y="223" on="1"/>
        <pt x="945" y="740" on="1"/>
        <pt x="1126" y="740" on="1"/>
        <pt x="789" y="0" on="1"/>
        <pt x="568" y="0" on="1"/>
        <pt x="553" y="449" on="1"/>
        <pt x="349" y="0" on="1"/>
      </contour>
    </TTGlyph>
    <TTGlyph name="X" xMin="-19" yMin="0" xMax="854" yMax="740">
      <contour>
        <pt x="-19" y="0" on="1"/>
        <pt x="301" y="389" on="1"/>
        <pt x="162" y="740" on="1"/>
        <pt x="358" y="740" on="1"/>
        <pt x="444" y="501" on="1"/>
        <pt x="631" y="740" on="1"/>
        <pt x="854" y="740" on="1"/>
        <pt x="532" y="352" on="1"/>
        <pt x="675" y="0" on="1"/>
        <pt x="479" y="0" on="1"/>
        <pt x="392" y="241" on="1"/>
        <pt x="203" y="0" on="1"/>
      </contour>
    </TTGlyph>
    <TTGlyph name="Y" xMin="112" yMin="0" xMax="806" yMax="740">
      <contour>
        <pt x="215" y="0" on="1"/>
        <pt x="268" y="251" on="1"/>
        <pt x="112" y="740" on="1"/>
        <pt x="290" y="740" on="1"/>
        <pt x="381" y="428" on="1"/>
        <pt x="604" y="740" on="1"/>
        <pt x="806" y="740" on="1"/>
        <pt x="441" y="250" on="1"/>
        <pt x="389" y="0" on="1"/>
      </contour>
    </TTGlyph>
    <TTGlyph name="Yacute" xMin="112" yMin="0" xMax="806" yMax="991">
      <contour>
        <pt x="543" y="811" on="1"/>
        <pt x="421" y="812" on="1"/>
        <pt x="502" y="991" on="1"/>
        <pt x="657" y="991" on="1"/>
      </contour>
      <contour>
        <pt x="215" y="0" on="1"/>
        <pt x="268" y="251" on="1"/>
        <pt x="112" y="740" on="1"/>
        <pt x="290" y="740" on="1"/>
        <pt x="381" y="428" on="1"/>
        <pt x="604" y="740" on="1"/>
        <pt x="806" y="740" on="1"/>
        <pt x="441" y="250" on="1"/>
        <pt x="389" y="0" on="1"/>
      </contour>
    </TTGlyph>
    <TTGlyph name="Ycircumflex" xMin="112" yMin="0" xMax="806" yMax="987">
      <contour>
        <pt x="272" y="802" on="1"/>
        <pt x="443" y="987" on="1"/>
        <pt x="577" y="987" on="1"/>
        <pt x="670" y="802" on="1"/>
        <pt x="547" y="802" on="1"/>
        <pt x="501" y="905" on="1"/>
        <pt x="409" y="802" on="1"/>
      </contour>
      <contour>
        <pt x="215" y="0" on="1"/>
        <pt x="268" y="251" on="1"/>
        <pt x="112" y="740" on="1"/>
        <pt x="290" y="740" on="1"/>
        <pt x="381" y="428" on="1"/>
        <pt x="604" y="740" on="1"/>
        <pt x="806" y="740" on="1"/>
        <pt x="441" y="250" on="1"/>
        <pt x="389" y="0" on="1"/>
      </contour>
    </TTGlyph>
    <TTGlyph name="Ydieresis" xMin="112" yMin="0" xMax="806" yMax="975">
      <contour>
        <pt x="608" y="794" on="1"/>
        <pt x="566" y="794" on="0"/>
        <pt x="514" y="848" on="0"/>
        <pt x="514" y="885" on="1"/>
        <pt x="514" y="922" on="0"/>
        <pt x="566" y="975" on="0"/>
        <pt x="608" y="975" on="1"/>
        <pt x="648" y="975" on="0"/>
        <pt x="702" y="922" on="0"/>
        <pt x="702" y="885" on="1"/>
        <pt x="702" y="848" on="0"/>
        <pt x="648" y="794" on="0"/>
      </contour>
      <contour>
        <pt x="370" y="794" on="1"/>
        <pt x="328" y="794" on="0"/>
        <pt x="276" y="848" on="0"/>
        <pt x="276" y="885" on="1"/>
        <pt x="276" y="922" on="0"/>
        <pt x="328" y="975" on="0"/>
        <pt x="370" y="975" on="1"/>
        <pt x="410" y="975" on="0"/>
        <pt x="464" y="922" on="0"/>
        <pt x="464" y="885" on="1"/>
        <pt x="464" y="848" on="0"/>
        <pt x="410" y="794" on="0"/>
      </contour>
      <contour>
        <pt x="215" y="0" on="1"/>
        <pt x="268" y="251" on="1"/>
        <pt x="112" y="740" on="1"/>
        <pt x="290" y="740" on="1"/>
        <pt x="381" y="428" on="1"/>
        <pt x="604" y="740" on="1"/>
        <pt x="806" y="740" on="1"/>
        <pt x="441" y="250" on="1"/>
        <pt x="389" y="0" on="1"/>
      </contour>
    </TTGlyph>
    <TTGlyph name="Ygrave" xMin="112" yMin="0" xMax="806" yMax="991">
      <contour>
        <pt x="405" y="811" on="1"/>
        <pt x="305" y="991" on="1"/>
        <pt x="455" y="991" on="1"/>
        <pt x="522" y="812" on="1"/>
      </contour>
      <contour>
        <pt x="215" y="0" on="1"/>
        <pt x="268" y="251" on="1"/>
        <pt x="112" y="740" on="1"/>
        <pt x="290" y="740" on="1"/>
        <pt x="381" y="428" on="1"/>
        <pt x="604" y="740" on="1"/>
        <pt x="806" y="740" on="1"/>
        <pt x="441" y="250" on="1"/>
        <pt x="389" y="0" on="1"/>
      </contour>
    </TTGlyph>
    <TTGlyph name="Z" xMin="-3" yMin="0" xMax="732" yMax="740">
      <contour>
        <pt x="-3" y="0" on="1"/>
        <pt x="23" y="121" on="1"/>
        <pt x="456" y="590" on="1"/>
        <pt x="122" y="590" on="1"/>
        <pt x="154" y="740" on="1"/>
        <pt x="732" y="740" on="1"/>
        <pt x="706" y="619" on="1"/>
        <pt x="272" y="150" on="1"/>
        <pt x="607" y="150" on="1"/>
        <pt x="575" y="0" on="1"/>
      </contour>
    </TTGlyph>
    <TTGlyph name="Zacute" xMin="-3" yMin="0" xMax="732" yMax="991">
      <contour>
        <pt x="515" y="811" on="1"/>
        <pt x="393" y="812" on="1"/>
        <pt x="473" y="991" on="1"/>
        <pt x="628" y="991" on="1"/>
      </contour>
      <contour>
        <pt x="-3" y="0" on="1"/>
        <pt x="23" y="121" on="1"/>
        <pt x="456" y="590" on="1"/>
        <pt x="122" y="590" on="1"/>
        <pt x="154" y="740" on="1"/>
        <pt x="732" y="740" on="1"/>
        <pt x="706" y="619" on="1"/>
        <pt x="272" y="150" on="1"/>
        <pt x="607" y="150" on="1"/>
        <pt x="575" y="0" on="1"/>
      </contour>
    </TTGlyph>
    <TTGlyph name="Zcaron" xMin="-3" yMin="0" xMax="732" yMax="988">
      <contour>
        <pt x="378" y="803" on="1"/>
        <pt x="285" y="988" on="1"/>
        <pt x="408" y="988" on="1"/>
        <pt x="455" y="885" on="1"/>
        <pt x="546" y="988" on="1"/>
        <pt x="683" y="988" on="1"/>
        <pt x="512" y="803" on="1"/>
      </contour>
      <contour>
        <pt x="-3" y="0" on="1"/>
        <pt x="23" y="121" on="1"/>
        <pt x="456" y="590" on="1"/>
        <pt x="122" y="590" on="1"/>
        <pt x="154" y="740" on="1"/>
        <pt x="732" y="740" on="1"/>
        <pt x="706" y="619" on="1"/>
        <pt x="272" y="150" on="1"/>
        <pt x="607" y="150" on="1"/>
        <pt x="575" y="0" on="1"/>
      </contour>
    </TTGlyph>
    <TTGlyph name="Zdotaccent" xMin="-3" yMin="0" xMax="732" yMax="992">
      <contour>
        <pt x="463" y="801" on="1"/>
        <pt x="419" y="801" on="0"/>
        <pt x="363" y="858" on="0"/>
        <pt x="363" y="897" on="1"/>
        <pt x="363" y="936" on="0"/>
        <pt x="419" y="992" on="0"/>
        <pt x="463" y="992" on="1"/>
        <pt x="506" y="992" on="0"/>
        <pt x="562" y="936" on="0"/>
        <pt x="562" y="897" on="1"/>
        <pt x="562" y="857" on="0"/>
        <pt x="506" y="801" on="0"/>
      </contour>
      <contour>
        <pt x="-3" y="0" on="1"/>
        <pt x="23" y="121" on="1"/>
        <pt x="456" y="590" on="1"/>
        <pt x="122" y="590" on="1"/>
        <pt x="154" y="740" on="1"/>
        <pt x="732" y="740" on="1"/>
        <pt x="706" y="619" on="1"/>
        <pt x="272" y="150" on="1"/>
        <pt x="607" y="150" on="1"/>
        <pt x="575" y="0" on="1"/>
      </contour>
    </TTGlyph>
    <TTGlyph name="a" xMin="39" yMin="-10" xMax="656" yMax="540">
      <contour>
        <pt x="310" y="540" on="1"/>
        <pt x="353" y="540" on="0"/>
        <pt x="410" y="516" on="0"/>
        <pt x="444" y="484" on="0"/>
        <pt x="460" y="457" on="0"/>
        <pt x="461" y="454" on="1"/>
        <pt x="469" y="454" on="1"/>
        <pt x="485" y="530" on="1"/>
        <pt x="656" y="530" on="1"/>
        <pt x="545" y="0" on="1"/>
        <pt x="374" y="0" on="1"/>
        <pt x="387" y="61" on="1"/>
        <pt x="379" y="61" on="1"/>
        <pt x="379" y="61" on="0"/>
        <pt x="364" y="40" on="0"/>
        <pt x="330" y="12" on="0"/>
        <pt x="274" y="-10" on="0"/>
        <pt x="233" y="-10" on="1"/>
        <pt x="167" y="-10" on="0"/>
        <pt x="81" y="53" on="0"/>
        <pt x="39" y="156" on="0"/>
        <pt x="39" y="215" on="1"/>
        <pt x="39" y="272" on="0"/>
        <pt x="76" y="387" on="0"/>
        <pt x="145" y="482" on="0"/>
        <pt x="246" y="540" on="0"/>
      </contour>
      <contour>
        <pt x="348" y="403" on="1"/>
        <pt x="305" y="403" on="0"/>
        <pt x="244" y="351" on="0"/>
        <pt x="212" y="273" on="0"/>
        <pt x="212" y="234" on="1"/>
        <pt x="212" y="191" on="0"/>
        <pt x="255" y="127" on="0"/>
        <pt x="303" y="127" on="1"/>
        <pt x="345" y="127" on="0"/>
        <pt x="406" y="179" on="0"/>
        <pt x="439" y="256" on="0"/>
        <pt x="439" y="295" on="1"/>
        <pt x="439" y="338" on="0"/>
        <pt x="395" y="403" on="0"/>
      </contour>
    </TTGlyph>
    <TTGlyph name="a.ss01" xMin="15" yMin="-10" xMax="568" yMax="540">
      <contour>
        <pt x="326" y="61" on="1"/>
        <pt x="316" y="46" on="0"/>
        <pt x="278" y="13" on="0"/>
        <pt x="220" y="-10" on="0"/>
        <pt x="178" y="-10" on="1"/>
        <pt x="102" y="-10" on="0"/>
        <pt x="15" y="69" on="0"/>
        <pt x="15" y="135" on="1"/>
        <pt x="15" y="204" on="0"/>
        <pt x="119" y="304" on="0"/>
        <pt x="224" y="311" on="1"/>
        <pt x="388" y="322" on="1"/>
        <pt x="391" y="336" on="1"/>
        <pt x="398" y="371" on="0"/>
        <pt x="364" y="418" on="0"/>
        <pt x="319" y="418" on="1"/>
        <pt x="283" y="418" on="0"/>
        <pt x="249" y="390" on="0"/>
        <pt x="238" y="362" on="0"/>
        <pt x="238" y="362" on="1"/>
        <pt x="79" y="362" on="1"/>
        <pt x="79" y="362" on="0"/>
        <pt x="90" y="398" on="0"/>
        <pt x="120" y="451" on="0"/>
        <pt x="176" y="504" on="0"/>
        <pt x="267" y="540" on="0"/>
        <pt x="333" y="540" on="1"/>
        <pt x="420" y="540" on="0"/>
        <pt x="527" y="475" on="0"/>
        <pt x="568" y="373" on="0"/>
        <pt x="556" y="318" on="1"/>
        <pt x="488" y="0" on="1"/>
        <pt x="320" y="0" on="1"/>
        <pt x="333" y="61" on="1"/>
      </contour>
      <contour>
        <pt x="185" y="155" on="1"/>
        <pt x="185" y="129" on="0"/>
        <pt x="222" y="103" on="0"/>
        <pt x="249" y="103" on="1"/>
        <pt x="289" y="103" on="0"/>
        <pt x="354" y="156" on="0"/>
        <pt x="364" y="204" on="1"/>
        <pt x="367" y="221" on="1"/>
        <pt x="257" y="213" on="1"/>
        <pt x="220" y="211" on="0"/>
        <pt x="185" y="178" on="0"/>
      </contour>
    </TTGlyph>
    <TTGlyph name="aacute" xMin="31" yMin="-10" xMax="648" yMax="781">
      <contour>
        <pt x="462" y="601" on="1"/>
        <pt x="340" y="602" on="1"/>
        <pt x="420" y="781" on="1"/>
        <pt x="575" y="781" on="1"/>
      </contour>
      <contour>
        <pt x="302" y="540" on="1"/>
        <pt x="345" y="540" on="0"/>
        <pt x="402" y="516" on="0"/>
        <pt x="436" y="484" on="0"/>
        <pt x="452" y="457" on="0"/>
        <pt x="453" y="454" on="1"/>
        <pt x="461" y="454" on="1"/>
        <pt x="477" y="530" on="1"/>
        <pt x="648" y="530" on="1"/>
        <pt x="537" y="0" on="1"/>
        <pt x="366" y="0" on="1"/>
        <pt x="379" y="61" on="1"/>
        <pt x="371" y="61" on="1"/>
        <pt x="371" y="61" on="0"/>
        <pt x="356" y="40" on="0"/>
        <pt x="322" y="12" on="0"/>
        <pt x="266" y="-10" on="0"/>
        <pt x="225" y="-10" on="1"/>
        <pt x="159" y="-10" on="0"/>
        <pt x="73" y="53" on="0"/>
        <pt x="31" y="156" on="0"/>
        <pt x="31" y="215" on="1"/>
        <pt x="31" y="272" on="0"/>
        <pt x="68" y="387" on="0"/>
        <pt x="137" y="482" on="0"/>
        <pt x="238" y="540" on="0"/>
      </contour>
      <contour>
        <pt x="340" y="403" on="1"/>
        <pt x="297" y="403" on="0"/>
        <pt x="236" y="351" on="0"/>
        <pt x="204" y="273" on="0"/>
        <pt x="204" y="234" on="1"/>
        <pt x="204" y="191" on="0"/>
        <pt x="247" y="127" on="0"/>
        <pt x="295" y="127" on="1"/>
        <pt x="337" y="127" on="0"/>
        <pt x="398" y="179" on="0"/>
        <pt x="431" y="256" on="0"/>
        <pt x="431" y="295" on="1"/>
        <pt x="431" y="338" on="0"/>
        <pt x="387" y="403" on="0"/>
      </contour>
    </TTGlyph>
    <TTGlyph name="aacute.ss01" xMin="15" yMin="-10" xMax="567" yMax="781">
      <contour>
        <pt x="437" y="601" on="1"/>
        <pt x="315" y="602" on="1"/>
        <pt x="395" y="781" on="1"/>
        <pt x="550" y="781" on="1"/>
      </contour>
      <contour>
        <pt x="326" y="61" on="1"/>
        <pt x="315" y="46" on="0"/>
        <pt x="278" y="13" on="0"/>
        <pt x="219" y="-10" on="0"/>
        <pt x="177" y="-10" on="1"/>
        <pt x="102" y="-10" on="0"/>
        <pt x="15" y="69" on="0"/>
        <pt x="15" y="135" on="1"/>
        <pt x="15" y="204" on="0"/>
        <pt x="118" y="304" on="0"/>
        <pt x="223" y="311" on="1"/>
        <pt x="388" y="322" on="1"/>
        <pt x="391" y="336" on="1"/>
        <pt x="398" y="371" on="0"/>
        <pt x="363" y="418" on="0"/>
        <pt x="319" y="418" on="1"/>
        <pt x="283" y="418" on="0"/>
        <pt x="248" y="390" on="0"/>
        <pt x="237" y="362" on="0"/>
        <pt x="237" y="362" on="1"/>
        <pt x="78" y="362" on="1"/>
        <pt x="78" y="362" on="0"/>
        <pt x="89" y="398" on="0"/>
        <pt x="119" y="451" on="0"/>
        <pt x="176" y="504" on="0"/>
        <pt x="266" y="540" on="0"/>
        <pt x="332" y="540" on="1"/>
        <pt x="419" y="540" on="0"/>
        <pt x="526" y="475" on="0"/>
        <pt x="567" y="373" on="0"/>
        <pt x="555" y="318" on="1"/>
        <pt x="487" y="0" on="1"/>
        <pt x="320" y="0" on="1"/>
        <pt x="333" y="61" on="1"/>
      </contour>
      <contour>
        <pt x="185" y="155" on="1"/>
        <pt x="185" y="129" on="0"/>
        <pt x="221" y="103" on="0"/>
        <pt x="248" y="103" on="1"/>
        <pt x="289" y="103" on="0"/>
        <pt x="354" y="156" on="0"/>
        <pt x="363" y="204" on="1"/>
        <pt x="367" y="221" on="1"/>
        <pt x="256" y="213" on="1"/>
        <pt x="220" y="211" on="0"/>
        <pt x="185" y="178" on="0"/>
      </contour>
    </TTGlyph>
    <TTGlyph name="abreve" xMin="31" yMin="-10" xMax="648" yMax="774">
      <contour>
        <pt x="405" y="595" on="1"/>
        <pt x="347" y="595" on="0"/>
        <pt x="280" y="631" on="0"/>
        <pt x="248" y="684" on="0"/>
        <pt x="239" y="738" on="0"/>
        <pt x="241" y="774" on="0"/>
        <pt x="241" y="774" on="1"/>
        <pt x="351" y="774" on="1"/>
        <pt x="351" y="774" on="0"/>
        <pt x="349" y="749" on="0"/>
        <pt x="356" y="716" on="0"/>
        <pt x="383" y="691" on="0"/>
        <pt x="411" y="691" on="1"/>
        <pt x="440" y="691" on="0"/>
        <pt x="477" y="716" on="0"/>
        <pt x="498" y="749" on="0"/>
        <pt x="506" y="774" on="0"/>
        <pt x="506" y="774" on="1"/>
        <pt x="616" y="774" on="1"/>
        <pt x="616" y="774" on="0"/>
        <pt x="608" y="738" on="0"/>
        <pt x="585" y="684" on="0"/>
        <pt x="539" y="631" on="0"/>
        <pt x="462" y="595" on="0"/>
      </contour>
      <contour>
        <pt x="302" y="540" on="1"/>
        <pt x="345" y="540" on="0"/>
        <pt x="402" y="516" on="0"/>
        <pt x="436" y="484" on="0"/>
        <pt x="452" y="457" on="0"/>
        <pt x="453" y="454" on="1"/>
        <pt x="461" y="454" on="1"/>
        <pt x="477" y="530" on="1"/>
        <pt x="648" y="530" on="1"/>
        <pt x="537" y="0" on="1"/>
        <pt x="366" y="0" on="1"/>
        <pt x="379" y="61" on="1"/>
        <pt x="371" y="61" on="1"/>
        <pt x="371" y="61" on="0"/>
        <pt x="356" y="40" on="0"/>
        <pt x="322" y="12" on="0"/>
        <pt x="266" y="-10" on="0"/>
        <pt x="225" y="-10" on="1"/>
        <pt x="159" y="-10" on="0"/>
        <pt x="73" y="53" on="0"/>
        <pt x="31" y="156" on="0"/>
        <pt x="31" y="215" on="1"/>
        <pt x="31" y="272" on="0"/>
        <pt x="68" y="387" on="0"/>
        <pt x="137" y="482" on="0"/>
        <pt x="238" y="540" on="0"/>
      </contour>
      <contour>
        <pt x="340" y="403" on="1"/>
        <pt x="297" y="403" on="0"/>
        <pt x="236" y="351" on="0"/>
        <pt x="204" y="273" on="0"/>
        <pt x="204" y="234" on="1"/>
        <pt x="204" y="191" on="0"/>
        <pt x="247" y="127" on="0"/>
        <pt x="295" y="127" on="1"/>
        <pt x="337" y="127" on="0"/>
        <pt x="398" y="179" on="0"/>
        <pt x="431" y="256" on="0"/>
        <pt x="431" y="295" on="1"/>
        <pt x="431" y="338" on="0"/>
        <pt x="387" y="403" on="0"/>
      </contour>
    </TTGlyph>
    <TTGlyph name="abreve.ss01" xMin="15" yMin="-10" xMax="590" yMax="774">
      <contour>
        <pt x="379" y="595" on="1"/>
        <pt x="322" y="595" on="0"/>
        <pt x="255" y="631" on="0"/>
        <pt x="223" y="684" on="0"/>
        <pt x="214" y="738" on="0"/>
        <pt x="216" y="774" on="0"/>
        <pt x="216" y="774" on="1"/>
        <pt x="325" y="774" on="1"/>
        <pt x="325" y="774" on="0"/>
        <pt x="323" y="749" on="0"/>
        <pt x="331" y="716" on="0"/>
        <pt x="357" y="691" on="0"/>
        <pt x="386" y="691" on="1"/>
        <pt x="414" y="691" on="0"/>
        <pt x="451" y="716" on="0"/>
        <pt x="472" y="749" on="0"/>
        <pt x="481" y="774" on="0"/>
        <pt x="481" y="774" on="1"/>
        <pt x="590" y="774" on="1"/>
        <pt x="590" y="774" on="0"/>
        <pt x="583" y="738" on="0"/>
        <pt x="560" y="684" on="0"/>
        <pt x="514" y="631" on="0"/>
        <pt x="437" y="595" on="0"/>
      </contour>
      <contour>
        <pt x="326" y="61" on="1"/>
        <pt x="315" y="46" on="0"/>
        <pt x="278" y="13" on="0"/>
        <pt x="219" y="-10" on="0"/>
        <pt x="177" y="-10" on="1"/>
        <pt x="102" y="-10" on="0"/>
        <pt x="15" y="69" on="0"/>
        <pt x="15" y="135" on="1"/>
        <pt x="15" y="204" on="0"/>
        <pt x="118" y="304" on="0"/>
        <pt x="223" y="311" on="1"/>
        <pt x="388" y="322" on="1"/>
        <pt x="391" y="336" on="1"/>
        <pt x="398" y="371" on="0"/>
        <pt x="363" y="418" on="0"/>
        <pt x="319" y="418" on="1"/>
        <pt x="283" y="418" on="0"/>
        <pt x="248" y="390" on="0"/>
        <pt x="237" y="362" on="0"/>
        <pt x="237" y="362" on="1"/>
        <pt x="78" y="362" on="1"/>
        <pt x="78" y="362" on="0"/>
        <pt x="89" y="398" on="0"/>
        <pt x="119" y="451" on="0"/>
        <pt x="176" y="504" on="0"/>
        <pt x="266" y="540" on="0"/>
        <pt x="332" y="540" on="1"/>
        <pt x="419" y="540" on="0"/>
        <pt x="526" y="475" on="0"/>
        <pt x="567" y="373" on="0"/>
        <pt x="555" y="318" on="1"/>
        <pt x="487" y="0" on="1"/>
        <pt x="320" y="0" on="1"/>
        <pt x="333" y="61" on="1"/>
      </contour>
      <contour>
        <pt x="185" y="155" on="1"/>
        <pt x="185" y="129" on="0"/>
        <pt x="221" y="103" on="0"/>
        <pt x="248" y="103" on="1"/>
        <pt x="289" y="103" on="0"/>
        <pt x="354" y="156" on="0"/>
        <pt x="363" y="204" on="1"/>
        <pt x="367" y="221" on="1"/>
        <pt x="256" y="213" on="1"/>
        <pt x="220" y="211" on="0"/>
        <pt x="185" y="178" on="0"/>
      </contour>
    </TTGlyph>
    <TTGlyph name="acircumflex" xMin="31" yMin="-10" xMax="648" yMax="777">
      <contour>
        <pt x="191" y="592" on="1"/>
        <pt x="362" y="777" on="1"/>
        <pt x="496" y="777" on="1"/>
        <pt x="589" y="592" on="1"/>
        <pt x="466" y="592" on="1"/>
        <pt x="419" y="695" on="1"/>
        <pt x="328" y="592" on="1"/>
      </contour>
      <contour>
        <pt x="302" y="540" on="1"/>
        <pt x="345" y="540" on="0"/>
        <pt x="402" y="516" on="0"/>
        <pt x="436" y="484" on="0"/>
        <pt x="452" y="457" on="0"/>
        <pt x="453" y="454" on="1"/>
        <pt x="461" y="454" on="1"/>
        <pt x="477" y="530" on="1"/>
        <pt x="648" y="530" on="1"/>
        <pt x="537" y="0" on="1"/>
        <pt x="366" y="0" on="1"/>
        <pt x="379" y="61" on="1"/>
        <pt x="371" y="61" on="1"/>
        <pt x="371" y="61" on="0"/>
        <pt x="356" y="40" on="0"/>
        <pt x="322" y="12" on="0"/>
        <pt x="266" y="-10" on="0"/>
        <pt x="225" y="-10" on="1"/>
        <pt x="159" y="-10" on="0"/>
        <pt x="73" y="53" on="0"/>
        <pt x="31" y="156" on="0"/>
        <pt x="31" y="215" on="1"/>
        <pt x="31" y="272" on="0"/>
        <pt x="68" y="387" on="0"/>
        <pt x="137" y="482" on="0"/>
        <pt x="238" y="540" on="0"/>
      </contour>
      <contour>
        <pt x="340" y="403" on="1"/>
        <pt x="297" y="403" on="0"/>
        <pt x="236" y="351" on="0"/>
        <pt x="204" y="273" on="0"/>
        <pt x="204" y="234" on="1"/>
        <pt x="204" y="191" on="0"/>
        <pt x="247" y="127" on="0"/>
        <pt x="295" y="127" on="1"/>
        <pt x="337" y="127" on="0"/>
        <pt x="398" y="179" on="0"/>
        <pt x="431" y="256" on="0"/>
        <pt x="431" y="295" on="1"/>
        <pt x="431" y="338" on="0"/>
        <pt x="387" y="403" on="0"/>
      </contour>
    </TTGlyph>
    <TTGlyph name="acircumflex.ss01" xMin="15" yMin="-10" xMax="567" yMax="777">
      <contour>
        <pt x="165" y="592" on="1"/>
        <pt x="337" y="777" on="1"/>
        <pt x="470" y="777" on="1"/>
        <pt x="564" y="592" on="1"/>
        <pt x="440" y="592" on="1"/>
        <pt x="394" y="695" on="1"/>
        <pt x="302" y="592" on="1"/>
      </contour>
      <contour>
        <pt x="326" y="61" on="1"/>
        <pt x="315" y="46" on="0"/>
        <pt x="278" y="13" on="0"/>
        <pt x="219" y="-10" on="0"/>
        <pt x="177" y="-10" on="1"/>
        <pt x="102" y="-10" on="0"/>
        <pt x="15" y="69" on="0"/>
        <pt x="15" y="135" on="1"/>
        <pt x="15" y="204" on="0"/>
        <pt x="118" y="304" on="0"/>
        <pt x="223" y="311" on="1"/>
        <pt x="388" y="322" on="1"/>
        <pt x="391" y="336" on="1"/>
        <pt x="398" y="371" on="0"/>
        <pt x="363" y="418" on="0"/>
        <pt x="319" y="418" on="1"/>
        <pt x="283" y="418" on="0"/>
        <pt x="248" y="390" on="0"/>
        <pt x="237" y="362" on="0"/>
        <pt x="237" y="362" on="1"/>
        <pt x="78" y="362" on="1"/>
        <pt x="78" y="362" on="0"/>
        <pt x="89" y="398" on="0"/>
        <pt x="119" y="451" on="0"/>
        <pt x="176" y="504" on="0"/>
        <pt x="266" y="540" on="0"/>
        <pt x="332" y="540" on="1"/>
        <pt x="419" y="540" on="0"/>
        <pt x="526" y="475" on="0"/>
        <pt x="567" y="373" on="0"/>
        <pt x="555" y="318" on="1"/>
        <pt x="487" y="0" on="1"/>
        <pt x="320" y="0" on="1"/>
        <pt x="333" y="61" on="1"/>
      </contour>
      <contour>
        <pt x="185" y="155" on="1"/>
        <pt x="185" y="129" on="0"/>
        <pt x="221" y="103" on="0"/>
        <pt x="248" y="103" on="1"/>
        <pt x="289" y="103" on="0"/>
        <pt x="354" y="156" on="0"/>
        <pt x="363" y="204" on="1"/>
        <pt x="367" y="221" on="1"/>
        <pt x="256" y="213" on="1"/>
        <pt x="220" y="211" on="0"/>
        <pt x="185" y="178" on="0"/>
      </contour>
    </TTGlyph>
    <TTGlyph name="acute" xMin="152" yMin="601" xMax="387" yMax="781">
      <contour>
        <pt x="274" y="601" on="1"/>
        <pt x="152" y="602" on="1"/>
        <pt x="232" y="781" on="1"/>
        <pt x="387" y="781" on="1"/>
      </contour>
    </TTGlyph>
    <TTGlyph name="acutecomb" xMin="126" yMin="601" xMax="361" yMax="781">
      <contour>
        <pt x="248" y="601" on="1"/>
        <pt x="126" y="602" on="1"/>
        <pt x="206" y="781" on="1"/>
        <pt x="361" y="781" on="1"/>
      </contour>
    </TTGlyph>
    <TTGlyph name="adieresis" xMin="31" yMin="-10" xMax="648" yMax="765">
      <contour>
        <pt x="526" y="585" on="1"/>
        <pt x="485" y="585" on="0"/>
        <pt x="432" y="638" on="0"/>
        <pt x="432" y="674" on="1"/>
        <pt x="432" y="713" on="0"/>
        <pt x="485" y="765" on="0"/>
        <pt x="526" y="765" on="1"/>
        <pt x="567" y="765" on="0"/>
        <pt x="620" y="713" on="0"/>
        <pt x="620" y="674" on="1"/>
        <pt x="620" y="638" on="0"/>
        <pt x="567" y="585" on="0"/>
      </contour>
      <contour>
        <pt x="288" y="585" on="1"/>
        <pt x="247" y="585" on="0"/>
        <pt x="194" y="638" on="0"/>
        <pt x="194" y="674" on="1"/>
        <pt x="194" y="713" on="0"/>
        <pt x="247" y="765" on="0"/>
        <pt x="288" y="765" on="1"/>
        <pt x="329" y="765" on="0"/>
        <pt x="382" y="713" on="0"/>
        <pt x="382" y="674" on="1"/>
        <pt x="382" y="638" on="0"/>
        <pt x="329" y="585" on="0"/>
      </contour>
      <contour>
        <pt x="302" y="540" on="1"/>
        <pt x="345" y="540" on="0"/>
        <pt x="402" y="516" on="0"/>
        <pt x="436" y="484" on="0"/>
        <pt x="452" y="457" on="0"/>
        <pt x="453" y="454" on="1"/>
        <pt x="461" y="454" on="1"/>
        <pt x="477" y="530" on="1"/>
        <pt x="648" y="530" on="1"/>
        <pt x="537" y="0" on="1"/>
        <pt x="366" y="0" on="1"/>
        <pt x="379" y="61" on="1"/>
        <pt x="371" y="61" on="1"/>
        <pt x="371" y="61" on="0"/>
        <pt x="356" y="40" on="0"/>
        <pt x="322" y="12" on="0"/>
        <pt x="266" y="-10" on="0"/>
        <pt x="225" y="-10" on="1"/>
        <pt x="159" y="-10" on="0"/>
        <pt x="73" y="53" on="0"/>
        <pt x="31" y="156" on="0"/>
        <pt x="31" y="215" on="1"/>
        <pt x="31" y="272" on="0"/>
        <pt x="68" y="387" on="0"/>
        <pt x="137" y="482" on="0"/>
        <pt x="238" y="540" on="0"/>
      </contour>
      <contour>
        <pt x="340" y="403" on="1"/>
        <pt x="297" y="403" on="0"/>
        <pt x="236" y="351" on="0"/>
        <pt x="204" y="273" on="0"/>
        <pt x="204" y="234" on="1"/>
        <pt x="204" y="191" on="0"/>
        <pt x="247" y="127" on="0"/>
        <pt x="295" y="127" on="1"/>
        <pt x="337" y="127" on="0"/>
        <pt x="398" y="179" on="0"/>
        <pt x="431" y="256" on="0"/>
        <pt x="431" y="295" on="1"/>
        <pt x="431" y="338" on="0"/>
        <pt x="387" y="403" on="0"/>
      </contour>
    </TTGlyph>
    <TTGlyph name="adieresis.ss01" xMin="15" yMin="-10" xMax="595" yMax="765">
      <contour>
        <pt x="501" y="584" on="1"/>
        <pt x="460" y="584" on="0"/>
        <pt x="407" y="638" on="0"/>
        <pt x="407" y="675" on="1"/>
        <pt x="407" y="712" on="0"/>
        <pt x="460" y="765" on="0"/>
        <pt x="501" y="765" on="1"/>
        <pt x="542" y="765" on="0"/>
        <pt x="595" y="712" on="0"/>
        <pt x="595" y="675" on="1"/>
        <pt x="595" y="638" on="0"/>
        <pt x="542" y="584" on="0"/>
      </contour>
      <contour>
        <pt x="263" y="584" on="1"/>
        <pt x="222" y="584" on="0"/>
        <pt x="169" y="638" on="0"/>
        <pt x="169" y="675" on="1"/>
        <pt x="169" y="712" on="0"/>
        <pt x="222" y="765" on="0"/>
        <pt x="263" y="765" on="1"/>
        <pt x="304" y="765" on="0"/>
        <pt x="357" y="712" on="0"/>
        <pt x="357" y="675" on="1"/>
        <pt x="357" y="638" on="0"/>
        <pt x="304" y="584" on="0"/>
      </contour>
      <contour>
        <pt x="326" y="61" on="1"/>
        <pt x="315" y="46" on="0"/>
        <pt x="278" y="13" on="0"/>
        <pt x="219" y="-10" on="0"/>
        <pt x="177" y="-10" on="1"/>
        <pt x="102" y="-10" on="0"/>
        <pt x="15" y="69" on="0"/>
        <pt x="15" y="135" on="1"/>
        <pt x="15" y="204" on="0"/>
        <pt x="118" y="304" on="0"/>
        <pt x="223" y="311" on="1"/>
        <pt x="388" y="322" on="1"/>
        <pt x="391" y="336" on="1"/>
        <pt x="398" y="371" on="0"/>
        <pt x="363" y="418" on="0"/>
        <pt x="319" y="418" on="1"/>
        <pt x="283" y="418" on="0"/>
        <pt x="248" y="390" on="0"/>
        <pt x="237" y="362" on="0"/>
        <pt x="237" y="362" on="1"/>
        <pt x="78" y="362" on="1"/>
        <pt x="78" y="362" on="0"/>
        <pt x="89" y="398" on="0"/>
        <pt x="119" y="451" on="0"/>
        <pt x="176" y="504" on="0"/>
        <pt x="266" y="540" on="0"/>
        <pt x="332" y="540" on="1"/>
        <pt x="419" y="540" on="0"/>
        <pt x="526" y="475" on="0"/>
        <pt x="567" y="373" on="0"/>
        <pt x="555" y="318" on="1"/>
        <pt x="487" y="0" on="1"/>
        <pt x="320" y="0" on="1"/>
        <pt x="333" y="61" on="1"/>
      </contour>
      <contour>
        <pt x="185" y="155" on="1"/>
        <pt x="185" y="129" on="0"/>
        <pt x="221" y="103" on="0"/>
        <pt x="248" y="103" on="1"/>
        <pt x="289" y="103" on="0"/>
        <pt x="354" y="156" on="0"/>
        <pt x="363" y="204" on="1"/>
        <pt x="367" y="221" on="1"/>
        <pt x="256" y="213" on="1"/>
        <pt x="220" y="211" on="0"/>
        <pt x="185" y="178" on="0"/>
      </contour>
    </TTGlyph>
    <TTGlyph name="ae" xMin="16" yMin="-10" xMax="913" yMax="540">
      <contour>
        <pt x="199" y="-10" on="1"/>
        <pt x="115" y="-10" on="0"/>
        <pt x="16" y="69" on="0"/>
        <pt x="16" y="138" on="1"/>
        <pt x="16" y="206" on="0"/>
        <pt x="122" y="304" on="0"/>
        <pt x="224" y="311" on="1"/>
        <pt x="379" y="322" on="1"/>
        <pt x="385" y="341" on="1"/>
        <pt x="390" y="374" on="0"/>
        <pt x="354" y="418" on="0"/>
        <pt x="313" y="418" on="1"/>
        <pt x="276" y="418" on="0"/>
        <pt x="241" y="390" on="0"/>
        <pt x="231" y="362" on="0"/>
        <pt x="231" y="362" on="1"/>
        <pt x="71" y="362" on="1"/>
        <pt x="71" y="362" on="0"/>
        <pt x="83" y="398" on="0"/>
        <pt x="114" y="451" on="0"/>
        <pt x="169" y="504" on="0"/>
        <pt x="255" y="540" on="0"/>
        <pt x="316" y="540" on="1"/>
        <pt x="363" y="540" on="0"/>
        <pt x="425" y="519" on="0"/>
        <pt x="463" y="490" on="0"/>
        <pt x="480" y="464" on="0"/>
        <pt x="483" y="459" on="1"/>
        <pt x="489" y="459" on="1"/>
        <pt x="493" y="465" on="0"/>
        <pt x="538" y="505" on="0"/>
        <pt x="619" y="540" on="0"/>
        <pt x="680" y="540" on="1"/>
        <pt x="749" y="540" on="0"/>
        <pt x="844" y="487" on="0"/>
        <pt x="898" y="400" on="0"/>
        <pt x="913" y="295" on="0"/>
        <pt x="903" y="242" on="1"/>
        <pt x="899" y="221" on="1"/>
        <pt x="534" y="221" on="1"/>
        <pt x="536" y="173" on="0"/>
        <pt x="584" y="115" on="0"/>
        <pt x="630" y="115" on="1"/>
        <pt x="665" y="115" on="0"/>
        <pt x="707" y="144" on="0"/>
        <pt x="724" y="174" on="0"/>
        <pt x="724" y="174" on="1"/>
        <pt x="885" y="174" on="1"/>
        <pt x="885" y="174" on="0"/>
        <pt x="870" y="137" on="0"/>
        <pt x="835" y="82" on="0"/>
        <pt x="775" y="27" on="0"/>
        <pt x="684" y="-10" on="0"/>
        <pt x="620" y="-10" on="1"/>
        <pt x="566" y="-10" on="0"/>
        <pt x="488" y="17" on="0"/>
        <pt x="439" y="54" on="0"/>
        <pt x="414" y="87" on="0"/>
        <pt x="412" y="92" on="1"/>
        <pt x="407" y="92" on="1"/>
        <pt x="407" y="92" on="0"/>
        <pt x="384" y="61" on="0"/>
        <pt x="334" y="21" on="0"/>
        <pt x="255" y="-10" on="0"/>
      </contour>
      <contour>
        <pt x="549" y="320" on="1"/>
        <pt x="753" y="320" on="1"/>
        <pt x="758" y="358" on="0"/>
        <pt x="714" y="415" on="0"/>
        <pt x="667" y="415" on="1"/>
        <pt x="623" y="415" on="0"/>
        <pt x="561" y="360" on="0"/>
      </contour>
      <contour>
        <pt x="248" y="103" on="1"/>
        <pt x="283" y="103" on="0"/>
        <pt x="347" y="156" on="0"/>
        <pt x="357" y="204" on="1"/>
        <pt x="360" y="221" on="1"/>
        <pt x="257" y="213" on="1"/>
        <pt x="223" y="211" on="0"/>
        <pt x="186" y="179" on="0"/>
        <pt x="186" y="155" on="1"/>
        <pt x="186" y="128" on="0"/>
        <pt x="224" y="103" on="0"/>
      </contour>
    </TTGlyph>
    <TTGlyph name="agrave" xMin="31" yMin="-10" xMax="648" yMax="781">
      <contour>
        <pt x="323" y="601" on="1"/>
        <pt x="223" y="781" on="1"/>
        <pt x="374" y="781" on="1"/>
        <pt x="441" y="602" on="1"/>
      </contour>
      <contour>
        <pt x="302" y="540" on="1"/>
        <pt x="345" y="540" on="0"/>
        <pt x="402" y="516" on="0"/>
        <pt x="436" y="484" on="0"/>
        <pt x="452" y="457" on="0"/>
        <pt x="453" y="454" on="1"/>
        <pt x="461" y="454" on="1"/>
        <pt x="477" y="530" on="1"/>
        <pt x="648" y="530" on="1"/>
        <pt x="537" y="0" on="1"/>
        <pt x="366" y="0" on="1"/>
        <pt x="379" y="61" on="1"/>
        <pt x="371" y="61" on="1"/>
        <pt x="371" y="61" on="0"/>
        <pt x="356" y="40" on="0"/>
        <pt x="322" y="12" on="0"/>
        <pt x="266" y="-10" on="0"/>
        <pt x="225" y="-10" on="1"/>
        <pt x="159" y="-10" on="0"/>
        <pt x="73" y="53" on="0"/>
        <pt x="31" y="156" on="0"/>
        <pt x="31" y="215" on="1"/>
        <pt x="31" y="272" on="0"/>
        <pt x="68" y="387" on="0"/>
        <pt x="137" y="482" on="0"/>
        <pt x="238" y="540" on="0"/>
      </contour>
      <contour>
        <pt x="340" y="403" on="1"/>
        <pt x="297" y="403" on="0"/>
        <pt x="236" y="351" on="0"/>
        <pt x="204" y="273" on="0"/>
        <pt x="204" y="234" on="1"/>
        <pt x="204" y="191" on="0"/>
        <pt x="247" y="127" on="0"/>
        <pt x="295" y="127" on="1"/>
        <pt x="337" y="127" on="0"/>
        <pt x="398" y="179" on="0"/>
        <pt x="431" y="256" on="0"/>
        <pt x="431" y="295" on="1"/>
        <pt x="431" y="338" on="0"/>
        <pt x="387" y="403" on="0"/>
      </contour>
    </TTGlyph>
    <TTGlyph name="agrave.ss01" xMin="15" yMin="-10" xMax="567" yMax="781">
      <contour>
        <pt x="298" y="601" on="1"/>
        <pt x="198" y="781" on="1"/>
        <pt x="349" y="781" on="1"/>
        <pt x="415" y="602" on="1"/>
      </contour>
      <contour>
        <pt x="326" y="61" on="1"/>
        <pt x="315" y="46" on="0"/>
        <pt x="278" y="13" on="0"/>
        <pt x="219" y="-10" on="0"/>
        <pt x="177" y="-10" on="1"/>
        <pt x="102" y="-10" on="0"/>
        <pt x="15" y="69" on="0"/>
        <pt x="15" y="135" on="1"/>
        <pt x="15" y="204" on="0"/>
        <pt x="118" y="304" on="0"/>
        <pt x="223" y="311" on="1"/>
        <pt x="388" y="322" on="1"/>
        <pt x="391" y="336" on="1"/>
        <pt x="398" y="371" on="0"/>
        <pt x="363" y="418" on="0"/>
        <pt x="319" y="418" on="1"/>
        <pt x="283" y="418" on="0"/>
        <pt x="248" y="390" on="0"/>
        <pt x="237" y="362" on="0"/>
        <pt x="237" y="362" on="1"/>
        <pt x="78" y="362" on="1"/>
        <pt x="78" y="362" on="0"/>
        <pt x="89" y="398" on="0"/>
        <pt x="119" y="451" on="0"/>
        <pt x="176" y="504" on="0"/>
        <pt x="266" y="540" on="0"/>
        <pt x="332" y="540" on="1"/>
        <pt x="419" y="540" on="0"/>
        <pt x="526" y="475" on="0"/>
        <pt x="567" y="373" on="0"/>
        <pt x="555" y="318" on="1"/>
        <pt x="487" y="0" on="1"/>
        <pt x="320" y="0" on="1"/>
        <pt x="333" y="61" on="1"/>
      </contour>
      <contour>
        <pt x="185" y="155" on="1"/>
        <pt x="185" y="129" on="0"/>
        <pt x="221" y="103" on="0"/>
        <pt x="248" y="103" on="1"/>
        <pt x="289" y="103" on="0"/>
        <pt x="354" y="156" on="0"/>
        <pt x="363" y="204" on="1"/>
        <pt x="367" y="221" on="1"/>
        <pt x="256" y="213" on="1"/>
        <pt x="220" y="211" on="0"/>
        <pt x="185" y="178" on="0"/>
      </contour>
    </TTGlyph>
    <TTGlyph name="amacron" xMin="31" yMin="-10" xMax="648" yMax="747">
      <contour>
        <pt x="236" y="651" on="1"/>
        <pt x="256" y="747" on="1"/>
        <pt x="589" y="747" on="1"/>
        <pt x="568" y="651" on="1"/>
      </contour>
      <contour>
        <pt x="302" y="540" on="1"/>
        <pt x="345" y="540" on="0"/>
        <pt x="402" y="516" on="0"/>
        <pt x="436" y="484" on="0"/>
        <pt x="452" y="457" on="0"/>
        <pt x="453" y="454" on="1"/>
        <pt x="461" y="454" on="1"/>
        <pt x="477" y="530" on="1"/>
        <pt x="648" y="530" on="1"/>
        <pt x="537" y="0" on="1"/>
        <pt x="366" y="0" on="1"/>
        <pt x="379" y="61" on="1"/>
        <pt x="371" y="61" on="1"/>
        <pt x="371" y="61" on="0"/>
        <pt x="356" y="40" on="0"/>
        <pt x="322" y="12" on="0"/>
        <pt x="266" y="-10" on="0"/>
        <pt x="225" y="-10" on="1"/>
        <pt x="159" y="-10" on="0"/>
        <pt x="73" y="53" on="0"/>
        <pt x="31" y="156" on="0"/>
        <pt x="31" y="215" on="1"/>
        <pt x="31" y="272" on="0"/>
        <pt x="68" y="387" on="0"/>
        <pt x="137" y="482" on="0"/>
        <pt x="238" y="540" on="0"/>
      </contour>
      <contour>
        <pt x="340" y="403" on="1"/>
        <pt x="297" y="403" on="0"/>
        <pt x="236" y="351" on="0"/>
        <pt x="204" y="273" on="0"/>
        <pt x="204" y="234" on="1"/>
        <pt x="204" y="191" on="0"/>
        <pt x="247" y="127" on="0"/>
        <pt x="295" y="127" on="1"/>
        <pt x="337" y="127" on="0"/>
        <pt x="398" y="179" on="0"/>
        <pt x="431" y="256" on="0"/>
        <pt x="431" y="295" on="1"/>
        <pt x="431" y="338" on="0"/>
        <pt x="387" y="403" on="0"/>
      </contour>
    </TTGlyph>
    <TTGlyph name="amacron.ss01" xMin="15" yMin="-10" xMax="567" yMax="715">
      <contour>
        <pt x="202" y="619" on="1"/>
        <pt x="223" y="715" on="1"/>
        <pt x="556" y="715" on="1"/>
        <pt x="535" y="619" on="1"/>
      </contour>
      <contour>
        <pt x="326" y="61" on="1"/>
        <pt x="315" y="46" on="0"/>
        <pt x="278" y="13" on="0"/>
        <pt x="219" y="-10" on="0"/>
        <pt x="177" y="-10" on="1"/>
        <pt x="102" y="-10" on="0"/>
        <pt x="15" y="69" on="0"/>
        <pt x="15" y="135" on="1"/>
        <pt x="15" y="204" on="0"/>
        <pt x="118" y="304" on="0"/>
        <pt x="223" y="311" on="1"/>
        <pt x="388" y="322" on="1"/>
        <pt x="391" y="336" on="1"/>
        <pt x="398" y="371" on="0"/>
        <pt x="363" y="418" on="0"/>
        <pt x="319" y="418" on="1"/>
        <pt x="283" y="418" on="0"/>
        <pt x="248" y="390" on="0"/>
        <pt x="237" y="362" on="0"/>
        <pt x="237" y="362" on="1"/>
        <pt x="78" y="362" on="1"/>
        <pt x="78" y="362" on="0"/>
        <pt x="89" y="398" on="0"/>
        <pt x="119" y="451" on="0"/>
        <pt x="176" y="504" on="0"/>
        <pt x="266" y="540" on="0"/>
        <pt x="332" y="540" on="1"/>
        <pt x="419" y="540" on="0"/>
        <pt x="526" y="475" on="0"/>
        <pt x="567" y="373" on="0"/>
        <pt x="555" y="318" on="1"/>
        <pt x="487" y="0" on="1"/>
        <pt x="320" y="0" on="1"/>
        <pt x="333" y="61" on="1"/>
      </contour>
      <contour>
        <pt x="185" y="155" on="1"/>
        <pt x="185" y="129" on="0"/>
        <pt x="221" y="103" on="0"/>
        <pt x="248" y="103" on="1"/>
        <pt x="289" y="103" on="0"/>
        <pt x="354" y="156" on="0"/>
        <pt x="363" y="204" on="1"/>
        <pt x="367" y="221" on="1"/>
        <pt x="256" y="213" on="1"/>
        <pt x="220" y="211" on="0"/>
        <pt x="185" y="178" on="0"/>
      </contour>
    </TTGlyph>
    <TTGlyph name="ampersand" xMin="12" yMin="-11" xMax="690" yMax="750">
      <contour>
        <pt x="264" y="-11" on="1"/>
        <pt x="198" y="-11" on="0"/>
        <pt x="83" y="36" on="0"/>
        <pt x="12" y="128" on="0"/>
        <pt x="12" y="194" on="1"/>
        <pt x="12" y="248" on="0"/>
        <pt x="60" y="330" on="0"/>
        <pt x="138" y="393" on="0"/>
        <pt x="186" y="417" on="1"/>
        <pt x="165" y="450" on="0"/>
        <pt x="141" y="518" on="0"/>
        <pt x="141" y="556" on="1"/>
        <pt x="141" y="616" on="0"/>
        <pt x="201" y="703" on="0"/>
        <pt x="300" y="750" on="0"/>
        <pt x="357" y="750" on="1"/>
        <pt x="409" y="750" on="0"/>
        <pt x="504" y="711" on="0"/>
        <pt x="564" y="634" on="0"/>
        <pt x="564" y="579" on="1"/>
        <pt x="564" y="527" on="0"/>
        <pt x="512" y="455" on="0"/>
        <pt x="433" y="404" on="0"/>
        <pt x="392" y="386" on="1"/>
        <pt x="485" y="265" on="1"/>
        <pt x="501" y="297" on="0"/>
        <pt x="524" y="374" on="0"/>
        <pt x="529" y="420" on="1"/>
        <pt x="665" y="420" on="1"/>
        <pt x="656" y="336" on="0"/>
        <pt x="607" y="203" on="0"/>
        <pt x="572" y="153" on="1"/>
        <pt x="690" y="0" on="1"/>
        <pt x="492" y="0" on="1"/>
        <pt x="459" y="45" on="1"/>
        <pt x="413" y="17" on="0"/>
        <pt x="313" y="-11" on="0"/>
      </contour>
      <contour>
        <pt x="285" y="567" on="1"/>
        <pt x="285" y="543" on="0"/>
        <pt x="308" y="498" on="0"/>
        <pt x="324" y="475" on="1"/>
        <pt x="346" y="484" on="0"/>
        <pt x="391" y="510" on="0"/>
        <pt x="422" y="549" on="0"/>
        <pt x="422" y="576" on="1"/>
        <pt x="422" y="607" on="0"/>
        <pt x="382" y="638" on="0"/>
        <pt x="358" y="638" on="1"/>
        <pt x="331" y="638" on="0"/>
        <pt x="285" y="602" on="0"/>
      </contour>
      <contour>
        <pt x="171" y="217" on="1"/>
        <pt x="171" y="171" on="0"/>
        <pt x="237" y="120" on="0"/>
        <pt x="286" y="120" on="1"/>
        <pt x="335" y="120" on="0"/>
        <pt x="382" y="148" on="1"/>
        <pt x="287" y="276" on="1"/>
        <pt x="278" y="289" on="0"/>
        <pt x="259" y="313" on="0"/>
        <pt x="250" y="325" on="1"/>
        <pt x="212" y="304" on="0"/>
        <pt x="171" y="251" on="0"/>
      </contour>
    </TTGlyph>
    <TTGlyph name="aogonek" xMin="31" yMin="-189" xMax="648" yMax="540">
      <contour>
        <pt x="479" y="-189" on="1"/>
        <pt x="412" y="-189" on="0"/>
        <pt x="348" y="-137" on="0"/>
        <pt x="348" y="-97" on="1"/>
        <pt x="348" y="-61" on="0"/>
        <pt x="389" y="-14" on="0"/>
        <pt x="415" y="0" on="1"/>
        <pt x="366" y="0" on="1"/>
        <pt x="379" y="61" on="1"/>
        <pt x="371" y="61" on="1"/>
        <pt x="371" y="61" on="0"/>
        <pt x="356" y="40" on="0"/>
        <pt x="322" y="12" on="0"/>
        <pt x="266" y="-10" on="0"/>
        <pt x="225" y="-10" on="1"/>
        <pt x="159" y="-10" on="0"/>
        <pt x="73" y="53" on="0"/>
        <pt x="31" y="156" on="0"/>
        <pt x="31" y="215" on="1"/>
        <pt x="31" y="272" on="0"/>
        <pt x="68" y="387" on="0"/>
        <pt x="137" y="482" on="0"/>
        <pt x="238" y="540" on="0"/>
        <pt x="302" y="540" on="1"/>
        <pt x="345" y="540" on="0"/>
        <pt x="402" y="516" on="0"/>
        <pt x="436" y="484" on="0"/>
        <pt x="452" y="457" on="0"/>
        <pt x="453" y="454" on="1"/>
        <pt x="461" y="454" on="1"/>
        <pt x="477" y="530" on="1"/>
        <pt x="648" y="530" on="1"/>
        <pt x="537" y="0" on="1"/>
        <pt x="537" y="0" on="0"/>
        <pt x="505" y="-15" on="0"/>
        <pt x="473" y="-43" on="0"/>
        <pt x="473" y="-62" on="1"/>
        <pt x="473" y="-76" on="0"/>
        <pt x="495" y="-94" on="0"/>
        <pt x="520" y="-94" on="1"/>
        <pt x="532" y="-94" on="0"/>
        <pt x="553" y="-90" on="0"/>
        <pt x="553" y="-90" on="1"/>
        <pt x="534" y="-183" on="1"/>
        <pt x="534" y="-183" on="0"/>
        <pt x="504" y="-189" on="0"/>
      </contour>
      <contour>
        <pt x="340" y="403" on="1"/>
        <pt x="297" y="403" on="0"/>
        <pt x="236" y="351" on="0"/>
        <pt x="204" y="273" on="0"/>
        <pt x="204" y="234" on="1"/>
        <pt x="204" y="191" on="0"/>
        <pt x="247" y="127" on="0"/>
        <pt x="295" y="127" on="1"/>
        <pt x="337" y="127" on="0"/>
        <pt x="398" y="179" on="0"/>
        <pt x="431" y="256" on="0"/>
        <pt x="431" y="295" on="1"/>
        <pt x="431" y="338" on="0"/>
        <pt x="387" y="403" on="0"/>
      </contour>
    </TTGlyph>
    <TTGlyph name="aogonek.ss01" xMin="15" yMin="-189" xMax="567" yMax="540">
      <contour>
        <pt x="429" y="-189" on="1"/>
        <pt x="362" y="-189" on="0"/>
        <pt x="298" y="-137" on="0"/>
        <pt x="298" y="-97" on="1"/>
        <pt x="298" y="-61" on="0"/>
        <pt x="340" y="-14" on="0"/>
        <pt x="365" y="0" on="1"/>
        <pt x="320" y="0" on="1"/>
        <pt x="333" y="61" on="1"/>
        <pt x="326" y="61" on="1"/>
        <pt x="315" y="46" on="0"/>
        <pt x="278" y="13" on="0"/>
        <pt x="219" y="-10" on="0"/>
        <pt x="177" y="-10" on="1"/>
        <pt x="102" y="-10" on="0"/>
        <pt x="15" y="69" on="0"/>
        <pt x="15" y="135" on="1"/>
        <pt x="15" y="204" on="0"/>
        <pt x="118" y="304" on="0"/>
        <pt x="223" y="311" on="1"/>
        <pt x="388" y="322" on="1"/>
        <pt x="391" y="336" on="1"/>
        <pt x="398" y="371" on="0"/>
        <pt x="363" y="418" on="0"/>
        <pt x="319" y="418" on="1"/>
        <pt x="283" y="418" on="0"/>
        <pt x="248" y="390" on="0"/>
        <pt x="237" y="362" on="0"/>
        <pt x="237" y="362" on="1"/>
        <pt x="78" y="362" on="1"/>
        <pt x="78" y="362" on="0"/>
        <pt x="89" y="398" on="0"/>
        <pt x="119" y="451" on="0"/>
        <pt x="176" y="504" on="0"/>
        <pt x="266" y="540" on="0"/>
        <pt x="332" y="540" on="1"/>
        <pt x="419" y="540" on="0"/>
        <pt x="526" y="475" on="0"/>
        <pt x="567" y="373" on="0"/>
        <pt x="555" y="318" on="1"/>
        <pt x="487" y="0" on="1"/>
        <pt x="487" y="0" on="0"/>
        <pt x="456" y="-15" on="0"/>
        <pt x="424" y="-43" on="0"/>
        <pt x="424" y="-62" on="1"/>
        <pt x="424" y="-76" on="0"/>
        <pt x="446" y="-94" on="0"/>
        <pt x="471" y="-94" on="1"/>
        <pt x="482" y="-94" on="0"/>
        <pt x="504" y="-90" on="0"/>
        <pt x="504" y="-90" on="1"/>
        <pt x="484" y="-183" on="1"/>
        <pt x="484" y="-183" on="0"/>
        <pt x="454" y="-189" on="0"/>
      </contour>
      <contour>
        <pt x="185" y="155" on="1"/>
        <pt x="185" y="129" on="0"/>
        <pt x="221" y="103" on="0"/>
        <pt x="248" y="103" on="1"/>
        <pt x="289" y="103" on="0"/>
        <pt x="354" y="156" on="0"/>
        <pt x="363" y="204" on="1"/>
        <pt x="367" y="221" on="1"/>
        <pt x="256" y="213" on="1"/>
        <pt x="220" y="211" on="0"/>
        <pt x="185" y="178" on="0"/>
      </contour>
    </TTGlyph>
    <TTGlyph name="approxequal" xMin="119" yMin="157" xMax="502" yMax="543">
      <contour>
        <pt x="376" y="385" on="1"/>
        <pt x="349" y="385" on="0"/>
        <pt x="311" y="403" on="0"/>
        <pt x="281" y="428" on="0"/>
        <pt x="256" y="447" on="0"/>
        <pt x="243" y="447" on="1"/>
        <pt x="216" y="447" on="0"/>
        <pt x="205" y="391" on="1"/>
        <pt x="119" y="391" on="1"/>
        <pt x="127" y="429" on="0"/>
        <pt x="153" y="499" on="0"/>
        <pt x="202" y="543" on="0"/>
        <pt x="244" y="543" on="1"/>
        <pt x="272" y="543" on="0"/>
        <pt x="311" y="525" on="0"/>
        <pt x="340" y="500" on="0"/>
        <pt x="365" y="482" on="0"/>
        <pt x="378" y="482" on="1"/>
        <pt x="393" y="482" on="0"/>
        <pt x="410" y="510" on="0"/>
        <pt x="416" y="537" on="1"/>
        <pt x="502" y="537" on="1"/>
        <pt x="494" y="499" on="0"/>
        <pt x="467" y="429" on="0"/>
        <pt x="419" y="385" on="0"/>
      </contour>
      <contour>
        <pt x="376" y="157" on="1"/>
        <pt x="349" y="157" on="0"/>
        <pt x="311" y="176" on="0"/>
        <pt x="281" y="200" on="0"/>
        <pt x="256" y="219" on="0"/>
        <pt x="243" y="219" on="1"/>
        <pt x="216" y="219" on="0"/>
        <pt x="205" y="163" on="1"/>
        <pt x="119" y="163" on="1"/>
        <pt x="127" y="202" on="0"/>
        <pt x="153" y="271" on="0"/>
        <pt x="202" y="316" on="0"/>
        <pt x="244" y="316" on="1"/>
        <pt x="272" y="316" on="0"/>
        <pt x="311" y="297" on="0"/>
        <pt x="340" y="273" on="0"/>
        <pt x="365" y="254" on="0"/>
        <pt x="378" y="254" on="1"/>
        <pt x="393" y="254" on="0"/>
        <pt x="410" y="283" on="0"/>
        <pt x="416" y="310" on="1"/>
        <pt x="502" y="310" on="1"/>
        <pt x="494" y="272" on="0"/>
        <pt x="467" y="202" on="0"/>
        <pt x="419" y="157" on="0"/>
      </contour>
    </TTGlyph>
    <TTGlyph name="aring" xMin="31" yMin="-10" xMax="648" yMax="859">
      <contour>
        <pt x="409" y="583" on="1"/>
        <pt x="370" y="583" on="0"/>
        <pt x="307" y="620" on="0"/>
        <pt x="270" y="683" on="0"/>
        <pt x="270" y="721" on="1"/>
        <pt x="270" y="759" on="0"/>
        <pt x="307" y="822" on="0"/>
        <pt x="370" y="859" on="0"/>
        <pt x="409" y="859" on="1"/>
        <pt x="447" y="859" on="0"/>
        <pt x="510" y="822" on="0"/>
        <pt x="547" y="759" on="0"/>
        <pt x="547" y="721" on="1"/>
        <pt x="547" y="683" on="0"/>
        <pt x="510" y="620" on="0"/>
        <pt x="447" y="583" on="0"/>
      </contour>
      <contour>
        <pt x="409" y="668" on="1"/>
        <pt x="430" y="668" on="0"/>
        <pt x="461" y="699" on="0"/>
        <pt x="461" y="721" on="1"/>
        <pt x="461" y="743" on="0"/>
        <pt x="430" y="773" on="0"/>
        <pt x="409" y="773" on="1"/>
        <pt x="387" y="773" on="0"/>
        <pt x="356" y="743" on="0"/>
        <pt x="356" y="721" on="1"/>
        <pt x="356" y="699" on="0"/>
        <pt x="387" y="668" on="0"/>
      </contour>
      <contour>
        <pt x="302" y="540" on="1"/>
        <pt x="345" y="540" on="0"/>
        <pt x="402" y="516" on="0"/>
        <pt x="436" y="484" on="0"/>
        <pt x="452" y="457" on="0"/>
        <pt x="453" y="454" on="1"/>
        <pt x="461" y="454" on="1"/>
        <pt x="477" y="530" on="1"/>
        <pt x="648" y="530" on="1"/>
        <pt x="537" y="0" on="1"/>
        <pt x="366" y="0" on="1"/>
        <pt x="379" y="61" on="1"/>
        <pt x="371" y="61" on="1"/>
        <pt x="371" y="61" on="0"/>
        <pt x="356" y="40" on="0"/>
        <pt x="322" y="12" on="0"/>
        <pt x="266" y="-10" on="0"/>
        <pt x="225" y="-10" on="1"/>
        <pt x="159" y="-10" on="0"/>
        <pt x="73" y="53" on="0"/>
        <pt x="31" y="156" on="0"/>
        <pt x="31" y="215" on="1"/>
        <pt x="31" y="272" on="0"/>
        <pt x="68" y="387" on="0"/>
        <pt x="137" y="482" on="0"/>
        <pt x="238" y="540" on="0"/>
      </contour>
      <contour>
        <pt x="340" y="403" on="1"/>
        <pt x="297" y="403" on="0"/>
        <pt x="236" y="351" on="0"/>
        <pt x="204" y="273" on="0"/>
        <pt x="204" y="234" on="1"/>
        <pt x="204" y="191" on="0"/>
        <pt x="247" y="127" on="0"/>
        <pt x="295" y="127" on="1"/>
        <pt x="337" y="127" on="0"/>
        <pt x="398" y="179" on="0"/>
        <pt x="431" y="256" on="0"/>
        <pt x="431" y="295" on="1"/>
        <pt x="431" y="338" on="0"/>
        <pt x="387" y="403" on="0"/>
      </contour>
    </TTGlyph>
    <TTGlyph name="aring.ss01" xMin="15" yMin="-10" xMax="567" yMax="859">
      <contour>
        <pt x="383" y="583" on="1"/>
        <pt x="345" y="583" on="0"/>
        <pt x="282" y="620" on="0"/>
        <pt x="245" y="683" on="0"/>
        <pt x="245" y="721" on="1"/>
        <pt x="245" y="759" on="0"/>
        <pt x="282" y="822" on="0"/>
        <pt x="345" y="859" on="0"/>
        <pt x="383" y="859" on="1"/>
        <pt x="421" y="859" on="0"/>
        <pt x="484" y="822" on="0"/>
        <pt x="522" y="759" on="0"/>
        <pt x="522" y="721" on="1"/>
        <pt x="522" y="683" on="0"/>
        <pt x="484" y="620" on="0"/>
        <pt x="421" y="583" on="0"/>
      </contour>
      <contour>
        <pt x="383" y="668" on="1"/>
        <pt x="405" y="668" on="0"/>
        <pt x="436" y="699" on="0"/>
        <pt x="436" y="721" on="1"/>
        <pt x="436" y="743" on="0"/>
        <pt x="405" y="773" on="0"/>
        <pt x="383" y="773" on="1"/>
        <pt x="361" y="773" on="0"/>
        <pt x="330" y="743" on="0"/>
        <pt x="330" y="721" on="1"/>
        <pt x="330" y="699" on="0"/>
        <pt x="361" y="668" on="0"/>
      </contour>
      <contour>
        <pt x="326" y="61" on="1"/>
        <pt x="315" y="46" on="0"/>
        <pt x="278" y="13" on="0"/>
        <pt x="219" y="-10" on="0"/>
        <pt x="177" y="-10" on="1"/>
        <pt x="102" y="-10" on="0"/>
        <pt x="15" y="69" on="0"/>
        <pt x="15" y="135" on="1"/>
        <pt x="15" y="204" on="0"/>
        <pt x="118" y="304" on="0"/>
        <pt x="223" y="311" on="1"/>
        <pt x="388" y="322" on="1"/>
        <pt x="391" y="336" on="1"/>
        <pt x="398" y="371" on="0"/>
        <pt x="363" y="418" on="0"/>
        <pt x="319" y="418" on="1"/>
        <pt x="283" y="418" on="0"/>
        <pt x="248" y="390" on="0"/>
        <pt x="237" y="362" on="0"/>
        <pt x="237" y="362" on="1"/>
        <pt x="78" y="362" on="1"/>
        <pt x="78" y="362" on="0"/>
        <pt x="89" y="398" on="0"/>
        <pt x="119" y="451" on="0"/>
        <pt x="176" y="504" on="0"/>
        <pt x="266" y="540" on="0"/>
        <pt x="332" y="540" on="1"/>
        <pt x="419" y="540" on="0"/>
        <pt x="526" y="475" on="0"/>
        <pt x="567" y="373" on="0"/>
        <pt x="555" y="318" on="1"/>
        <pt x="487" y="0" on="1"/>
        <pt x="320" y="0" on="1"/>
        <pt x="333" y="61" on="1"/>
      </contour>
      <contour>
        <pt x="185" y="155" on="1"/>
        <pt x="185" y="129" on="0"/>
        <pt x="221" y="103" on="0"/>
        <pt x="248" y="103" on="1"/>
        <pt x="289" y="103" on="0"/>
        <pt x="354" y="156" on="0"/>
        <pt x="363" y="204" on="1"/>
        <pt x="367" y="221" on="1"/>
        <pt x="256" y="213" on="1"/>
        <pt x="220" y="211" on="0"/>
        <pt x="185" y="178" on="0"/>
      </contour>
    </TTGlyph>
    <TTGlyph name="asciicircum" xMin="154" yMin="555" xMax="553" yMax="740">
      <contour>
        <pt x="154" y="555" on="1"/>
        <pt x="326" y="740" on="1"/>
        <pt x="459" y="740" on="1"/>
        <pt x="553" y="555" on="1"/>
        <pt x="429" y="555" on="1"/>
        <pt x="383" y="658" on="1"/>
        <pt x="291" y="555" on="1"/>
      </contour>
    </TTGlyph>
    <TTGlyph name="asciitilde" xMin="80" yMin="313" xMax="463" yMax="472">
      <contour>
        <pt x="338" y="313" on="1"/>
        <pt x="311" y="313" on="0"/>
        <pt x="272" y="332" on="0"/>
        <pt x="242" y="356" on="0"/>
        <pt x="217" y="375" on="0"/>
        <pt x="204" y="375" on="1"/>
        <pt x="177" y="375" on="0"/>
        <pt x="166" y="319" on="1"/>
        <pt x="80" y="319" on="1"/>
        <pt x="88" y="358" on="0"/>
        <pt x="114" y="427" on="0"/>
        <pt x="163" y="472" on="0"/>
        <pt x="206" y="472" on="1"/>
        <pt x="233" y="472" on="0"/>
        <pt x="272" y="453" on="0"/>
        <pt x="301" y="429" on="0"/>
        <pt x="326" y="410" on="0"/>
        <pt x="339" y="410" on="1"/>
        <pt x="354" y="410" on="0"/>
        <pt x="371" y="439" on="0"/>
        <pt x="377" y="466" on="1"/>
        <pt x="463" y="466" on="1"/>
        <pt x="455" y="428" on="0"/>
        <pt x="429" y="358" on="0"/>
        <pt x="380" y="313" on="0"/>
      </contour>
    </TTGlyph>
    <TTGlyph name="asterisk" xMin="98" yMin="322" xMax="537" yMax="740">
      <contour>
        <pt x="241" y="322" on="1"/>
        <pt x="145" y="392" on="1"/>
        <pt x="227" y="500" on="1"/>
        <pt x="98" y="538" on="1"/>
        <pt x="134" y="651" on="1"/>
        <pt x="261" y="605" on="1"/>
        <pt x="258" y="740" on="1"/>
        <pt x="376" y="740" on="1"/>
        <pt x="373" y="605" on="1"/>
        <pt x="500" y="651" on="1"/>
        <pt x="537" y="538" on="1"/>
        <pt x="408" y="500" on="1"/>
        <pt x="490" y="392" on="1"/>
        <pt x="393" y="322" on="1"/>
        <pt x="317" y="433" on="1"/>
      </contour>
    </TTGlyph>
    <TTGlyph name="at" xMin="42" yMin="-177" xMax="1012" yMax="759">
      <contour>
        <pt x="500" y="-177" on="1"/>
        <pt x="382" y="-177" on="0"/>
        <pt x="210" y="-107" on="0"/>
        <pt x="97" y="13" on="0"/>
        <pt x="42" y="165" on="0"/>
        <pt x="42" y="247" on="1"/>
        <pt x="42" y="321" on="0"/>
        <pt x="86" y="468" on="0"/>
        <pt x="171" y="599" on="0"/>
        <pt x="297" y="701" on="0"/>
        <pt x="461" y="759" on="0"/>
        <pt x="561" y="759" on="1"/>
        <pt x="681" y="759" on="0"/>
        <pt x="852" y="689" on="0"/>
        <pt x="961" y="574" on="0"/>
        <pt x="1012" y="433" on="0"/>
        <pt x="1012" y="361" on="1"/>
        <pt x="1012" y="302" on="0"/>
        <pt x="979" y="194" on="0"/>
        <pt x="916" y="109" on="0"/>
        <pt x="828" y="59" on="0"/>
        <pt x="772" y="59" on="1"/>
        <pt x="725" y="59" on="0"/>
        <pt x="664" y="84" on="0"/>
        <pt x="630" y="118" on="0"/>
        <pt x="617" y="143" on="0"/>
        <pt x="617" y="143" on="1"/>
        <pt x="608" y="143" on="1"/>
        <pt x="608" y="143" on="0"/>
        <pt x="591" y="118" on="0"/>
        <pt x="555" y="84" on="0"/>
        <pt x="499" y="59" on="0"/>
        <pt x="460" y="59" on="1"/>
        <pt x="402" y="59" on="0"/>
        <pt x="326" y="112" on="0"/>
        <pt x="290" y="197" on="0"/>
        <pt x="290" y="245" on="1"/>
        <pt x="290" y="290" on="0"/>
        <pt x="320" y="380" on="0"/>
        <pt x="376" y="454" on="0"/>
        <pt x="457" y="499" on="0"/>
        <pt x="509" y="499" on="1"/>
        <pt x="543" y="499" on="0"/>
        <pt x="589" y="479" on="0"/>
        <pt x="616" y="452" on="0"/>
        <pt x="628" y="432" on="0"/>
        <pt x="628" y="432" on="1"/>
        <pt x="633" y="432" on="1"/>
        <pt x="646" y="491" on="1"/>
        <pt x="784" y="491" on="1"/>
        <pt x="740" y="278" on="1"/>
        <pt x="735" y="253" on="0"/>
        <pt x="734" y="204" on="0"/>
        <pt x="755" y="172" on="0"/>
        <pt x="782" y="172" on="1"/>
        <pt x="808" y="172" on="0"/>
        <pt x="853" y="226" on="0"/>
        <pt x="881" y="313" on="0"/>
        <pt x="881" y="363" on="1"/>
        <pt x="881" y="411" on="0"/>
        <pt x="849" y="509" on="0"/>
        <pt x="775" y="590" on="0"/>
        <pt x="652" y="640" on="0"/>
        <pt x="561" y="640" on="1"/>
        <pt x="469" y="640" on="0"/>
        <pt x="325" y="571" on="0"/>
        <pt x="227" y="457" on="0"/>
        <pt x="176" y="318" on="0"/>
        <pt x="176" y="249" on="1"/>
        <pt x="176" y="189" on="0"/>
        <pt x="215" y="79" on="0"/>
        <pt x="294" y="-6" on="0"/>
        <pt x="416" y="-56" on="0"/>
        <pt x="500" y="-56" on="1"/>
        <pt x="549" y="-56" on="0"/>
        <pt x="637" y="-40" on="0"/>
        <pt x="705" y="-20" on="0"/>
        <pt x="743" y="-4" on="0"/>
        <pt x="743" y="-4" on="1"/>
        <pt x="786" y="-115" on="1"/>
        <pt x="786" y="-115" on="0"/>
        <pt x="745" y="-134" on="0"/>
        <pt x="669" y="-158" on="0"/>
        <pt x="564" y="-177" on="0"/>
      </contour>
      <contour>
        <pt x="495" y="172" on="1"/>
        <pt x="529" y="172" on="0"/>
        <pt x="577" y="212" on="0"/>
        <pt x="603" y="272" on="0"/>
        <pt x="603" y="302" on="1"/>
        <pt x="603" y="336" on="0"/>
        <pt x="568" y="386" on="0"/>
        <pt x="529" y="386" on="1"/>
        <pt x="496" y="386" on="0"/>
        <pt x="448" y="346" on="0"/>
        <pt x="423" y="287" on="0"/>
        <pt x="423" y="256" on="1"/>
        <pt x="423" y="223" on="0"/>
        <pt x="457" y="172" on="0"/>
      </contour>
    </TTGlyph>
    <TTGlyph name="atilde" xMin="31" yMin="-10" xMax="648" yMax="772">
      <contour>
        <pt x="481" y="613" on="1"/>
        <pt x="454" y="613" on="0"/>
        <pt x="415" y="631" on="0"/>
        <pt x="385" y="656" on="0"/>
        <pt x="360" y="674" on="0"/>
        <pt x="347" y="674" on="1"/>
        <pt x="320" y="674" on="0"/>
        <pt x="309" y="619" on="1"/>
        <pt x="222" y="619" on="1"/>
        <pt x="231" y="658" on="0"/>
        <pt x="257" y="728" on="0"/>
        <pt x="306" y="772" on="0"/>
        <pt x="349" y="772" on="1"/>
        <pt x="376" y="772" on="0"/>
        <pt x="415" y="754" on="0"/>
        <pt x="445" y="730" on="0"/>
        <pt x="470" y="711" on="0"/>
        <pt x="483" y="711" on="1"/>
        <pt x="498" y="711" on="0"/>
        <pt x="515" y="739" on="0"/>
        <pt x="520" y="766" on="1"/>
        <pt x="607" y="766" on="1"/>
        <pt x="599" y="727" on="0"/>
        <pt x="572" y="657" on="0"/>
        <pt x="523" y="613" on="0"/>
      </contour>
      <contour>
        <pt x="302" y="540" on="1"/>
        <pt x="345" y="540" on="0"/>
        <pt x="402" y="516" on="0"/>
        <pt x="436" y="484" on="0"/>
        <pt x="452" y="457" on="0"/>
        <pt x="453" y="454" on="1"/>
        <pt x="461" y="454" on="1"/>
        <pt x="477" y="530" on="1"/>
        <pt x="648" y="530" on="1"/>
        <pt x="537" y="0" on="1"/>
        <pt x="366" y="0" on="1"/>
        <pt x="379" y="61" on="1"/>
        <pt x="371" y="61" on="1"/>
        <pt x="371" y="61" on="0"/>
        <pt x="356" y="40" on="0"/>
        <pt x="322" y="12" on="0"/>
        <pt x="266" y="-10" on="0"/>
        <pt x="225" y="-10" on="1"/>
        <pt x="159" y="-10" on="0"/>
        <pt x="73" y="53" on="0"/>
        <pt x="31" y="156" on="0"/>
        <pt x="31" y="215" on="1"/>
        <pt x="31" y="272" on="0"/>
        <pt x="68" y="387" on="0"/>
        <pt x="137" y="482" on="0"/>
        <pt x="238" y="540" on="0"/>
      </contour>
      <contour>
        <pt x="340" y="403" on="1"/>
        <pt x="297" y="403" on="0"/>
        <pt x="236" y="351" on="0"/>
        <pt x="204" y="273" on="0"/>
        <pt x="204" y="234" on="1"/>
        <pt x="204" y="191" on="0"/>
        <pt x="247" y="127" on="0"/>
        <pt x="295" y="127" on="1"/>
        <pt x="337" y="127" on="0"/>
        <pt x="398" y="179" on="0"/>
        <pt x="431" y="256" on="0"/>
        <pt x="431" y="295" on="1"/>
        <pt x="431" y="338" on="0"/>
        <pt x="387" y="403" on="0"/>
      </contour>
    </TTGlyph>
    <TTGlyph name="atilde.ss01" xMin="15" yMin="-10" xMax="582" yMax="772">
      <contour>
        <pt x="456" y="613" on="1"/>
        <pt x="429" y="613" on="0"/>
        <pt x="390" y="631" on="0"/>
        <pt x="360" y="656" on="0"/>
        <pt x="335" y="674" on="0"/>
        <pt x="321" y="674" on="1"/>
        <pt x="295" y="674" on="0"/>
        <pt x="284" y="619" on="1"/>
        <pt x="197" y="619" on="1"/>
        <pt x="205" y="658" on="0"/>
        <pt x="231" y="728" on="0"/>
        <pt x="281" y="772" on="0"/>
        <pt x="323" y="772" on="1"/>
        <pt x="350" y="772" on="0"/>
        <pt x="390" y="754" on="0"/>
        <pt x="419" y="730" on="0"/>
        <pt x="444" y="711" on="0"/>
        <pt x="457" y="711" on="1"/>
        <pt x="472" y="711" on="0"/>
        <pt x="489" y="739" on="0"/>
        <pt x="495" y="766" on="1"/>
        <pt x="582" y="766" on="1"/>
        <pt x="574" y="727" on="0"/>
        <pt x="547" y="657" on="0"/>
        <pt x="498" y="613" on="0"/>
      </contour>
      <contour>
        <pt x="326" y="61" on="1"/>
        <pt x="315" y="46" on="0"/>
        <pt x="278" y="13" on="0"/>
        <pt x="219" y="-10" on="0"/>
        <pt x="177" y="-10" on="1"/>
        <pt x="102" y="-10" on="0"/>
        <pt x="15" y="69" on="0"/>
        <pt x="15" y="135" on="1"/>
        <pt x="15" y="204" on="0"/>
        <pt x="118" y="304" on="0"/>
        <pt x="223" y="311" on="1"/>
        <pt x="388" y="322" on="1"/>
        <pt x="391" y="336" on="1"/>
        <pt x="398" y="371" on="0"/>
        <pt x="363" y="418" on="0"/>
        <pt x="319" y="418" on="1"/>
        <pt x="283" y="418" on="0"/>
        <pt x="248" y="390" on="0"/>
        <pt x="237" y="362" on="0"/>
        <pt x="237" y="362" on="1"/>
        <pt x="78" y="362" on="1"/>
        <pt x="78" y="362" on="0"/>
        <pt x="89" y="398" on="0"/>
        <pt x="119" y="451" on="0"/>
        <pt x="176" y="504" on="0"/>
        <pt x="266" y="540" on="0"/>
        <pt x="332" y="540" on="1"/>
        <pt x="419" y="540" on="0"/>
        <pt x="526" y="475" on="0"/>
        <pt x="567" y="373" on="0"/>
        <pt x="555" y="318" on="1"/>
        <pt x="487" y="0" on="1"/>
        <pt x="320" y="0" on="1"/>
        <pt x="333" y="61" on="1"/>
      </contour>
      <contour>
        <pt x="185" y="155" on="1"/>
        <pt x="185" y="129" on="0"/>
        <pt x="221" y="103" on="0"/>
        <pt x="248" y="103" on="1"/>
        <pt x="289" y="103" on="0"/>
        <pt x="354" y="156" on="0"/>
        <pt x="363" y="204" on="1"/>
        <pt x="367" y="221" on="1"/>
        <pt x="256" y="213" on="1"/>
        <pt x="220" y="211" on="0"/>
        <pt x="185" y="178" on="0"/>
      </contour>
    </TTGlyph>
    <TTGlyph name="b" xMin="10" yMin="-10" xMax="626" yMax="760">
      <contour>
        <pt x="356" y="-10" on="1"/>
        <pt x="313" y="-10" on="0"/>
        <pt x="256" y="14" on="0"/>
        <pt x="222" y="46" on="0"/>
        <pt x="206" y="73" on="0"/>
        <pt x="205" y="76" on="1"/>
        <pt x="197" y="76" on="1"/>
        <pt x="181" y="0" on="1"/>
        <pt x="10" y="0" on="1"/>
        <pt x="169" y="760" on="1"/>
        <pt x="340" y="760" on="1"/>
        <pt x="279" y="469" on="1"/>
        <pt x="286" y="469" on="1"/>
        <pt x="286" y="469" on="0"/>
        <pt x="302" y="490" on="0"/>
        <pt x="336" y="518" on="0"/>
        <pt x="391" y="540" on="0"/>
        <pt x="432" y="540" on="1"/>
        <pt x="498" y="540" on="0"/>
        <pt x="584" y="477" on="0"/>
        <pt x="626" y="374" on="0"/>
        <pt x="626" y="315" on="1"/>
        <pt x="626" y="258" on="0"/>
        <pt x="590" y="143" on="0"/>
        <pt x="520" y="48" on="0"/>
        <pt x="420" y="-10" on="0"/>
      </contour>
      <contour>
        <pt x="318" y="127" on="1"/>
        <pt x="360" y="127" on="0"/>
        <pt x="421" y="179" on="0"/>
        <pt x="454" y="257" on="0"/>
        <pt x="454" y="296" on="1"/>
        <pt x="454" y="339" on="0"/>
        <pt x="410" y="403" on="0"/>
        <pt x="363" y="403" on="1"/>
        <pt x="320" y="403" on="0"/>
        <pt x="259" y="351" on="0"/>
        <pt x="227" y="274" on="0"/>
        <pt x="227" y="235" on="1"/>
        <pt x="227" y="192" on="0"/>
        <pt x="271" y="127" on="0"/>
      </contour>
    </TTGlyph>
    <TTGlyph name="backslash" xMin="135" yMin="-191" xMax="407" yMax="831">
      <contour>
        <pt x="407" y="-191" on="1"/>
        <pt x="266" y="-191" on="1"/>
        <pt x="135" y="831" on="1"/>
        <pt x="276" y="831" on="1"/>
      </contour>
    </TTGlyph>
    <TTGlyph name="bar" xMin="23" yMin="-252" xMax="419" yMax="958">
      <contour>
        <pt x="23" y="-252" on="1"/>
        <pt x="280" y="958" on="1"/>
        <pt x="419" y="958" on="1"/>
        <pt x="162" y="-252" on="1"/>
      </contour>
    </TTGlyph>
    <TTGlyph name="braceleft" xMin="28" yMin="-217" xMax="587" yMax="858">
      <contour>
        <pt x="268" y="-217" on="1"/>
        <pt x="188" y="-217" on="0"/>
        <pt x="97" y="-160" on="0"/>
        <pt x="69" y="-58" on="0"/>
        <pt x="83" y="7" on="1"/>
        <pt x="121" y="187" on="1"/>
        <pt x="133" y="248" on="0"/>
        <pt x="73" y="248" on="1"/>
        <pt x="28" y="248" on="1"/>
        <pt x="58" y="393" on="1"/>
        <pt x="99" y="393" on="1"/>
        <pt x="165" y="393" on="0"/>
        <pt x="179" y="462" on="1"/>
        <pt x="222" y="667" on="1"/>
        <pt x="242" y="761" on="0"/>
        <pt x="352" y="858" on="0"/>
        <pt x="454" y="858" on="1"/>
        <pt x="587" y="858" on="1"/>
        <pt x="556" y="712" on="1"/>
        <pt x="469" y="712" on="1"/>
        <pt x="407" y="712" on="0"/>
        <pt x="394" y="649" on="1"/>
        <pt x="353" y="454" on="1"/>
        <pt x="342" y="400" on="0"/>
        <pt x="295" y="339" on="0"/>
        <pt x="240" y="324" on="1"/>
        <pt x="238" y="317" on="1"/>
        <pt x="286" y="301" on="0"/>
        <pt x="306" y="231" on="0"/>
        <pt x="295" y="185" on="1"/>
        <pt x="254" y="-10" on="1"/>
        <pt x="241" y="-71" on="0"/>
        <pt x="310" y="-71" on="1"/>
        <pt x="390" y="-71" on="1"/>
        <pt x="359" y="-217" on="1"/>
      </contour>
    </TTGlyph>
    <TTGlyph name="braceleft.case" xMin="28" yMin="-189" xMax="587" yMax="886">
      <contour>
        <pt x="268" y="-189" on="1"/>
        <pt x="188" y="-189" on="0"/>
        <pt x="97" y="-132" on="0"/>
        <pt x="69" y="-30" on="0"/>
        <pt x="83" y="35" on="1"/>
        <pt x="121" y="215" on="1"/>
        <pt x="133" y="276" on="0"/>
        <pt x="73" y="276" on="1"/>
        <pt x="28" y="276" on="1"/>
        <pt x="58" y="421" on="1"/>
        <pt x="99" y="421" on="1"/>
        <pt x="165" y="421" on="0"/>
        <pt x="179" y="490" on="1"/>
        <pt x="222" y="695" on="1"/>
        <pt x="242" y="789" on="0"/>
        <pt x="352" y="886" on="0"/>
        <pt x="454" y="886" on="1"/>
        <pt x="587" y="886" on="1"/>
        <pt x="556" y="740" on="1"/>
        <pt x="469" y="740" on="1"/>
        <pt x="407" y="740" on="0"/>
        <pt x="394" y="677" on="1"/>
        <pt x="353" y="482" on="1"/>
        <pt x="342" y="428" on="0"/>
        <pt x="295" y="367" on="0"/>
        <pt x="240" y="352" on="1"/>
        <pt x="238" y="345" on="1"/>
        <pt x="286" y="329" on="0"/>
        <pt x="306" y="259" on="0"/>
        <pt x="295" y="213" on="1"/>
        <pt x="254" y="18" on="1"/>
        <pt x="241" y="-43" on="0"/>
        <pt x="310" y="-43" on="1"/>
        <pt x="390" y="-43" on="1"/>
        <pt x="359" y="-189" on="1"/>
      </contour>
    </TTGlyph>
    <TTGlyph name="braceright" xMin="-68" yMin="-217" xMax="491" yMax="858">
      <contour>
        <pt x="251" y="858" on="1"/>
        <pt x="331" y="858" on="0"/>
        <pt x="421" y="800" on="0"/>
        <pt x="450" y="699" on="0"/>
        <pt x="436" y="633" on="1"/>
        <pt x="398" y="454" on="1"/>
        <pt x="386" y="393" on="0"/>
        <pt x="446" y="393" on="1"/>
        <pt x="491" y="393" on="1"/>
        <pt x="460" y="248" on="1"/>
        <pt x="420" y="248" on="1"/>
        <pt x="354" y="248" on="0"/>
        <pt x="340" y="179" on="1"/>
        <pt x="297" y="-26" on="1"/>
        <pt x="277" y="-120" on="0"/>
        <pt x="167" y="-217" on="0"/>
        <pt x="64" y="-217" on="1"/>
        <pt x="-68" y="-217" on="1"/>
        <pt x="-38" y="-71" on="1"/>
        <pt x="50" y="-71" on="1"/>
        <pt x="111" y="-71" on="0"/>
        <pt x="125" y="-8" on="1"/>
        <pt x="166" y="187" on="1"/>
        <pt x="177" y="241" on="0"/>
        <pt x="223" y="301" on="0"/>
        <pt x="279" y="317" on="1"/>
        <pt x="280" y="324" on="1"/>
        <pt x="233" y="340" on="0"/>
        <pt x="213" y="410" on="0"/>
        <pt x="223" y="456" on="1"/>
        <pt x="265" y="651" on="1"/>
        <pt x="277" y="712" on="0"/>
        <pt x="209" y="712" on="1"/>
        <pt x="129" y="712" on="1"/>
        <pt x="160" y="858" on="1"/>
      </contour>
    </TTGlyph>
    <TTGlyph name="braceright.case" xMin="-68" yMin="-189" xMax="491" yMax="886">
      <contour>
        <pt x="251" y="886" on="1"/>
        <pt x="331" y="886" on="0"/>
        <pt x="421" y="828" on="0"/>
        <pt x="450" y="727" on="0"/>
        <pt x="436" y="661" on="1"/>
        <pt x="398" y="482" on="1"/>
        <pt x="386" y="421" on="0"/>
        <pt x="446" y="421" on="1"/>
        <pt x="491" y="421" on="1"/>
        <pt x="460" y="276" on="1"/>
        <pt x="420" y="276" on="1"/>
        <pt x="354" y="276" on="0"/>
        <pt x="340" y="207" on="1"/>
        <pt x="297" y="2" on="1"/>
        <pt x="277" y="-92" on="0"/>
        <pt x="167" y="-189" on="0"/>
        <pt x="64" y="-189" on="1"/>
        <pt x="-68" y="-189" on="1"/>
        <pt x="-38" y="-43" on="1"/>
        <pt x="50" y="-43" on="1"/>
        <pt x="111" y="-43" on="0"/>
        <pt x="125" y="20" on="1"/>
        <pt x="166" y="215" on="1"/>
        <pt x="177" y="269" on="0"/>
        <pt x="223" y="329" on="0"/>
        <pt x="279" y="345" on="1"/>
        <pt x="280" y="352" on="1"/>
        <pt x="233" y="368" on="0"/>
        <pt x="213" y="438" on="0"/>
        <pt x="223" y="484" on="1"/>
        <pt x="265" y="679" on="1"/>
        <pt x="277" y="740" on="0"/>
        <pt x="209" y="740" on="1"/>
        <pt x="129" y="740" on="1"/>
        <pt x="160" y="886" on="1"/>
      </contour>
    </TTGlyph>
</ttFont>
